<ttFont>
<head>
    <!-- Most of this table will be recalculated by the compiler -->
    <tableVersion value="1.0"/>
    <fontRevision value="2.137"/>
    <checkSumAdjustment value="0x8a7f7048"/>
    <magicNumber value="0x5f0f3cf5"/>
    <flags value="00000000 00011001"/>
    <unitsPerEm value="2048"/>
    <created value="Fri Sep 12 12:29:34 2008"/>
    <modified value="Wed Mar 29 12:03:00 2017"/>
    <xMin value="-1509"/>
    <yMin value="-555"/>
    <xMax value="2352"/>
    <yMax value="2163"/>
    <macStyle value="00000000 00000000"/>
    <lowestRecPPEM value="9"/>
    <fontDirectionHint value="2"/>
    <indexToLocFormat value="0"/>
    <glyphDataFormat value="0"/>
  </head>
    <TTGlyph name=".notdef" xMin="100" yMin="0" xMax="808" yMax="1456">
      <contour>
        <pt x="808" y="0" on="1"/>
        <pt x="100" y="0" on="1"/>
        <pt x="100" y="1456" on="1"/>
        <pt x="808" y="1456" on="1"/>
      </contour>
      <contour>
        <pt x="754" y="84" on="1"/>
        <pt x="754" y="1371" on="1"/>
        <pt x="480" y="728" on="1"/>
      </contour>
      <contour>
        <pt x="154" y="1359" on="1"/>
        <pt x="154" y="96" on="1"/>
        <pt x="422" y="728" on="1"/>
      </contour>
      <contour>
        <pt x="194" y="54" on="1"/>
        <pt x="709" y="54" on="1"/>
        <pt x="451" y="660" on="1"/>
      </contour>
      <contour>
        <pt x="451" y="796" on="1"/>
        <pt x="709" y="1402" on="1"/>
        <pt x="194" y="1402" on="1"/>
      </contour>
    </TTGlyph>
    <TTGlyph name="A" xMin="28" yMin="0" xMax="1309" yMax="1456">
      <contour>
        <pt x="973" y="380" on="1"/>
        <pt x="363" y="380" on="1"/>
        <pt x="226" y="0" on="1"/>
        <pt x="28" y="0" on="1"/>
        <pt x="584" y="1456" on="1"/>
        <pt x="752" y="1456" on="1"/>
        <pt x="1309" y="0" on="1"/>
        <pt x="1112" y="0" on="1"/>
      </contour>
      <contour>
        <pt x="421" y="538" on="1"/>
        <pt x="916" y="538" on="1"/>
        <pt x="668" y="1219" on="1"/>
      </contour>
    </TTGlyph>
    <TTGlyph name="AE" xMin="-14" yMin="0" xMax="1879" yMax="1456">
      <contour>
        <pt x="1879" y="0" on="1"/>
        <pt x="996" y="0" on="1"/>
        <pt x="981" y="353" on="1"/>
        <pt x="417" y="353" on="1"/>
        <pt x="212" y="0" on="1"/>
        <pt x="-14" y="0" on="1"/>
        <pt x="866" y="1456" on="1"/>
        <pt x="1817" y="1456" on="1"/>
        <pt x="1817" y="1304" on="1"/>
        <pt x="1126" y="1304" on="1"/>
        <pt x="1146" y="833" on="1"/>
        <pt x="1736" y="833" on="1"/>
        <pt x="1736" y="682" on="1"/>
        <pt x="1152" y="682" on="1"/>
        <pt x="1174" y="151" on="1"/>
        <pt x="1879" y="151" on="1"/>
      </contour>
      <contour>
        <pt x="518" y="527" on="1"/>
        <pt x="974" y="527" on="1"/>
        <pt x="943" y="1260" on="1"/>
      </contour>
    </TTGlyph>
    <TTGlyph name="AEacute" xMin="-14" yMin="0" xMax="1879" yMax="1858">
      <component glyphName="AE" x="0" y="0" flags="0x204"/>
      <component glyphName="acute" x="713" y="322" flags="0x4"/>
    </TTGlyph>
    <TTGlyph name="Aacute" xMin="28" yMin="0" xMax="1309" yMax="1846">
      <component glyphName="A" x="0" y="0" flags="0x204"/>
      <component glyphName="acute" x="447" y="310" flags="0x4"/>
    </TTGlyph>
    <TTGlyph name="Abreve" xMin="28" yMin="0" xMax="1309" yMax="1806">
      <component glyphName="A" x="0" y="0" flags="0x204"/>
      <component glyphName="breve" x="244" y="311" flags="0x4"/>
    </TTGlyph>
    <TTGlyph name="Acircumflex" xMin="28" yMin="0" xMax="1309" yMax="1846">
      <component glyphName="A" x="0" y="0" flags="0x204"/>
      <component glyphName="circumflex" x="201" y="310" flags="0x4"/>
    </TTGlyph>
    <TTGlyph name="Adieresis" xMin="28" yMin="0" xMax="1309" yMax="1787">
      <component glyphName="A" x="0" y="0" flags="0x204"/>
      <component glyphName="dieresis" x="249" y="310" flags="0x4"/>
    </TTGlyph>
    <TTGlyph name="Agrave" xMin="28" yMin="0" xMax="1309" yMax="1846">
      <component glyphName="A" x="0" y="0" flags="0x204"/>
      <component glyphName="grave" x="304" y="310" flags="0x4"/>
    </TTGlyph>
    <TTGlyph name="Alpha" xMin="28" yMin="0" xMax="1309" yMax="1456">
      <component glyphName="A" x="0" y="0" flags="0x204"/>
    </TTGlyph>
    <TTGlyph name="Alphatonos" xMin="28" yMin="0" xMax="1309" yMax="1599">
      <component glyphName="A" x="0" y="0" flags="0x204"/>
      <component glyphName="tonos" x="4" y="0" flags="0x4"/>
    </TTGlyph>
    <TTGlyph name="Amacron" xMin="28" yMin="0" xMax="1309" yMax="1763">
      <component glyphName="A" x="0" y="0" flags="0x204"/>
      <component glyphName="macron" x="199" y="318" flags="0x4"/>
    </TTGlyph>
    <TTGlyph name="Aogonek" xMin="28" yMin="-433" xMax="1309" yMax="1456">
      <contour>
        <pt x="752" y="1456" on="1"/>
        <pt x="1309" y="0" on="1"/>
        <pt x="1271" y="0" on="1"/>
        <pt x="1213" y="-45" on="1"/>
        <pt x="1100" y="-136" on="0"/>
        <pt x="1100" y="-222" on="1"/>
        <pt x="1100" y="-294" on="0"/>
        <pt x="1178" y="-294" on="1"/>
        <pt x="1226" y="-294" on="0"/>
        <pt x="1278" y="-268" on="1"/>
        <pt x="1291" y="-389" on="1"/>
        <pt x="1221" y="-433" on="0"/>
        <pt x="1131" y="-433" on="1"/>
        <pt x="1042" y="-433" on="0"/>
        <pt x="939" y="-329" on="0"/>
        <pt x="939" y="-243" on="1"/>
        <pt x="939" y="-99" on="0"/>
        <pt x="1108" y="9" on="1"/>
        <pt x="973" y="380" on="1"/>
        <pt x="363" y="380" on="1"/>
        <pt x="226" y="0" on="1"/>
        <pt x="28" y="0" on="1"/>
        <pt x="584" y="1456" on="1"/>
      </contour>
      <contour>
        <pt x="421" y="538" on="1"/>
        <pt x="916" y="538" on="1"/>
        <pt x="668" y="1219" on="1"/>
      </contour>
    </TTGlyph>
    <TTGlyph name="Aring" xMin="28" yMin="0" xMax="1309" yMax="1937">
      <component glyphName="A" x="0" y="0" flags="0x204"/>
      <component glyphName="ring" x="336" y="321" flags="0x4"/>
    </TTGlyph>
    <TTGlyph name="Aringacute" xMin="28" yMin="0" xMax="1309" yMax="1940">
      <component glyphName="A" x="0" y="0" flags="0x204"/>
      <component glyphName="glyph00551" x="346" y="290" flags="0x4"/>
    </TTGlyph>
    <TTGlyph name="Atilde" xMin="28" yMin="0" xMax="1309" yMax="1826">
      <component glyphName="A" x="0" y="0" flags="0x204"/>
      <component glyphName="tilde" x="197" y="314" flags="0x4"/>
    </TTGlyph>
    <TTGlyph name="B" xMin="169" yMin="0" xMax="1160" yMax="1456">
      <contour>
        <pt x="169" y="0" on="1"/>
        <pt x="169" y="1456" on="1"/>
        <pt x="645" y="1456" on="1"/>
        <pt x="882" y="1456" on="0"/>
        <pt x="1121" y="1260" on="0"/>
        <pt x="1121" y="1068" on="1"/>
        <pt x="1121" y="966" on="0"/>
        <pt x="1005" y="809" on="0"/>
        <pt x="905" y="766" on="1"/>
        <pt x="1023" y="733" on="0"/>
        <pt x="1160" y="548" on="0"/>
        <pt x="1160" y="420" on="1"/>
        <pt x="1160" y="224" on="0"/>
        <pt x="906" y="0" on="0"/>
        <pt x="674" y="0" on="1"/>
      </contour>
      <contour>
        <pt x="361" y="681" on="1"/>
        <pt x="361" y="157" on="1"/>
        <pt x="678" y="157" on="1"/>
        <pt x="812" y="157" on="0"/>
        <pt x="967" y="296" on="0"/>
        <pt x="967" y="418" on="1"/>
        <pt x="967" y="681" on="0"/>
        <pt x="681" y="681" on="1"/>
      </contour>
      <contour>
        <pt x="361" y="835" on="1"/>
        <pt x="651" y="835" on="1"/>
        <pt x="777" y="835" on="0"/>
        <pt x="928" y="961" on="0"/>
        <pt x="928" y="1069" on="1"/>
        <pt x="928" y="1189" on="0"/>
        <pt x="788" y="1298" on="0"/>
        <pt x="645" y="1298" on="1"/>
        <pt x="361" y="1298" on="1"/>
      </contour>
    </TTGlyph>
    <TTGlyph name="Beta" xMin="169" yMin="0" xMax="1160" yMax="1456">
      <component glyphName="B" x="0" y="0" flags="0x204"/>
    </TTGlyph>
    <TTGlyph name="C" xMin="119" yMin="-20" xMax="1240" yMax="1476">
      <contour>
        <pt x="1240" y="462" on="1"/>
        <pt x="1213" y="231" on="0"/>
        <pt x="926" y="-20" on="0"/>
        <pt x="688" y="-20" on="1"/>
        <pt x="430" y="-20" on="0"/>
        <pt x="119" y="350" on="0"/>
        <pt x="119" y="660" on="1"/>
        <pt x="119" y="800" on="1"/>
        <pt x="119" y="1003" on="0"/>
        <pt x="264" y="1311" on="0"/>
        <pt x="530" y="1476" on="0"/>
        <pt x="705" y="1476" on="1"/>
        <pt x="937" y="1476" on="0"/>
        <pt x="1217" y="1217" on="0"/>
        <pt x="1240" y="988" on="1"/>
        <pt x="1047" y="988" on="1"/>
        <pt x="1022" y="1162" on="0"/>
        <pt x="855" y="1318" on="0"/>
        <pt x="705" y="1318" on="1"/>
        <pt x="521" y="1318" on="0"/>
        <pt x="312" y="1046" on="0"/>
        <pt x="312" y="795" on="1"/>
        <pt x="312" y="654" on="1"/>
        <pt x="312" y="417" on="0"/>
        <pt x="510" y="137" on="0"/>
        <pt x="688" y="137" on="1"/>
        <pt x="848" y="137" on="0"/>
        <pt x="1019" y="282" on="0"/>
        <pt x="1047" y="462" on="1"/>
      </contour>
    </TTGlyph>
    <TTGlyph name="Cacute" xMin="119" yMin="-20" xMax="1240" yMax="1879">
      <component glyphName="C" x="0" y="0" flags="0x204"/>
      <component glyphName="acute" x="454" y="343" flags="0x4"/>
    </TTGlyph>
    <TTGlyph name="Ccaron" xMin="119" yMin="-20" xMax="1240" yMax="1879">
      <component glyphName="C" x="0" y="0" flags="0x204"/>
      <component glyphName="caron" x="229" y="344" flags="0x4"/>
    </TTGlyph>
    <TTGlyph name="Ccedilla" xMin="119" yMin="-444" xMax="1240" yMax="1476">
      <component glyphName="C" x="0" y="0" flags="0x204"/>
      <component glyphName="cedilla" x="466" y="-9" flags="0x4"/>
    </TTGlyph>
    <TTGlyph name="Ccircumflex" xMin="119" yMin="-20" xMax="1240" yMax="1879">
      <component glyphName="C" x="0" y="0" flags="0x204"/>
      <component glyphName="circumflex" x="208" y="343" flags="0x4"/>
    </TTGlyph>
    <TTGlyph name="Cdotaccent" xMin="119" yMin="-20" xMax="1240" yMax="1817">
      <component glyphName="C" x="0" y="0" flags="0x204"/>
      <component glyphName="dotaccent" x="429" y="343" flags="0x4"/>
    </TTGlyph>
    <TTGlyph name="Chi" xMin="57" yMin="0" xMax="1230" yMax="1456">
      <component glyphName="X" x="0" y="0" flags="0x204"/>
    </TTGlyph>
    <TTGlyph name="D" xMin="169" yMin="0" xMax="1222" yMax="1456">
      <contour>
        <pt x="169" y="0" on="1"/>
        <pt x="169" y="1456" on="1"/>
        <pt x="580" y="1456" on="1"/>
        <pt x="770" y="1456" on="0"/>
        <pt x="1062" y="1288" on="0"/>
        <pt x="1221" y="978" on="0"/>
        <pt x="1222" y="777" on="1"/>
        <pt x="1222" y="684" on="1"/>
        <pt x="1222" y="478" on="0"/>
        <pt x="1063" y="168" on="0"/>
        <pt x="768" y="2" on="0"/>
        <pt x="572" y="0" on="1"/>
      </contour>
      <contour>
        <pt x="361" y="1298" on="1"/>
        <pt x="361" y="157" on="1"/>
        <pt x="563" y="157" on="1"/>
        <pt x="785" y="157" on="0"/>
        <pt x="1032" y="433" on="0"/>
        <pt x="1032" y="688" on="1"/>
        <pt x="1032" y="773" on="1"/>
        <pt x="1032" y="1021" on="0"/>
        <pt x="799" y="1296" on="0"/>
        <pt x="585" y="1298" on="1"/>
      </contour>
    </TTGlyph>
    <TTGlyph name="Dcaron" xMin="169" yMin="0" xMax="1222" yMax="1858">
      <component glyphName="D" x="0" y="0" flags="0x204"/>
      <component glyphName="caron" x="158" y="323" flags="0x4"/>
    </TTGlyph>
    <TTGlyph name="Dcroat" xMin="7" yMin="0" xMax="1252" yMax="1456">
      <contour>
        <pt x="199" y="0" on="1"/>
        <pt x="199" y="666" on="1"/>
        <pt x="7" y="666" on="1"/>
        <pt x="7" y="817" on="1"/>
        <pt x="199" y="817" on="1"/>
        <pt x="199" y="1456" on="1"/>
        <pt x="610" y="1456" on="1"/>
        <pt x="800" y="1456" on="0"/>
        <pt x="1092" y="1288" on="0"/>
        <pt x="1251" y="978" on="0"/>
        <pt x="1252" y="777" on="1"/>
        <pt x="1252" y="684" on="1"/>
        <pt x="1252" y="478" on="0"/>
        <pt x="1093" y="168" on="0"/>
        <pt x="798" y="2" on="0"/>
        <pt x="602" y="0" on="1"/>
      </contour>
      <contour>
        <pt x="643" y="666" on="1"/>
        <pt x="391" y="666" on="1"/>
        <pt x="391" y="157" on="1"/>
        <pt x="592" y="157" on="1"/>
        <pt x="814" y="157" on="0"/>
        <pt x="1061" y="431" on="0"/>
        <pt x="1062" y="680" on="1"/>
        <pt x="1062" y="773" on="1"/>
        <pt x="1062" y="1021" on="0"/>
        <pt x="829" y="1296" on="0"/>
        <pt x="615" y="1298" on="1"/>
        <pt x="391" y="1298" on="1"/>
        <pt x="391" y="817" on="1"/>
        <pt x="643" y="817" on="1"/>
      </contour>
    </TTGlyph>
    <TTGlyph name="E" xMin="169" yMin="0" xMax="1094" yMax="1456">
      <contour>
        <pt x="992" y="673" on="1"/>
        <pt x="361" y="673" on="1"/>
        <pt x="361" y="157" on="1"/>
        <pt x="1094" y="157" on="1"/>
        <pt x="1094" y="0" on="1"/>
        <pt x="169" y="0" on="1"/>
        <pt x="169" y="1456" on="1"/>
        <pt x="1084" y="1456" on="1"/>
        <pt x="1084" y="1298" on="1"/>
        <pt x="361" y="1298" on="1"/>
        <pt x="361" y="830" on="1"/>
        <pt x="992" y="830" on="1"/>
      </contour>
    </TTGlyph>
    <TTGlyph name="Eacute" xMin="169" yMin="0" xMax="1094" yMax="1858">
      <component glyphName="E" x="0" y="0" flags="0x204"/>
      <component glyphName="acute" x="394" y="322" flags="0x4"/>
    </TTGlyph>
    <TTGlyph name="Ebreve" xMin="169" yMin="0" xMax="1094" yMax="1818">
      <component glyphName="E" x="0" y="0" flags="0x204"/>
      <component glyphName="breve" x="191" y="323" flags="0x4"/>
    </TTGlyph>
    <TTGlyph name="Ecaron" xMin="169" yMin="0" xMax="1094" yMax="1858">
      <component glyphName="E" x="0" y="0" flags="0x204"/>
      <component glyphName="caron" x="169" y="323" flags="0x4"/>
    </TTGlyph>
    <TTGlyph name="Ecircumflex" xMin="169" yMin="0" xMax="1094" yMax="1858">
      <component glyphName="E" x="0" y="0" flags="0x204"/>
      <component glyphName="circumflex" x="148" y="322" flags="0x4"/>
    </TTGlyph>
    <TTGlyph name="Edieresis" xMin="169" yMin="0" xMax="1094" yMax="1799">
      <component glyphName="E" x="0" y="0" flags="0x204"/>
      <component glyphName="dieresis" x="196" y="322" flags="0x4"/>
    </TTGlyph>
    <TTGlyph name="Edotaccent" xMin="169" yMin="0" xMax="1094" yMax="1796">
      <component glyphName="E" x="0" y="0" flags="0x204"/>
      <component glyphName="dotaccent" x="369" y="322" flags="0x4"/>
    </TTGlyph>
    <TTGlyph name="Egrave" xMin="169" yMin="0" xMax="1094" yMax="1858">
      <component glyphName="E" x="0" y="0" flags="0x204"/>
      <component glyphName="grave" x="251" y="322" flags="0x4"/>
    </TTGlyph>
    <TTGlyph name="Emacron" xMin="169" yMin="0" xMax="1094" yMax="1775">
      <component glyphName="E" x="0" y="0" flags="0x204"/>
      <component glyphName="macron" x="146" y="330" flags="0x4"/>
    </TTGlyph>
    <TTGlyph name="Eng" xMin="162" yMin="-437" xMax="1265" yMax="1456">
      <contour>
        <pt x="1265" y="1456" on="1"/>
        <pt x="1265" y="-83" on="1"/>
        <pt x="1265" y="-251" on="0"/>
        <pt x="1094" y="-437" on="0"/>
        <pt x="938" y="-437" on="1"/>
        <pt x="877" y="-437" on="0"/>
        <pt x="823" y="-419" on="1"/>
        <pt x="837" y="-265" on="1"/>
        <pt x="874" y="-279" on="0"/>
        <pt x="935" y="-279" on="1"/>
        <pt x="1071" y="-279" on="0"/>
        <pt x="1071" y="-71" on="1"/>
        <pt x="1071" y="0" on="1"/>
        <pt x="354" y="1130" on="1"/>
        <pt x="354" y="0" on="1"/>
        <pt x="162" y="0" on="1"/>
        <pt x="162" y="1456" on="1"/>
        <pt x="354" y="1456" on="1"/>
        <pt x="1071" y="328" on="1"/>
        <pt x="1071" y="1456" on="1"/>
      </contour>
    </TTGlyph>
    <TTGlyph name="Eogonek" xMin="169" yMin="-433" xMax="1094" yMax="1456">
      <contour>
        <pt x="992" y="673" on="1"/>
        <pt x="361" y="673" on="1"/>
        <pt x="361" y="157" on="1"/>
        <pt x="1094" y="157" on="1"/>
        <pt x="1094" y="0" on="1"/>
        <pt x="1021" y="0" on="1"/>
        <pt x="963" y="-45" on="1"/>
        <pt x="850" y="-136" on="0"/>
        <pt x="850" y="-222" on="1"/>
        <pt x="850" y="-294" on="0"/>
        <pt x="928" y="-294" on="1"/>
        <pt x="976" y="-294" on="0"/>
        <pt x="1028" y="-268" on="1"/>
        <pt x="1041" y="-389" on="1"/>
        <pt x="971" y="-433" on="0"/>
        <pt x="881" y="-433" on="1"/>
        <pt x="792" y="-433" on="0"/>
        <pt x="689" y="-329" on="0"/>
        <pt x="689" y="-243" on="1"/>
        <pt x="689" y="-105" on="0"/>
        <pt x="844" y="0" on="1"/>
        <pt x="169" y="0" on="1"/>
        <pt x="169" y="1456" on="1"/>
        <pt x="1084" y="1456" on="1"/>
        <pt x="1084" y="1298" on="1"/>
        <pt x="361" y="1298" on="1"/>
        <pt x="361" y="830" on="1"/>
        <pt x="992" y="830" on="1"/>
      </contour>
    </TTGlyph>
    <TTGlyph name="Epsilon" xMin="169" yMin="0" xMax="1094" yMax="1456">
      <component glyphName="E" x="0" y="0" flags="0x204"/>
    </TTGlyph>
    <TTGlyph name="Epsilontonos" xMin="-215" yMin="0" xMax="1094" yMax="1599">
      <component glyphName="E" x="0" y="0" flags="0x204"/>
      <component glyphName="tonos" x="-398" y="0" flags="0x4"/>
    </TTGlyph>
    <TTGlyph name="Eta" xMin="169" yMin="0" xMax="1288" yMax="1456">
      <component glyphName="H" x="0" y="0" flags="0x204"/>
    </TTGlyph>
    <TTGlyph name="Etatonos" xMin="-201" yMin="0" xMax="1288" yMax="1601">
      <component glyphName="H" x="0" y="0" flags="0x204"/>
      <component glyphName="tonos" x="-384" y="2" flags="0x4"/>
    </TTGlyph>
    <TTGlyph name="Eth" xMin="7" yMin="0" xMax="1252" yMax="1456">
      <contour>
        <pt x="199" y="0" on="1"/>
        <pt x="199" y="666" on="1"/>
        <pt x="7" y="666" on="1"/>
        <pt x="7" y="817" on="1"/>
        <pt x="199" y="817" on="1"/>
        <pt x="199" y="1456" on="1"/>
        <pt x="610" y="1456" on="1"/>
        <pt x="800" y="1456" on="0"/>
        <pt x="1092" y="1288" on="0"/>
        <pt x="1251" y="978" on="0"/>
        <pt x="1252" y="777" on="1"/>
        <pt x="1252" y="684" on="1"/>
        <pt x="1252" y="478" on="0"/>
        <pt x="1093" y="168" on="0"/>
        <pt x="798" y="2" on="0"/>
        <pt x="602" y="0" on="1"/>
      </contour>
      <contour>
        <pt x="643" y="666" on="1"/>
        <pt x="391" y="666" on="1"/>
        <pt x="391" y="157" on="1"/>
        <pt x="592" y="157" on="1"/>
        <pt x="814" y="157" on="0"/>
        <pt x="1061" y="431" on="0"/>
        <pt x="1062" y="680" on="1"/>
        <pt x="1062" y="773" on="1"/>
        <pt x="1062" y="1021" on="0"/>
        <pt x="829" y="1296" on="0"/>
        <pt x="615" y="1298" on="1"/>
        <pt x="391" y="1298" on="1"/>
        <pt x="391" y="817" on="1"/>
        <pt x="643" y="817" on="1"/>
      </contour>
    </TTGlyph>
    <TTGlyph name="Euro" xMin="95" yMin="-20" xMax="1052" yMax="1476">
      <contour>
        <pt x="849" y="541" on="1"/>
        <pt x="465" y="541" on="1"/>
        <pt x="469" y="346" on="0"/>
        <pt x="649" y="136" on="0"/>
        <pt x="814" y="136" on="1"/>
        <pt x="930" y="136" on="0"/>
        <pt x="1032" y="170" on="1"/>
        <pt x="1052" y="10" on="1"/>
        <pt x="932" y="-20" on="0"/>
        <pt x="812" y="-20" on="1"/>
        <pt x="564" y="-20" on="0"/>
        <pt x="279" y="273" on="0"/>
        <pt x="273" y="541" on="1"/>
        <pt x="95" y="541" on="1"/>
        <pt x="95" y="665" on="1"/>
        <pt x="273" y="665" on="1"/>
        <pt x="273" y="802" on="1"/>
        <pt x="95" y="802" on="1"/>
        <pt x="95" y="927" on="1"/>
        <pt x="273" y="927" on="1"/>
        <pt x="283" y="1189" on="0"/>
        <pt x="568" y="1476" on="0"/>
        <pt x="811" y="1476" on="1"/>
        <pt x="917" y="1476" on="0"/>
        <pt x="1052" y="1445" on="1"/>
        <pt x="1032" y="1283" on="1"/>
        <pt x="923" y="1318" on="0"/>
        <pt x="813" y="1318" on="1"/>
        <pt x="649" y="1318" on="0"/>
        <pt x="472" y="1115" on="0"/>
        <pt x="466" y="927" on="1"/>
        <pt x="849" y="927" on="1"/>
        <pt x="849" y="802" on="1"/>
        <pt x="465" y="802" on="1"/>
        <pt x="465" y="665" on="1"/>
        <pt x="849" y="665" on="1"/>
      </contour>
    </TTGlyph>
    <TTGlyph name="F" xMin="169" yMin="0" xMax="1071" yMax="1456">
      <contour>
        <pt x="972" y="643" on="1"/>
        <pt x="361" y="643" on="1"/>
        <pt x="361" y="0" on="1"/>
        <pt x="169" y="0" on="1"/>
        <pt x="169" y="1456" on="1"/>
        <pt x="1071" y="1456" on="1"/>
        <pt x="1071" y="1298" on="1"/>
        <pt x="361" y="1298" on="1"/>
        <pt x="361" y="800" on="1"/>
        <pt x="972" y="800" on="1"/>
      </contour>
    </TTGlyph>
    <TTGlyph name="G" xMin="122" yMin="-20" xMax="1244" yMax="1476">
      <contour>
        <pt x="1244" y="191" on="1"/>
        <pt x="1170" y="85" on="0"/>
        <pt x="905" y="-20" on="0"/>
        <pt x="729" y="-20" on="1"/>
        <pt x="551" y="-20" on="0"/>
        <pt x="275" y="147" on="0"/>
        <pt x="124" y="455" on="0"/>
        <pt x="122" y="658" on="1"/>
        <pt x="122" y="785" on="1"/>
        <pt x="122" y="1114" on="0"/>
        <pt x="429" y="1476" on="0"/>
        <pt x="707" y="1476" on="1"/>
        <pt x="935" y="1476" on="0"/>
        <pt x="1213" y="1243" on="0"/>
        <pt x="1244" y="1029" on="1"/>
        <pt x="1052" y="1029" on="1"/>
        <pt x="998" y="1318" on="0"/>
        <pt x="708" y="1318" on="1"/>
        <pt x="515" y="1318" on="0"/>
        <pt x="316" y="1047" on="0"/>
        <pt x="315" y="790" on="1"/>
        <pt x="315" y="671" on="1"/>
        <pt x="315" y="426" on="0"/>
        <pt x="539" y="137" on="0"/>
        <pt x="730" y="137" on="1"/>
        <pt x="838" y="137" on="0"/>
        <pt x="1000" y="185" on="0"/>
        <pt x="1053" y="242" on="1"/>
        <pt x="1053" y="569" on="1"/>
        <pt x="716" y="569" on="1"/>
        <pt x="716" y="725" on="1"/>
        <pt x="1244" y="725" on="1"/>
      </contour>
    </TTGlyph>
    <TTGlyph name="Gamma" xMin="177" yMin="0" xMax="1072" yMax="1456">
      <contour>
        <pt x="1072" y="1298" on="1"/>
        <pt x="370" y="1298" on="1"/>
        <pt x="370" y="0" on="1"/>
        <pt x="177" y="0" on="1"/>
        <pt x="177" y="1456" on="1"/>
        <pt x="1072" y="1456" on="1"/>
      </contour>
    </TTGlyph>
    <TTGlyph name="Gbreve" xMin="122" yMin="-20" xMax="1244" yMax="1839">
      <component glyphName="G" x="0" y="0" flags="0x204"/>
      <component glyphName="breve" x="243" y="344" flags="0x4"/>
    </TTGlyph>
    <TTGlyph name="Gcircumflex" xMin="122" yMin="-20" xMax="1244" yMax="1879">
      <component glyphName="G" x="0" y="0" flags="0x204"/>
      <component glyphName="circumflex" x="200" y="343" flags="0x4"/>
    </TTGlyph>
    <TTGlyph name="Gdotaccent" xMin="122" yMin="-20" xMax="1244" yMax="1817">
      <component glyphName="G" x="0" y="0" flags="0x204"/>
      <component glyphName="dotaccent" x="421" y="343" flags="0x4"/>
    </TTGlyph>
    <TTGlyph name="H" xMin="169" yMin="0" xMax="1288" yMax="1456">
      <contour>
        <pt x="1288" y="0" on="1"/>
        <pt x="1095" y="0" on="1"/>
        <pt x="1095" y="673" on="1"/>
        <pt x="361" y="673" on="1"/>
        <pt x="361" y="0" on="1"/>
        <pt x="169" y="0" on="1"/>
        <pt x="169" y="1456" on="1"/>
        <pt x="361" y="1456" on="1"/>
        <pt x="361" y="830" on="1"/>
        <pt x="1095" y="830" on="1"/>
        <pt x="1095" y="1456" on="1"/>
        <pt x="1288" y="1456" on="1"/>
      </contour>
    </TTGlyph>
    <TTGlyph name="Hbar" xMin="29" yMin="0" xMax="1416" yMax="1456">
      <contour>
        <pt x="1282" y="1166" on="1"/>
        <pt x="1416" y="1166" on="1"/>
        <pt x="1416" y="1024" on="1"/>
        <pt x="1282" y="1024" on="1"/>
        <pt x="1282" y="0" on="1"/>
        <pt x="1089" y="0" on="1"/>
        <pt x="1089" y="673" on="1"/>
        <pt x="356" y="673" on="1"/>
        <pt x="356" y="0" on="1"/>
        <pt x="163" y="0" on="1"/>
        <pt x="163" y="1024" on="1"/>
        <pt x="29" y="1024" on="1"/>
        <pt x="29" y="1166" on="1"/>
        <pt x="163" y="1166" on="1"/>
        <pt x="163" y="1456" on="1"/>
        <pt x="356" y="1456" on="1"/>
        <pt x="356" y="1166" on="1"/>
        <pt x="1089" y="1166" on="1"/>
        <pt x="1089" y="1456" on="1"/>
        <pt x="1282" y="1456" on="1"/>
      </contour>
      <contour>
        <pt x="356" y="830" on="1"/>
        <pt x="1089" y="830" on="1"/>
        <pt x="1089" y="1024" on="1"/>
        <pt x="356" y="1024" on="1"/>
      </contour>
    </TTGlyph>
    <TTGlyph name="Hcircumflex" xMin="169" yMin="0" xMax="1288" yMax="1858">
      <component glyphName="H" x="0" y="0" flags="0x204"/>
      <component glyphName="circumflex" x="241" y="322" flags="0x4"/>
    </TTGlyph>
    <TTGlyph name="I" xMin="183" yMin="0" xMax="375" yMax="1456">
      <contour>
        <pt x="375" y="0" on="1"/>
        <pt x="183" y="0" on="1"/>
        <pt x="183" y="1456" on="1"/>
        <pt x="375" y="1456" on="1"/>
      </contour>
    </TTGlyph>
    <TTGlyph name="IJ" xMin="183" yMin="-20" xMax="1529" yMax="1456">
      <component glyphName="I" x="0" y="0" flags="0x4"/>
      <component glyphName="J" x="557" y="0" flags="0x4"/>
    </TTGlyph>
    <TTGlyph name="Iacute" xMin="176" yMin="0" xMax="593" yMax="1858">
      <component glyphName="I" x="0" y="0" flags="0x204"/>
      <component glyphName="acute" x="53" y="322" flags="0x4"/>
    </TTGlyph>
    <TTGlyph name="Ibreve" xMin="-20" yMin="0" xMax="579" yMax="1818">
      <component glyphName="I" x="0" y="0" flags="0x204"/>
      <component glyphName="breve" x="-149" y="323" flags="0x4"/>
    </TTGlyph>
    <TTGlyph name="Icircumflex" xMin="-23" yMin="0" xMax="582" yMax="1858">
      <component glyphName="I" x="0" y="0" flags="0x204"/>
      <component glyphName="circumflex" x="-192" y="322" flags="0x4"/>
    </TTGlyph>
    <TTGlyph name="Idieresis" xMin="-43" yMin="0" xMax="606" yMax="1799">
      <component glyphName="I" x="0" y="0" flags="0x204"/>
      <component glyphName="dieresis" x="-144" y="322" flags="0x4"/>
    </TTGlyph>
    <TTGlyph name="Idotaccent" xMin="169" yMin="0" xMax="388" yMax="1796">
      <component glyphName="I" x="0" y="0" flags="0x204"/>
      <component glyphName="dotaccent" x="28" y="322" flags="0x4"/>
    </TTGlyph>
    <TTGlyph name="Igrave" xMin="-32" yMin="0" xMax="385" yMax="1858">
      <component glyphName="I" x="0" y="0" flags="0x204"/>
      <component glyphName="grave" x="-89" y="322" flags="0x4"/>
    </TTGlyph>
    <TTGlyph name="Imacron" xMin="-52" yMin="0" xMax="620" yMax="1775">
      <component glyphName="I" x="0" y="0" flags="0x204"/>
      <component glyphName="macron" x="-194" y="330" flags="0x4"/>
    </TTGlyph>
    <TTGlyph name="Iogonek" xMin="24" yMin="-424" xMax="376" yMax="1456">
      <component glyphName="I" x="0" y="0" flags="0x204"/>
      <component glyphName="ogonek" x="-26" y="9" flags="0x4"/>
    </TTGlyph>
    <TTGlyph name="Iota" xMin="183" yMin="0" xMax="375" yMax="1456">
      <component glyphName="I" x="0" y="0" flags="0x204"/>
    </TTGlyph>
    <TTGlyph name="Iotadieresis" xMin="-43" yMin="0" xMax="606" yMax="1799">
      <component glyphName="I" x="0" y="0" flags="0x204"/>
      <component glyphName="dieresis" x="-144" y="322" flags="0x4"/>
    </TTGlyph>
    <TTGlyph name="Iotatonos" xMin="-195" yMin="0" xMax="375" yMax="1600">
      <component glyphName="I" x="0" y="0" flags="0x204"/>
      <component glyphName="tonos" x="-378" y="1" flags="0x4"/>
    </TTGlyph>
    <TTGlyph name="Itilde" xMin="-73" yMin="0" xMax="634" yMax="1838">
      <component glyphName="I" x="0" y="0" flags="0x204"/>
      <component glyphName="tilde" x="-196" y="326" flags="0x4"/>
    </TTGlyph>
    <TTGlyph name="J" xMin="53" yMin="-20" xMax="972" yMax="1456">
      <contour>
        <pt x="779" y="1456" on="1"/>
        <pt x="972" y="1456" on="1"/>
        <pt x="972" y="425" on="1"/>
        <pt x="972" y="216" on="0"/>
        <pt x="721" y="-20" on="0"/>
        <pt x="512" y="-20" on="1"/>
        <pt x="295" y="-20" on="0"/>
        <pt x="53" y="202" on="0"/>
        <pt x="53" y="402" on="1"/>
        <pt x="245" y="402" on="1"/>
        <pt x="245" y="277" on="0"/>
        <pt x="382" y="137" on="0"/>
        <pt x="512" y="137" on="1"/>
        <pt x="631" y="137" on="0"/>
        <pt x="778" y="287" on="0"/>
        <pt x="779" y="422" on="1"/>
      </contour>
    </TTGlyph>
    <TTGlyph name="Jcircumflex" xMin="53" yMin="-20" xMax="1154" yMax="1845">
      <component glyphName="J" x="0" y="0" flags="0x204"/>
      <component glyphName="circumflex" x="380" y="309" flags="0x4"/>
    </TTGlyph>
    <TTGlyph name="K" xMin="169" yMin="0" xMax="1285" yMax="1456">
      <contour>
        <pt x="539" y="677" on="1"/>
        <pt x="361" y="492" on="1"/>
        <pt x="361" y="0" on="1"/>
        <pt x="169" y="0" on="1"/>
        <pt x="169" y="1456" on="1"/>
        <pt x="361" y="1456" on="1"/>
        <pt x="361" y="736" on="1"/>
        <pt x="1008" y="1456" on="1"/>
        <pt x="1240" y="1456" on="1"/>
        <pt x="667" y="813" on="1"/>
        <pt x="1285" y="0" on="1"/>
        <pt x="1055" y="0" on="1"/>
      </contour>
    </TTGlyph>
    <TTGlyph name="Kappa" xMin="169" yMin="0" xMax="1285" yMax="1456">
      <component glyphName="K" x="0" y="0" flags="0x204"/>
    </TTGlyph>
    <TTGlyph name="L" xMin="169" yMin="0" xMax="1052" yMax="1456">
      <contour>
        <pt x="362" y="157" on="1"/>
        <pt x="1052" y="157" on="1"/>
        <pt x="1052" y="0" on="1"/>
        <pt x="169" y="0" on="1"/>
        <pt x="169" y="1456" on="1"/>
        <pt x="362" y="1456" on="1"/>
      </contour>
    </TTGlyph>
    <TTGlyph name="Lacute" xMin="161" yMin="0" xMax="1052" yMax="1841">
      <component glyphName="L" x="0" y="0" flags="0x204"/>
      <component glyphName="acute" x="38" y="305" flags="0x4"/>
    </TTGlyph>
    <TTGlyph name="Lambda" xMin="50" yMin="0" xMax="1283" yMax="1456">
      <contour>
        <pt x="666" y="1161" on="1"/>
        <pt x="256" y="0" on="1"/>
        <pt x="50" y="0" on="1"/>
        <pt x="580" y="1456" on="1"/>
        <pt x="752" y="1456" on="1"/>
        <pt x="1283" y="0" on="1"/>
        <pt x="1076" y="0" on="1"/>
      </contour>
    </TTGlyph>
    <TTGlyph name="Lcaron" xMin="169" yMin="0" xMax="1052" yMax="1457">
      <component glyphName="L" x="0" y="0" flags="0x204"/>
      <component glyphName="uniF6C3" x="469" y="1218" flags="0x4"/>
    </TTGlyph>
    <TTGlyph name="Ldot" xMin="169" yMin="0" xMax="1052" yMax="1456">
      <component glyphName="L" x="0" y="0" flags="0x204"/>
      <component glyphName="dotaccent" x="444" y="-571" flags="0x4"/>
    </TTGlyph>
    <TTGlyph name="Lslash" xMin="34" yMin="0" xMax="1051" yMax="1456">
      <contour>
        <pt x="361" y="843" on="1"/>
        <pt x="624" y="927" on="1"/>
        <pt x="624" y="802" on="1"/>
        <pt x="361" y="718" on="1"/>
        <pt x="361" y="157" on="1"/>
        <pt x="1051" y="157" on="1"/>
        <pt x="1051" y="0" on="1"/>
        <pt x="168" y="0" on="1"/>
        <pt x="168" y="657" on="1"/>
        <pt x="34" y="615" on="1"/>
        <pt x="34" y="740" on="1"/>
        <pt x="168" y="782" on="1"/>
        <pt x="168" y="1456" on="1"/>
        <pt x="361" y="1456" on="1"/>
      </contour>
    </TTGlyph>
    <TTGlyph name="M" xMin="169" yMin="0" xMax="1618" yMax="1456">
      <contour>
        <pt x="417" y="1456" on="1"/>
        <pt x="893" y="268" on="1"/>
        <pt x="1369" y="1456" on="1"/>
        <pt x="1618" y="1456" on="1"/>
        <pt x="1618" y="0" on="1"/>
        <pt x="1426" y="0" on="1"/>
        <pt x="1426" y="567" on="1"/>
        <pt x="1444" y="1179" on="1"/>
        <pt x="966" y="0" on="1"/>
        <pt x="819" y="0" on="1"/>
        <pt x="342" y="1176" on="1"/>
        <pt x="361" y="567" on="1"/>
        <pt x="361" y="0" on="1"/>
        <pt x="169" y="0" on="1"/>
        <pt x="169" y="1456" on="1"/>
      </contour>
    </TTGlyph>
    <TTGlyph name="Mu" xMin="169" yMin="0" xMax="1618" yMax="1456">
      <component glyphName="M" x="0" y="0" flags="0x204"/>
    </TTGlyph>
    <TTGlyph name="N" xMin="169" yMin="0" xMax="1288" yMax="1456">
      <contour>
        <pt x="1288" y="0" on="1"/>
        <pt x="1095" y="0" on="1"/>
        <pt x="362" y="1122" on="1"/>
        <pt x="362" y="0" on="1"/>
        <pt x="169" y="0" on="1"/>
        <pt x="169" y="1456" on="1"/>
        <pt x="362" y="1456" on="1"/>
        <pt x="1097" y="329" on="1"/>
        <pt x="1097" y="1456" on="1"/>
        <pt x="1288" y="1456" on="1"/>
      </contour>
    </TTGlyph>
    <TTGlyph name="Nacute" xMin="169" yMin="0" xMax="1288" yMax="1846">
      <component glyphName="N" x="0" y="0" flags="0x204"/>
      <component glyphName="acute" x="501" y="310" flags="0x4"/>
    </TTGlyph>
    <TTGlyph name="Ncaron" xMin="169" yMin="0" xMax="1288" yMax="1846">
      <component glyphName="N" x="0" y="0" flags="0x204"/>
      <component glyphName="caron" x="276" y="311" flags="0x4"/>
    </TTGlyph>
    <TTGlyph name="Ntilde" xMin="169" yMin="0" xMax="1288" yMax="1826">
      <component glyphName="N" x="0" y="0" flags="0x204"/>
      <component glyphName="tilde" x="251" y="314" flags="0x4"/>
    </TTGlyph>
    <TTGlyph name="Nu" xMin="169" yMin="0" xMax="1288" yMax="1456">
      <component glyphName="N" x="0" y="0" flags="0x204"/>
    </TTGlyph>
    <TTGlyph name="O" xMin="118" yMin="-20" xMax="1289" yMax="1476">
      <contour>
        <pt x="1289" y="681" on="1"/>
        <pt x="1289" y="467" on="0"/>
        <pt x="1145" y="148" on="0"/>
        <pt x="881" y="-20" on="0"/>
        <pt x="705" y="-20" on="1"/>
        <pt x="533" y="-20" on="0"/>
        <pt x="267" y="149" on="0"/>
        <pt x="120" y="462" on="0"/>
        <pt x="118" y="668" on="1"/>
        <pt x="118" y="773" on="1"/>
        <pt x="118" y="983" on="0"/>
        <pt x="264" y="1305" on="0"/>
        <pt x="531" y="1476" on="0"/>
        <pt x="703" y="1476" on="1"/>
        <pt x="878" y="1476" on="0"/>
        <pt x="1145" y="1307" on="0"/>
        <pt x="1289" y="986" on="0"/>
        <pt x="1289" y="773" on="1"/>
      </contour>
      <contour>
        <pt x="1098" y="775" on="1"/>
        <pt x="1098" y="1034" on="0"/>
        <pt x="890" y="1311" on="0"/>
        <pt x="703" y="1311" on="1"/>
        <pt x="521" y="1311" on="0"/>
        <pt x="312" y="1034" on="0"/>
        <pt x="309" y="788" on="1"/>
        <pt x="309" y="681" on="1"/>
        <pt x="309" y="430" on="0"/>
        <pt x="520" y="143" on="0"/>
        <pt x="705" y="143" on="1"/>
        <pt x="891" y="143" on="0"/>
        <pt x="1095" y="414" on="0"/>
        <pt x="1098" y="667" on="1"/>
      </contour>
    </TTGlyph>
    <TTGlyph name="OE" xMin="104" yMin="-21" xMax="1801" yMax="1476">
      <contour>
        <pt x="1801" y="0" on="1"/>
        <pt x="953" y="0" on="1"/>
        <pt x="775" y="-21" on="0"/>
        <pt x="661" y="-21" on="1"/>
        <pt x="499" y="-21" on="0"/>
        <pt x="245" y="129" on="0"/>
        <pt x="105" y="400" on="0"/>
        <pt x="104" y="571" on="1"/>
        <pt x="104" y="880" on="1"/>
        <pt x="104" y="1052" on="0"/>
        <pt x="243" y="1325" on="0"/>
        <pt x="497" y="1476" on="0"/>
        <pt x="659" y="1476" on="1"/>
        <pt x="783" y="1476" on="0"/>
        <pt x="953" y="1456" on="1"/>
        <pt x="1791" y="1456" on="1"/>
        <pt x="1791" y="1298" on="1"/>
        <pt x="1068" y="1298" on="1"/>
        <pt x="1068" y="830" on="1"/>
        <pt x="1699" y="830" on="1"/>
        <pt x="1699" y="673" on="1"/>
        <pt x="1068" y="673" on="1"/>
        <pt x="1068" y="157" on="1"/>
        <pt x="1801" y="157" on="1"/>
      </contour>
      <contour>
        <pt x="661" y="130" on="1"/>
        <pt x="774" y="130" on="0"/>
        <pt x="876" y="144" on="1"/>
        <pt x="876" y="1310" on="1"/>
        <pt x="767" y="1325" on="0"/>
        <pt x="659" y="1325" on="1"/>
        <pt x="486" y="1325" on="0"/>
        <pt x="292" y="1096" on="0"/>
        <pt x="290" y="889" on="1"/>
        <pt x="290" y="576" on="1"/>
        <pt x="290" y="365" on="0"/>
        <pt x="485" y="130" on="0"/>
      </contour>
    </TTGlyph>
    <TTGlyph name="Oacute" xMin="118" yMin="-20" xMax="1289" yMax="1848">
      <component glyphName="O" x="0" y="0" flags="0x204"/>
      <component glyphName="acute" x="481" y="312" flags="0x4"/>
    </TTGlyph>
    <TTGlyph name="Obreve" xMin="118" yMin="-20" xMax="1289" yMax="1808">
      <component glyphName="O" x="0" y="0" flags="0x204"/>
      <component glyphName="breve" x="278" y="313" flags="0x4"/>
    </TTGlyph>
    <TTGlyph name="Ocircumflex" xMin="118" yMin="-20" xMax="1289" yMax="1848">
      <component glyphName="O" x="0" y="0" flags="0x204"/>
      <component glyphName="circumflex" x="235" y="312" flags="0x4"/>
    </TTGlyph>
    <TTGlyph name="Odieresis" xMin="118" yMin="-20" xMax="1289" yMax="1789">
      <component glyphName="O" x="0" y="0" flags="0x204"/>
      <component glyphName="dieresis" x="283" y="312" flags="0x4"/>
    </TTGlyph>
    <TTGlyph name="Ograve" xMin="118" yMin="-20" xMax="1289" yMax="1848">
      <component glyphName="O" x="0" y="0" flags="0x204"/>
      <component glyphName="grave" x="338" y="312" flags="0x4"/>
    </TTGlyph>
    <TTGlyph name="Ohorn" xMin="101" yMin="-20" xMax="1437" yMax="1591">
      <contour>
        <pt x="1272" y="681" on="1"/>
        <pt x="1272" y="467" on="0"/>
        <pt x="1128" y="148" on="0"/>
        <pt x="864" y="-20" on="0"/>
        <pt x="688" y="-20" on="1"/>
        <pt x="517" y="-20" on="0"/>
        <pt x="251" y="148" on="0"/>
        <pt x="102" y="466" on="0"/>
        <pt x="101" y="673" on="1"/>
        <pt x="101" y="773" on="1"/>
        <pt x="101" y="983" on="0"/>
        <pt x="247" y="1304" on="0"/>
        <pt x="514" y="1476" on="0"/>
        <pt x="686" y="1476" on="1"/>
        <pt x="926" y="1476" on="0"/>
        <pt x="1081" y="1321" on="1"/>
        <pt x="1177" y="1328" on="0"/>
        <pt x="1270" y="1459" on="0"/>
        <pt x="1270" y="1591" on="1"/>
        <pt x="1437" y="1591" on="1"/>
        <pt x="1437" y="1258" on="0"/>
        <pt x="1174" y="1197" on="1"/>
        <pt x="1271" y="1025" on="0"/>
        <pt x="1272" y="779" on="1"/>
      </contour>
      <contour>
        <pt x="1082" y="775" on="1"/>
        <pt x="1082" y="1033" on="0"/>
        <pt x="875" y="1311" on="0"/>
        <pt x="686" y="1311" on="1"/>
        <pt x="504" y="1311" on="0"/>
        <pt x="295" y="1034" on="0"/>
        <pt x="292" y="788" on="1"/>
        <pt x="292" y="681" on="1"/>
        <pt x="292" y="430" on="0"/>
        <pt x="503" y="143" on="0"/>
        <pt x="688" y="143" on="1"/>
        <pt x="879" y="143" on="0"/>
        <pt x="1082" y="425" on="0"/>
        <pt x="1082" y="682" on="1"/>
      </contour>
    </TTGlyph>
    <TTGlyph name="Ohungarumlaut" xMin="118" yMin="-20" xMax="1289" yMax="1847">
      <component glyphName="O" x="0" y="0" flags="0x204"/>
      <component glyphName="hungarumlaut" x="363" y="312" flags="0x4"/>
    </TTGlyph>
    <TTGlyph name="Omacron" xMin="118" yMin="-20" xMax="1289" yMax="1765">
      <component glyphName="O" x="0" y="0" flags="0x204"/>
      <component glyphName="macron" x="233" y="320" flags="0x4"/>
    </TTGlyph>
    <TTGlyph name="Omegatonos" xMin="-23" yMin="0" xMax="1247" yMax="1599">
      <component glyphName="uni03A9" x="20" y="0" flags="0x4"/>
      <component glyphName="tonos" x="-206" y="0" flags="0x4"/>
    </TTGlyph>
    <TTGlyph name="Omicron" xMin="118" yMin="-20" xMax="1289" yMax="1476">
      <component glyphName="O" x="0" y="0" flags="0x204"/>
    </TTGlyph>
    <TTGlyph name="Omicrontonos" xMin="-26" yMin="-20" xMax="1309" yMax="1599">
      <component glyphName="O" x="20" y="0" flags="0x4"/>
      <component glyphName="tonos" x="-209" y="0" flags="0x4"/>
    </TTGlyph>
    <TTGlyph name="Oslash" xMin="118" yMin="-93" xMax="1309" yMax="1516">
      <contour>
        <pt x="1289" y="681" on="1"/>
        <pt x="1289" y="467" on="0"/>
        <pt x="1145" y="148" on="0"/>
        <pt x="881" y="-20" on="0"/>
        <pt x="705" y="-20" on="1"/>
        <pt x="534" y="-20" on="0"/>
        <pt x="403" y="62" on="1"/>
        <pt x="306" y="-93" on="1"/>
        <pt x="164" y="-93" on="1"/>
        <pt x="308" y="138" on="1"/>
        <pt x="118" y="330" on="0"/>
        <pt x="118" y="690" on="1"/>
        <pt x="118" y="773" on="1"/>
        <pt x="118" y="983" on="0"/>
        <pt x="264" y="1305" on="0"/>
        <pt x="531" y="1476" on="0"/>
        <pt x="703" y="1476" on="1"/>
        <pt x="917" y="1476" on="0"/>
        <pt x="1065" y="1351" on="1"/>
        <pt x="1168" y="1516" on="1"/>
        <pt x="1309" y="1516" on="1"/>
        <pt x="1150" y="1261" on="1"/>
        <pt x="1287" y="1074" on="0"/>
        <pt x="1289" y="780" on="1"/>
      </contour>
      <contour>
        <pt x="309" y="681" on="1"/>
        <pt x="309" y="437" on="0"/>
        <pt x="407" y="296" on="1"/>
        <pt x="971" y="1200" on="1"/>
        <pt x="869" y="1311" on="0"/>
        <pt x="703" y="1311" on="1"/>
        <pt x="521" y="1311" on="0"/>
        <pt x="312" y="1034" on="0"/>
        <pt x="309" y="788" on="1"/>
      </contour>
      <contour>
        <pt x="1098" y="775" on="1"/>
        <pt x="1098" y="957" on="0"/>
        <pt x="1042" y="1088" on="1"/>
        <pt x="493" y="207" on="1"/>
        <pt x="584" y="143" on="0"/>
        <pt x="705" y="143" on="1"/>
        <pt x="891" y="143" on="0"/>
        <pt x="1095" y="414" on="0"/>
        <pt x="1098" y="667" on="1"/>
      </contour>
    </TTGlyph>
    <TTGlyph name="Oslashacute" xMin="118" yMin="-93" xMax="1309" yMax="1920">
      <component glyphName="Oslash" x="0" y="0" flags="0x204"/>
      <component glyphName="acute" x="489" y="384" flags="0x4"/>
    </TTGlyph>
    <TTGlyph name="Otilde" xMin="118" yMin="-20" xMax="1289" yMax="1828">
      <component glyphName="O" x="0" y="0" flags="0x204"/>
      <component glyphName="tilde" x="231" y="316" flags="0x4"/>
    </TTGlyph>
    <TTGlyph name="P" xMin="169" yMin="0" xMax="1216" yMax="1456">
      <contour>
        <pt x="361" y="570" on="1"/>
        <pt x="361" y="0" on="1"/>
        <pt x="169" y="0" on="1"/>
        <pt x="169" y="1456" on="1"/>
        <pt x="706" y="1456" on="1"/>
        <pt x="945" y="1456" on="0"/>
        <pt x="1216" y="1212" on="0"/>
        <pt x="1216" y="1011" on="1"/>
        <pt x="1216" y="799" on="0"/>
        <pt x="951" y="570" on="0"/>
        <pt x="704" y="570" on="1"/>
      </contour>
      <contour>
        <pt x="361" y="727" on="1"/>
        <pt x="706" y="727" on="1"/>
        <pt x="860" y="727" on="0"/>
        <pt x="1024" y="872" on="0"/>
        <pt x="1024" y="1009" on="1"/>
        <pt x="1024" y="1139" on="0"/>
        <pt x="860" y="1295" on="0"/>
        <pt x="717" y="1298" on="1"/>
        <pt x="361" y="1298" on="1"/>
      </contour>
    </TTGlyph>
    <TTGlyph name="Phi" xMin="77" yMin="0" xMax="1396" yMax="1456">
      <contour>
        <pt x="834" y="1271" on="1"/>
        <pt x="995" y="1268" on="0"/>
        <pt x="1252" y="1130" on="0"/>
        <pt x="1396" y="880" on="0"/>
        <pt x="1396" y="724" on="1"/>
        <pt x="1396" y="566" on="0"/>
        <pt x="1253" y="316" on="0"/>
        <pt x="998" y="179" on="0"/>
        <pt x="834" y="175" on="1"/>
        <pt x="834" y="0" on="1"/>
        <pt x="640" y="0" on="1"/>
        <pt x="640" y="175" on="1"/>
        <pt x="389" y="179" on="0"/>
        <pt x="77" y="482" on="0"/>
        <pt x="77" y="722" on="1"/>
        <pt x="77" y="870" on="0"/>
        <pt x="202" y="1108" on="0"/>
        <pt x="318" y="1181" on="1"/>
        <pt x="457" y="1268" on="0"/>
        <pt x="640" y="1271" on="1"/>
        <pt x="640" y="1456" on="1"/>
        <pt x="834" y="1456" on="1"/>
      </contour>
      <contour>
        <pt x="268" y="722" on="1"/>
        <pt x="268" y="538" on="0"/>
        <pt x="462" y="338" on="0"/>
        <pt x="640" y="334" on="1"/>
        <pt x="640" y="1111" on="1"/>
        <pt x="460" y="1107" on="0"/>
        <pt x="268" y="905" on="0"/>
      </contour>
      <contour>
        <pt x="1205" y="724" on="1"/>
        <pt x="1205" y="905" on="0"/>
        <pt x="1012" y="1107" on="0"/>
        <pt x="834" y="1111" on="1"/>
        <pt x="834" y="334" on="1"/>
        <pt x="1014" y="338" on="0"/>
        <pt x="1205" y="541" on="0"/>
      </contour>
    </TTGlyph>
    <TTGlyph name="Pi" xMin="178" yMin="0" xMax="1281" yMax="1456">
      <contour>
        <pt x="1281" y="0" on="1"/>
        <pt x="1088" y="0" on="1"/>
        <pt x="1088" y="1298" on="1"/>
        <pt x="370" y="1298" on="1"/>
        <pt x="370" y="0" on="1"/>
        <pt x="178" y="0" on="1"/>
        <pt x="178" y="1456" on="1"/>
        <pt x="1281" y="1456" on="1"/>
      </contour>
    </TTGlyph>
    <TTGlyph name="Psi" xMin="90" yMin="0" xMax="1313" yMax="1456">
      <contour>
        <pt x="790" y="523" on="1"/>
        <pt x="946" y="546" on="0"/>
        <pt x="1120" y="761" on="0"/>
        <pt x="1120" y="931" on="1"/>
        <pt x="1120" y="1456" on="1"/>
        <pt x="1313" y="1456" on="1"/>
        <pt x="1313" y="928" on="1"/>
        <pt x="1313" y="769" on="0"/>
        <pt x="1186" y="524" on="0"/>
        <pt x="949" y="377" on="0"/>
        <pt x="790" y="362" on="1"/>
        <pt x="790" y="0" on="1"/>
        <pt x="597" y="0" on="1"/>
        <pt x="597" y="362" on="1"/>
        <pt x="366" y="385" on="0"/>
        <pt x="93" y="683" on="0"/>
        <pt x="90" y="920" on="1"/>
        <pt x="90" y="1456" on="1"/>
        <pt x="282" y="1456" on="1"/>
        <pt x="282" y="927" on="1"/>
        <pt x="283" y="764" on="0"/>
        <pt x="448" y="549" on="0"/>
        <pt x="597" y="524" on="1"/>
        <pt x="597" y="1456" on="1"/>
        <pt x="790" y="1456" on="1"/>
      </contour>
    </TTGlyph>
    <TTGlyph name="Q" xMin="109" yMin="-246" xMax="1286" yMax="1476">
      <contour>
        <pt x="1281" y="681" on="1"/>
        <pt x="1281" y="470" on="0"/>
        <pt x="1147" y="165" on="0"/>
        <pt x="1026" y="79" on="1"/>
        <pt x="1286" y="-125" on="1"/>
        <pt x="1155" y="-246" on="1"/>
        <pt x="848" y="-2" on="1"/>
        <pt x="776" y="-20" on="0"/>
        <pt x="696" y="-20" on="1"/>
        <pt x="524" y="-20" on="0"/>
        <pt x="258" y="149" on="0"/>
        <pt x="111" y="462" on="0"/>
        <pt x="109" y="668" on="1"/>
        <pt x="109" y="773" on="1"/>
        <pt x="109" y="983" on="0"/>
        <pt x="255" y="1305" on="0"/>
        <pt x="522" y="1476" on="0"/>
        <pt x="694" y="1476" on="1"/>
        <pt x="870" y="1476" on="0"/>
        <pt x="1137" y="1306" on="0"/>
        <pt x="1281" y="987" on="0"/>
        <pt x="1281" y="774" on="1"/>
      </contour>
      <contour>
        <pt x="1089" y="775" on="1"/>
        <pt x="1089" y="1032" on="0"/>
        <pt x="884" y="1311" on="0"/>
        <pt x="694" y="1311" on="1"/>
        <pt x="513" y="1311" on="0"/>
        <pt x="304" y="1034" on="0"/>
        <pt x="301" y="788" on="1"/>
        <pt x="301" y="681" on="1"/>
        <pt x="301" y="431" on="0"/>
        <pt x="510" y="143" on="0"/>
        <pt x="882" y="143" on="0"/>
        <pt x="1086" y="414" on="0"/>
        <pt x="1089" y="667" on="1"/>
      </contour>
    </TTGlyph>
    <TTGlyph name="R" xMin="168" yMin="0" xMax="1225" yMax="1456">
      <contour>
        <pt x="703" y="589" on="1"/>
        <pt x="361" y="589" on="1"/>
        <pt x="361" y="0" on="1"/>
        <pt x="168" y="0" on="1"/>
        <pt x="168" y="1456" on="1"/>
        <pt x="650" y="1456" on="1"/>
        <pt x="896" y="1456" on="0"/>
        <pt x="1161" y="1232" on="0"/>
        <pt x="1161" y="1018" on="1"/>
        <pt x="1161" y="882" on="0"/>
        <pt x="1014" y="680" on="0"/>
        <pt x="883" y="630" on="1"/>
        <pt x="1225" y="12" on="1"/>
        <pt x="1225" y="0" on="1"/>
        <pt x="1019" y="0" on="1"/>
      </contour>
      <contour>
        <pt x="361" y="746" on="1"/>
        <pt x="656" y="746" on="1"/>
        <pt x="799" y="746" on="0"/>
        <pt x="968" y="894" on="0"/>
        <pt x="968" y="1018" on="1"/>
        <pt x="968" y="1153" on="0"/>
        <pt x="807" y="1297" on="0"/>
        <pt x="655" y="1298" on="1"/>
        <pt x="361" y="1298" on="1"/>
      </contour>
    </TTGlyph>
    <TTGlyph name="Racute" xMin="168" yMin="0" xMax="1225" yMax="1846">
      <component glyphName="R" x="0" y="0" flags="0x204"/>
      <component glyphName="acute" x="384" y="310" flags="0x4"/>
    </TTGlyph>
    <TTGlyph name="Rcaron" xMin="168" yMin="0" xMax="1225" yMax="1846">
      <component glyphName="R" x="0" y="0" flags="0x204"/>
      <component glyphName="caron" x="159" y="311" flags="0x4"/>
    </TTGlyph>
    <TTGlyph name="Rho" xMin="169" yMin="0" xMax="1216" yMax="1456">
      <component glyphName="P" x="0" y="0" flags="0x204"/>
    </TTGlyph>
    <TTGlyph name="S" xMin="80" yMin="-20" xMax="1138" yMax="1476">
      <contour>
        <pt x="598" y="649" on="1"/>
        <pt x="351" y="720" on="0"/>
        <pt x="126" y="927" on="0"/>
        <pt x="126" y="1079" on="1"/>
        <pt x="126" y="1251" on="0"/>
        <pt x="401" y="1476" on="0"/>
        <pt x="621" y="1476" on="1"/>
        <pt x="771" y="1476" on="0"/>
        <pt x="1006" y="1360" on="0"/>
        <pt x="1135" y="1156" on="0"/>
        <pt x="1135" y="1035" on="1"/>
        <pt x="942" y="1035" on="1"/>
        <pt x="942" y="1167" on="0"/>
        <pt x="774" y="1318" on="0"/>
        <pt x="621" y="1318" on="1"/>
        <pt x="479" y="1318" on="0"/>
        <pt x="320" y="1193" on="0"/>
        <pt x="320" y="1082" on="1"/>
        <pt x="320" y="993" on="0"/>
        <pt x="471" y="870" on="0"/>
        <pt x="834" y="768" on="0"/>
        <pt x="1039" y="645" on="0"/>
        <pt x="1138" y="481" on="0"/>
        <pt x="1138" y="370" on="1"/>
        <pt x="1138" y="193" on="0"/>
        <pt x="862" y="-20" on="0"/>
        <pt x="631" y="-20" on="1"/>
        <pt x="481" y="-20" on="0"/>
        <pt x="221" y="95" on="0"/>
        <pt x="80" y="295" on="0"/>
        <pt x="80" y="422" on="1"/>
        <pt x="273" y="422" on="1"/>
        <pt x="273" y="290" on="0"/>
        <pt x="468" y="137" on="0"/>
        <pt x="631" y="137" on="1"/>
        <pt x="783" y="137" on="0"/>
        <pt x="945" y="261" on="0"/>
        <pt x="945" y="475" on="0"/>
        <pt x="795" y="592" on="0"/>
      </contour>
    </TTGlyph>
    <TTGlyph name="Sacute" xMin="80" yMin="-20" xMax="1138" yMax="1848">
      <component glyphName="S" x="0" y="0" flags="0x204"/>
      <component glyphName="acute" x="397" y="312" flags="0x4"/>
    </TTGlyph>
    <TTGlyph name="Scaron" xMin="80" yMin="-20" xMax="1138" yMax="1848">
      <component glyphName="S" x="0" y="0" flags="0x204"/>
      <component glyphName="caron" x="172" y="313" flags="0x4"/>
    </TTGlyph>
    <TTGlyph name="Scedilla" xMin="80" yMin="-435" xMax="1138" yMax="1476">
      <component glyphName="S" x="0" y="0" flags="0x204"/>
      <component glyphName="cedilla" x="415" y="0" flags="0x4"/>
    </TTGlyph>
    <TTGlyph name="Scircumflex" xMin="80" yMin="-20" xMax="1138" yMax="1848">
      <component glyphName="S" x="0" y="0" flags="0x204"/>
      <component glyphName="circumflex" x="151" y="312" flags="0x4"/>
    </TTGlyph>
    <TTGlyph name="Sigma" xMin="69" yMin="0" xMax="1092" yMax="1456">
      <contour>
        <pt x="754" y="718" on="1"/>
        <pt x="309" y="157" on="1"/>
        <pt x="1092" y="157" on="1"/>
        <pt x="1092" y="0" on="1"/>
        <pt x="69" y="0" on="1"/>
        <pt x="69" y="143" on="1"/>
        <pt x="550" y="729" on="1"/>
        <pt x="69" y="1312" on="1"/>
        <pt x="69" y="1456" on="1"/>
        <pt x="1043" y="1456" on="1"/>
        <pt x="1043" y="1298" on="1"/>
        <pt x="311" y="1298" on="1"/>
        <pt x="754" y="742" on="1"/>
      </contour>
    </TTGlyph>
    <TTGlyph name="T" xMin="49" yMin="0" xMax="1175" yMax="1456">
      <contour>
        <pt x="1175" y="1298" on="1"/>
        <pt x="707" y="1298" on="1"/>
        <pt x="707" y="0" on="1"/>
        <pt x="516" y="0" on="1"/>
        <pt x="516" y="1298" on="1"/>
        <pt x="49" y="1298" on="1"/>
        <pt x="49" y="1456" on="1"/>
        <pt x="1175" y="1456" on="1"/>
      </contour>
    </TTGlyph>
    <TTGlyph name="Tau" xMin="49" yMin="0" xMax="1175" yMax="1456">
      <component glyphName="T" x="0" y="0" flags="0x204"/>
    </TTGlyph>
    <TTGlyph name="Tbar" xMin="49" yMin="0" xMax="1175" yMax="1456">
      <contour>
        <pt x="938" y="823" on="1"/>
        <pt x="707" y="823" on="1"/>
        <pt x="707" y="0" on="1"/>
        <pt x="516" y="0" on="1"/>
        <pt x="516" y="823" on="1"/>
        <pt x="302" y="823" on="1"/>
        <pt x="302" y="974" on="1"/>
        <pt x="516" y="974" on="1"/>
        <pt x="516" y="1298" on="1"/>
        <pt x="49" y="1298" on="1"/>
        <pt x="49" y="1456" on="1"/>
        <pt x="1175" y="1456" on="1"/>
        <pt x="1175" y="1298" on="1"/>
        <pt x="707" y="1298" on="1"/>
        <pt x="707" y="974" on="1"/>
        <pt x="938" y="974" on="1"/>
      </contour>
    </TTGlyph>
    <TTGlyph name="Tcaron" xMin="49" yMin="0" xMax="1175" yMax="1846">
      <component glyphName="T" x="0" y="0" flags="0x204"/>
      <component glyphName="caron" x="161" y="311" flags="0x4"/>
    </TTGlyph>
    <TTGlyph name="Theta" xMin="103" yMin="-20" xMax="1274" yMax="1476">
      <contour>
        <pt x="960" y="659" on="1"/>
        <pt x="443" y="659" on="1"/>
        <pt x="443" y="811" on="1"/>
        <pt x="960" y="811" on="1"/>
      </contour>
      <contour>
        <pt x="1274" y="681" on="1"/>
        <pt x="1274" y="468" on="0"/>
        <pt x="1131" y="150" on="0"/>
        <pt x="867" y="-20" on="0"/>
        <pt x="690" y="-20" on="1"/>
        <pt x="518" y="-20" on="0"/>
        <pt x="252" y="149" on="0"/>
        <pt x="105" y="462" on="0"/>
        <pt x="103" y="668" on="1"/>
        <pt x="103" y="773" on="1"/>
        <pt x="103" y="983" on="0"/>
        <pt x="249" y="1305" on="0"/>
        <pt x="516" y="1476" on="0"/>
        <pt x="688" y="1476" on="1"/>
        <pt x="863" y="1476" on="0"/>
        <pt x="1127" y="1308" on="0"/>
        <pt x="1272" y="993" on="0"/>
        <pt x="1274" y="786" on="1"/>
      </contour>
      <contour>
        <pt x="1083" y="775" on="1"/>
        <pt x="1083" y="1034" on="0"/>
        <pt x="875" y="1311" on="0"/>
        <pt x="688" y="1311" on="1"/>
        <pt x="506" y="1311" on="0"/>
        <pt x="297" y="1034" on="0"/>
        <pt x="294" y="788" on="1"/>
        <pt x="294" y="681" on="1"/>
        <pt x="294" y="431" on="0"/>
        <pt x="503" y="143" on="0"/>
        <pt x="690" y="143" on="1"/>
        <pt x="876" y="143" on="0"/>
        <pt x="1080" y="414" on="0"/>
        <pt x="1083" y="667" on="1"/>
      </contour>
    </TTGlyph>
    <TTGlyph name="Thorn" xMin="166" yMin="0" xMax="1117" yMax="1456">
      <contour>
        <pt x="352" y="1456" on="1"/>
        <pt x="352" y="1163" on="1"/>
        <pt x="631" y="1163" on="1"/>
        <pt x="778" y="1163" on="0"/>
        <pt x="998" y="1058" on="0"/>
        <pt x="1117" y="864" on="0"/>
        <pt x="1117" y="738" on="1"/>
        <pt x="1117" y="544" on="0"/>
        <pt x="853" y="313" on="0"/>
        <pt x="626" y="313" on="1"/>
        <pt x="352" y="313" on="1"/>
        <pt x="352" y="0" on="1"/>
        <pt x="166" y="0" on="1"/>
        <pt x="166" y="1456" on="1"/>
      </contour>
      <contour>
        <pt x="352" y="1011" on="1"/>
        <pt x="352" y="465" on="1"/>
        <pt x="629" y="465" on="1"/>
        <pt x="771" y="465" on="0"/>
        <pt x="931" y="616" on="0"/>
        <pt x="931" y="736" on="1"/>
        <pt x="931" y="859" on="0"/>
        <pt x="771" y="1010" on="0"/>
        <pt x="635" y="1011" on="1"/>
      </contour>
    </TTGlyph>
    <TTGlyph name="U" xMin="140" yMin="-20" xMax="1194" yMax="1456">
      <contour>
        <pt x="1194" y="1456" on="1"/>
        <pt x="1194" y="466" on="1"/>
        <pt x="1193" y="260" on="0"/>
        <pt x="936" y="-2" on="0"/>
        <pt x="716" y="-18" on="1"/>
        <pt x="665" y="-20" on="1"/>
        <pt x="426" y="-20" on="0"/>
        <pt x="142" y="238" on="0"/>
        <pt x="140" y="464" on="1"/>
        <pt x="140" y="1456" on="1"/>
        <pt x="330" y="1456" on="1"/>
        <pt x="330" y="470" on="1"/>
        <pt x="330" y="312" on="0"/>
        <pt x="504" y="137" on="0"/>
        <pt x="665" y="137" on="1"/>
        <pt x="828" y="137" on="0"/>
        <pt x="1001" y="311" on="0"/>
        <pt x="1001" y="469" on="1"/>
        <pt x="1001" y="1456" on="1"/>
      </contour>
    </TTGlyph>
    <TTGlyph name="Uacute" xMin="140" yMin="-20" xMax="1194" yMax="1846">
      <component glyphName="U" x="0" y="0" flags="0x204"/>
      <component glyphName="acute" x="442" y="310" flags="0x4"/>
    </TTGlyph>
    <TTGlyph name="Ubreve" xMin="140" yMin="-20" xMax="1194" yMax="1806">
      <component glyphName="U" x="0" y="0" flags="0x204"/>
      <component glyphName="breve" x="239" y="311" flags="0x4"/>
    </TTGlyph>
    <TTGlyph name="Ucircumflex" xMin="140" yMin="-20" xMax="1194" yMax="1846">
      <component glyphName="U" x="0" y="0" flags="0x204"/>
      <component glyphName="circumflex" x="196" y="310" flags="0x4"/>
    </TTGlyph>
    <TTGlyph name="Udieresis" xMin="140" yMin="-20" xMax="1194" yMax="1787">
      <component glyphName="U" x="0" y="0" flags="0x204"/>
      <component glyphName="dieresis" x="244" y="310" flags="0x4"/>
    </TTGlyph>
    <TTGlyph name="Ugrave" xMin="140" yMin="-20" xMax="1194" yMax="1846">
      <component glyphName="U" x="0" y="0" flags="0x204"/>
      <component glyphName="grave" x="299" y="310" flags="0x4"/>
    </TTGlyph>
    <TTGlyph name="Uhorn" xMin="140" yMin="-20" xMax="1565" yMax="1538">
      <contour>
        <pt x="1194" y="1456" on="1"/>
        <pt x="1194" y="1243" on="1"/>
        <pt x="1309" y="1254" on="0"/>
        <pt x="1406" y="1391" on="0"/>
        <pt x="1406" y="1538" on="1"/>
        <pt x="1565" y="1538" on="1"/>
        <pt x="1565" y="1328" on="0"/>
        <pt x="1388" y="1119" on="0"/>
        <pt x="1194" y="1107" on="1"/>
        <pt x="1194" y="465" on="1"/>
        <pt x="1193" y="266" on="0"/>
        <pt x="949" y="6" on="0"/>
        <pt x="738" y="-16" on="1"/>
        <pt x="665" y="-20" on="1"/>
        <pt x="426" y="-20" on="0"/>
        <pt x="142" y="238" on="0"/>
        <pt x="140" y="464" on="1"/>
        <pt x="140" y="1456" on="1"/>
        <pt x="330" y="1456" on="1"/>
        <pt x="330" y="470" on="1"/>
        <pt x="330" y="312" on="0"/>
        <pt x="504" y="137" on="0"/>
        <pt x="665" y="137" on="1"/>
        <pt x="828" y="137" on="0"/>
        <pt x="1001" y="311" on="0"/>
        <pt x="1001" y="469" on="1"/>
        <pt x="1001" y="1456" on="1"/>
      </contour>
    </TTGlyph>
    <TTGlyph name="Uhungarumlaut" xMin="140" yMin="-20" xMax="1194" yMax="1845">
      <component glyphName="U" x="0" y="0" flags="0x204"/>
      <component glyphName="hungarumlaut" x="324" y="310" flags="0x4"/>
    </TTGlyph>
    <TTGlyph name="Umacron" xMin="140" yMin="-20" xMax="1194" yMax="1763">
      <component glyphName="U" x="0" y="0" flags="0x204"/>
      <component glyphName="macron" x="194" y="318" flags="0x4"/>
    </TTGlyph>
    <TTGlyph name="Uogonek" xMin="140" yMin="-389" xMax="1194" yMax="1456">
      <contour>
        <pt x="1194" y="1456" on="1"/>
        <pt x="1194" y="465" on="1"/>
        <pt x="1193" y="317" on="0"/>
        <pt x="1055" y="91" on="0"/>
        <pt x="924" y="32" on="1"/>
        <pt x="769" y="-82" on="0"/>
        <pt x="769" y="-178" on="1"/>
        <pt x="769" y="-250" on="0"/>
        <pt x="847" y="-250" on="1"/>
        <pt x="895" y="-250" on="0"/>
        <pt x="947" y="-224" on="1"/>
        <pt x="960" y="-345" on="1"/>
        <pt x="890" y="-389" on="0"/>
        <pt x="800" y="-389" on="1"/>
        <pt x="711" y="-389" on="0"/>
        <pt x="608" y="-285" on="0"/>
        <pt x="608" y="-199" on="1"/>
        <pt x="608" y="-102" on="0"/>
        <pt x="687" y="-19" on="1"/>
        <pt x="665" y="-20" on="1"/>
        <pt x="426" y="-20" on="0"/>
        <pt x="142" y="238" on="0"/>
        <pt x="140" y="464" on="1"/>
        <pt x="140" y="1456" on="1"/>
        <pt x="330" y="1456" on="1"/>
        <pt x="330" y="470" on="1"/>
        <pt x="330" y="312" on="0"/>
        <pt x="504" y="137" on="0"/>
        <pt x="665" y="137" on="1"/>
        <pt x="828" y="137" on="0"/>
        <pt x="1001" y="311" on="0"/>
        <pt x="1001" y="469" on="1"/>
        <pt x="1001" y="1456" on="1"/>
      </contour>
    </TTGlyph>
    <TTGlyph name="Upsilon" xMin="15" yMin="0" xMax="1211" yMax="1456">
      <component glyphName="Y" x="0" y="0" flags="0x204"/>
    </TTGlyph>
    <TTGlyph name="Upsilon1" xMin="-38" yMin="0" xMax="1134" yMax="1468">
      <contour>
        <pt x="548" y="774" on="1"/>
        <pt x="773" y="1281" on="1"/>
        <pt x="816" y="1380" on="0"/>
        <pt x="923" y="1468" on="0"/>
        <pt x="1010" y="1468" on="1"/>
        <pt x="1082" y="1468" on="0"/>
        <pt x="1134" y="1441" on="1"/>
        <pt x="1098" y="1290" on="1"/>
        <pt x="1085" y="1298" on="0"/>
        <pt x="1046" y="1298" on="1"/>
        <pt x="976" y="1298" on="0"/>
        <pt x="940" y="1219" on="1"/>
        <pt x="643" y="570" on="1"/>
        <pt x="643" y="0" on="1"/>
        <pt x="452" y="0" on="1"/>
        <pt x="452" y="572" on="1"/>
        <pt x="156" y="1219" on="1"/>
        <pt x="117" y="1298" on="0"/>
        <pt x="50" y="1298" on="1"/>
        <pt x="11" y="1298" on="0"/>
        <pt x="-2" y="1290" on="1"/>
        <pt x="-38" y="1440" on="1"/>
        <pt x="14" y="1468" on="0"/>
        <pt x="85" y="1468" on="1"/>
        <pt x="173" y="1468" on="0"/>
        <pt x="280" y="1384" on="0"/>
        <pt x="322" y="1291" on="1"/>
      </contour>
    </TTGlyph>
    <TTGlyph name="Upsilondieresis" xMin="15" yMin="0" xMax="1211" yMax="1787">
      <component glyphName="Y" x="0" y="0" flags="0x204"/>
      <component glyphName="dieresis" x="194" y="310" flags="0x4"/>
    </TTGlyph>
    <TTGlyph name="Upsilontonos" xMin="-236" yMin="0" xMax="1311" yMax="1599">
      <component glyphName="Y" x="100" y="0" flags="0x4"/>
      <component glyphName="tonos" x="-419" y="0" flags="0x4"/>
    </TTGlyph>
    <TTGlyph name="Uring" xMin="140" yMin="-20" xMax="1194" yMax="1937">
      <component glyphName="U" x="0" y="0" flags="0x204"/>
      <component glyphName="ring" x="331" y="321" flags="0x4"/>
    </TTGlyph>
    <TTGlyph name="Utilde" xMin="140" yMin="-20" xMax="1194" yMax="1826">
      <component glyphName="U" x="0" y="0" flags="0x204"/>
      <component glyphName="tilde" x="192" y="314" flags="0x4"/>
    </TTGlyph>
    <TTGlyph name="V" xMin="28" yMin="0" xMax="1277" yMax="1456">
      <contour>
        <pt x="651" y="255" on="1"/>
        <pt x="1067" y="1456" on="1"/>
        <pt x="1277" y="1456" on="1"/>
        <pt x="737" y="0" on="1"/>
        <pt x="567" y="0" on="1"/>
        <pt x="28" y="1456" on="1"/>
        <pt x="237" y="1456" on="1"/>
      </contour>
    </TTGlyph>
    <TTGlyph name="W" xMin="61" yMin="0" xMax="1773" yMax="1456">
      <contour>
        <pt x="483" y="459" on="1"/>
        <pt x="511" y="267" on="1"/>
        <pt x="552" y="440" on="1"/>
        <pt x="840" y="1456" on="1"/>
        <pt x="1002" y="1456" on="1"/>
        <pt x="1283" y="440" on="1"/>
        <pt x="1323" y="264" on="1"/>
        <pt x="1354" y="460" on="1"/>
        <pt x="1580" y="1456" on="1"/>
        <pt x="1773" y="1456" on="1"/>
        <pt x="1420" y="0" on="1"/>
        <pt x="1245" y="0" on="1"/>
        <pt x="945" y="1061" on="1"/>
        <pt x="922" y="1172" on="1"/>
        <pt x="899" y="1061" on="1"/>
        <pt x="588" y="0" on="1"/>
        <pt x="413" y="0" on="1"/>
        <pt x="61" y="1456" on="1"/>
        <pt x="253" y="1456" on="1"/>
      </contour>
    </TTGlyph>
    <TTGlyph name="Wacute" xMin="61" yMin="0" xMax="1773" yMax="1846">
      <component glyphName="W" x="0" y="0" flags="0x204"/>
      <component glyphName="acute" x="699" y="310" flags="0x4"/>
    </TTGlyph>
    <TTGlyph name="Wcircumflex" xMin="61" yMin="0" xMax="1773" yMax="1846">
      <component glyphName="W" x="0" y="0" flags="0x204"/>
      <component glyphName="circumflex" x="453" y="310" flags="0x4"/>
    </TTGlyph>
    <TTGlyph name="Wdieresis" xMin="61" yMin="0" xMax="1773" yMax="1787">
      <component glyphName="W" x="0" y="0" flags="0x204"/>
      <component glyphName="dieresis" x="501" y="310" flags="0x4"/>
    </TTGlyph>
    <TTGlyph name="Wgrave" xMin="61" yMin="0" xMax="1773" yMax="1846">
      <component glyphName="W" x="0" y="0" flags="0x204"/>
      <component glyphName="grave" x="556" y="310" flags="0x4"/>
    </TTGlyph>
    <TTGlyph name="X" xMin="57" yMin="0" xMax="1230" yMax="1456">
      <contour>
        <pt x="644" y="898" on="1"/>
        <pt x="993" y="1456" on="1"/>
        <pt x="1219" y="1456" on="1"/>
        <pt x="759" y="734" on="1"/>
        <pt x="1230" y="0" on="1"/>
        <pt x="1002" y="0" on="1"/>
        <pt x="644" y="568" on="1"/>
        <pt x="284" y="0" on="1"/>
        <pt x="57" y="0" on="1"/>
        <pt x="529" y="734" on="1"/>
        <pt x="68" y="1456" on="1"/>
        <pt x="293" y="1456" on="1"/>
      </contour>
    </TTGlyph>
    <TTGlyph name="Xi" xMin="120" yMin="0" xMax="1057" yMax="1456">
      <contour>
        <pt x="120" y="157" on="1"/>
        <pt x="1057" y="157" on="1"/>
        <pt x="1057" y="0" on="1"/>
        <pt x="120" y="0" on="1"/>
      </contour>
      <contour>
        <pt x="207" y="831" on="1"/>
        <pt x="961" y="831" on="1"/>
        <pt x="961" y="674" on="1"/>
        <pt x="207" y="674" on="1"/>
      </contour>
      <contour>
        <pt x="124" y="1456" on="1"/>
        <pt x="1040" y="1456" on="1"/>
        <pt x="1040" y="1298" on="1"/>
        <pt x="124" y="1298" on="1"/>
      </contour>
    </TTGlyph>
    <TTGlyph name="Y" xMin="15" yMin="0" xMax="1211" yMax="1456">
      <contour>
        <pt x="613" y="725" on="1"/>
        <pt x="993" y="1456" on="1"/>
        <pt x="1211" y="1456" on="1"/>
        <pt x="709" y="543" on="1"/>
        <pt x="709" y="0" on="1"/>
        <pt x="517" y="0" on="1"/>
        <pt x="517" y="543" on="1"/>
        <pt x="15" y="1456" on="1"/>
        <pt x="235" y="1456" on="1"/>
      </contour>
    </TTGlyph>
    <TTGlyph name="Yacute" xMin="15" yMin="0" xMax="1211" yMax="1846">
      <component glyphName="Y" x="0" y="0" flags="0x204"/>
      <component glyphName="acute" x="392" y="310" flags="0x4"/>
    </TTGlyph>
    <TTGlyph name="Ycircumflex" xMin="15" yMin="0" xMax="1211" yMax="1846">
      <component glyphName="Y" x="0" y="0" flags="0x204"/>
      <component glyphName="circumflex" x="146" y="310" flags="0x4"/>
    </TTGlyph>
    <TTGlyph name="Ydieresis" xMin="15" yMin="0" xMax="1211" yMax="1787">
      <component glyphName="Y" x="0" y="0" flags="0x204"/>
      <component glyphName="dieresis" x="194" y="310" flags="0x4"/>
    </TTGlyph>
    <TTGlyph name="Ygrave" xMin="15" yMin="0" xMax="1211" yMax="1846">
      <component glyphName="Y" x="0" y="0" flags="0x204"/>
      <component glyphName="grave" x="249" y="310" flags="0x4"/>
    </TTGlyph>
    <TTGlyph name="Z" xMin="86" yMin="0" xMax="1146" yMax="1456">
      <contour>
        <pt x="313" y="157" on="1"/>
        <pt x="1146" y="157" on="1"/>
        <pt x="1146" y="0" on="1"/>
        <pt x="86" y="0" on="1"/>
        <pt x="86" y="144" on="1"/>
        <pt x="884" y="1298" on="1"/>
        <pt x="99" y="1298" on="1"/>
        <pt x="99" y="1456" on="1"/>
        <pt x="1114" y="1456" on="1"/>
        <pt x="1114" y="1315" on="1"/>
      </contour>
    </TTGlyph>
    <TTGlyph name="Zacute" xMin="86" yMin="0" xMax="1146" yMax="1846">
      <component glyphName="Z" x="0" y="0" flags="0x204"/>
      <component glyphName="acute" x="391" y="310" flags="0x4"/>
    </TTGlyph>
    <TTGlyph name="Zcaron" xMin="86" yMin="0" xMax="1146" yMax="1846">
      <component glyphName="Z" x="0" y="0" flags="0x204"/>
      <component glyphName="caron" x="166" y="311" flags="0x4"/>
    </TTGlyph>
    <TTGlyph name="Zdotaccent" xMin="86" yMin="0" xMax="1146" yMax="1784">
      <component glyphName="Z" x="0" y="0" flags="0x204"/>
      <component glyphName="dotaccent" x="366" y="310" flags="0x4"/>
    </TTGlyph>
    <TTGlyph name="Zeta" xMin="86" yMin="0" xMax="1146" yMax="1456">
      <component glyphName="Z" x="0" y="0" flags="0x204"/>
    </TTGlyph>
    <TTGlyph name="a" xMin="109" yMin="-20" xMax="1002" yMax="1102">
      <contour>
        <pt x="808" y="0" on="1"/>
        <pt x="792" y="32" on="0"/>
        <pt x="782" y="114" on="1"/>
        <pt x="653" y="-20" on="0"/>
        <pt x="474" y="-20" on="1"/>
        <pt x="314" y="-20" on="0"/>
        <pt x="109" y="161" on="0"/>
        <pt x="109" y="300" on="1"/>
        <pt x="109" y="469" on="0"/>
        <pt x="366" y="656" on="0"/>
        <pt x="599" y="656" on="1"/>
        <pt x="779" y="656" on="1"/>
        <pt x="779" y="741" on="1"/>
        <pt x="779" y="838" on="0"/>
        <pt x="663" y="953" on="0"/>
        <pt x="550" y="953" on="1"/>
        <pt x="451" y="953" on="0"/>
        <pt x="317" y="853" on="0"/>
        <pt x="317" y="782" on="1"/>
        <pt x="131" y="782" on="1"/>
        <pt x="131" y="863" on="0"/>
        <pt x="246" y="1014" on="0"/>
        <pt x="443" y="1102" on="0"/>
        <pt x="561" y="1102" on="1"/>
        <pt x="748" y="1102" on="0"/>
        <pt x="960" y="915" on="0"/>
        <pt x="964" y="751" on="1"/>
        <pt x="964" y="253" on="1"/>
        <pt x="964" y="104" on="0"/>
        <pt x="1002" y="16" on="1"/>
        <pt x="1002" y="0" on="1"/>
      </contour>
      <contour>
        <pt x="501" y="141" on="1"/>
        <pt x="588" y="141" on="0"/>
        <pt x="744" y="231" on="0"/>
        <pt x="779" y="303" on="1"/>
        <pt x="779" y="525" on="1"/>
        <pt x="634" y="525" on="1"/>
        <pt x="294" y="525" on="0"/>
        <pt x="294" y="326" on="1"/>
        <pt x="294" y="239" on="0"/>
        <pt x="410" y="141" on="0"/>
      </contour>
    </TTGlyph>
    <TTGlyph name="aacute" xMin="109" yMin="-20" xMax="1002" yMax="1536">
      <component glyphName="a" x="0" y="0" flags="0x204"/>
      <component glyphName="acute" x="356" y="0" flags="0x4"/>
    </TTGlyph>
    <TTGlyph name="abreve" xMin="109" yMin="-20" xMax="1002" yMax="1496">
      <component glyphName="a" x="0" y="0" flags="0x204"/>
      <component glyphName="breve" x="153" y="1" flags="0x4"/>
    </TTGlyph>
    <TTGlyph name="acircumflex" xMin="109" yMin="-20" xMax="1002" yMax="1536">
      <component glyphName="a" x="0" y="0" flags="0x204"/>
      <component glyphName="circumflex" x="110" y="0" flags="0x4"/>
    </TTGlyph>
    <TTGlyph name="acute" xMin="123" yMin="1242" xMax="540" yMax="1536">
      <contour>
        <pt x="316" y="1536" on="1"/>
        <pt x="540" y="1536" on="1"/>
        <pt x="272" y="1242" on="1"/>
        <pt x="123" y="1242" on="1"/>
      </contour>
    </TTGlyph>
    <TTGlyph name="acutecomb" xMin="-657" yMin="1242" xMax="-240" yMax="1536">
      <contour>
        <pt x="-464" y="1536" on="1"/>
        <pt x="-240" y="1536" on="1"/>
        <pt x="-508" y="1242" on="1"/>
        <pt x="-657" y="1242" on="1"/>
      </contour>
    </TTGlyph>
    <TTGlyph name="adieresis" xMin="109" yMin="-20" xMax="1002" yMax="1477">
      <component glyphName="a" x="0" y="0" flags="0x204"/>
      <component glyphName="dieresis" x="158" y="0" flags="0x4"/>
    </TTGlyph>
    <TTGlyph name="ae" xMin="78" yMin="-20" xMax="1660" yMax="1102">
      <contour>
        <pt x="1262" y="-20" on="1"/>
        <pt x="1001" y="-20" on="0"/>
        <pt x="865" y="160" on="1"/>
        <pt x="800" y="74" on="0"/>
        <pt x="574" y="-20" on="0"/>
        <pt x="433" y="-20" on="1"/>
        <pt x="266" y="-20" on="0"/>
        <pt x="78" y="153" on="0"/>
        <pt x="78" y="304" on="1"/>
        <pt x="78" y="461" on="0"/>
        <pt x="305" y="635" on="0"/>
        <pt x="526" y="635" on="1"/>
        <pt x="749" y="635" on="1"/>
        <pt x="749" y="720" on="1"/>
        <pt x="749" y="827" on="0"/>
        <pt x="639" y="950" on="0"/>
        <pt x="535" y="950" on="1"/>
        <pt x="430" y="950" on="0"/>
        <pt x="290" y="840" on="0"/>
        <pt x="290" y="759" on="1"/>
        <pt x="106" y="778" on="1"/>
        <pt x="106" y="921" on="0"/>
        <pt x="348" y="1102" on="0"/>
        <pt x="535" y="1102" on="1"/>
        <pt x="650" y="1102" on="0"/>
        <pt x="826" y="1019" on="0"/>
        <pt x="876" y="936" on="1"/>
        <pt x="939" y="1015" on="0"/>
        <pt x="1113" y="1102" on="0"/>
        <pt x="1218" y="1102" on="1"/>
        <pt x="1428" y="1102" on="0"/>
        <pt x="1660" y="845" on="0"/>
        <pt x="1660" y="612" on="1"/>
        <pt x="1660" y="497" on="1"/>
        <pt x="932" y="497" on="1"/>
        <pt x="939" y="321" on="0"/>
        <pt x="1113" y="130" on="0"/>
        <pt x="1262" y="130" on="1"/>
        <pt x="1410" y="130" on="0"/>
        <pt x="1531" y="206" on="1"/>
        <pt x="1578" y="237" on="1"/>
        <pt x="1642" y="101" on="1"/>
        <pt x="1484" y="-20" on="0"/>
      </contour>
      <contour>
        <pt x="469" y="130" on="1"/>
        <pt x="541" y="130" on="0"/>
        <pt x="699" y="204" on="0"/>
        <pt x="749" y="258" on="1"/>
        <pt x="749" y="495" on="1"/>
        <pt x="521" y="495" on="1"/>
        <pt x="404" y="493" on="0"/>
        <pt x="264" y="383" on="0"/>
        <pt x="264" y="300" on="1"/>
        <pt x="264" y="223" on="0"/>
        <pt x="370" y="130" on="0"/>
      </contour>
      <contour>
        <pt x="1218" y="950" on="1"/>
        <pt x="1103" y="950" on="0"/>
        <pt x="954" y="779" on="0"/>
        <pt x="937" y="640" on="1"/>
        <pt x="1475" y="640" on="1"/>
        <pt x="1475" y="671" on="1"/>
        <pt x="1475" y="803" on="0"/>
        <pt x="1341" y="950" on="0"/>
      </contour>
    </TTGlyph>
    <TTGlyph name="aeacute" xMin="78" yMin="-20" xMax="1660" yMax="1537">
      <component glyphName="ae" x="0" y="0" flags="0x204"/>
      <component glyphName="acute" x="634" y="1" flags="0x4"/>
    </TTGlyph>
    <TTGlyph name="agrave" xMin="109" yMin="-20" xMax="1002" yMax="1536">
      <component glyphName="a" x="0" y="0" flags="0x204"/>
      <component glyphName="grave" x="213" y="0" flags="0x4"/>
    </TTGlyph>
    <TTGlyph name="alpha" xMin="100" yMin="-21" xMax="1143" yMax="1102">
      <contour>
        <pt x="1006" y="1082" on="1"/>
        <pt x="1006" y="285" on="1"/>
        <pt x="1008" y="145" on="0"/>
        <pt x="1086" y="145" on="1"/>
        <pt x="1105" y="145" on="0"/>
        <pt x="1120" y="150" on="1"/>
        <pt x="1143" y="13" on="1"/>
        <pt x="1095" y="-21" on="0"/>
        <pt x="1021" y="-21" on="1"/>
        <pt x="874" y="-21" on="0"/>
        <pt x="836" y="144" on="1"/>
        <pt x="729" y="-21" on="0"/>
        <pt x="520" y="-21" on="1"/>
        <pt x="328" y="-21" on="0"/>
        <pt x="100" y="262" on="0"/>
        <pt x="100" y="506" on="1"/>
        <pt x="100" y="521" on="1"/>
        <pt x="100" y="785" on="0"/>
        <pt x="326" y="1102" on="0"/>
        <pt x="522" y="1102" on="1"/>
        <pt x="725" y="1102" on="0"/>
        <pt x="832" y="941" on="1"/>
        <pt x="849" y="1082" on="1"/>
      </contour>
      <contour>
        <pt x="285" y="500" on="1"/>
        <pt x="285" y="325" on="0"/>
        <pt x="431" y="130" on="0"/>
        <pt x="566" y="130" on="1"/>
        <pt x="739" y="130" on="0"/>
        <pt x="821" y="316" on="1"/>
        <pt x="821" y="762" on="1"/>
        <pt x="736" y="950" on="0"/>
        <pt x="568" y="950" on="1"/>
        <pt x="434" y="950" on="0"/>
        <pt x="285" y="723" on="0"/>
      </contour>
    </TTGlyph>
    <TTGlyph name="alphatonos" xMin="100" yMin="-21" xMax="1143" yMax="1594">
      <component glyphName="alpha" x="0" y="0" flags="0x204"/>
      <component glyphName="tonos" x="373" y="-5" flags="0x4"/>
    </TTGlyph>
    <TTGlyph name="amacron" xMin="109" yMin="-20" xMax="1002" yMax="1453">
      <component glyphName="a" x="0" y="0" flags="0x204"/>
      <component glyphName="macron" x="108" y="8" flags="0x4"/>
    </TTGlyph>
    <TTGlyph name="ampersand" xMin="101" yMin="-20" xMax="1267" yMax="1476">
      <contour>
        <pt x="101" y="391" on="1"/>
        <pt x="101" y="496" on="0"/>
        <pt x="218" y="672" on="0"/>
        <pt x="383" y="789" on="1"/>
        <pt x="286" y="907" on="0"/>
        <pt x="220" y="1051" on="0"/>
        <pt x="220" y="1122" on="1"/>
        <pt x="220" y="1288" on="0"/>
        <pt x="416" y="1476" on="0"/>
        <pt x="584" y="1476" on="1"/>
        <pt x="734" y="1476" on="0"/>
        <pt x="930" y="1301" on="0"/>
        <pt x="930" y="1168" on="1"/>
        <pt x="930" y="1080" on="0"/>
        <pt x="841" y="931" on="0"/>
        <pt x="730" y="849" on="1"/>
        <pt x="623" y="770" on="1"/>
        <pt x="947" y="383" on="1"/>
        <pt x="1015" y="513" on="0"/>
        <pt x="1015" y="672" on="1"/>
        <pt x="1182" y="672" on="1"/>
        <pt x="1182" y="417" on="0"/>
        <pt x="1059" y="249" on="1"/>
        <pt x="1267" y="0" on="1"/>
        <pt x="1045" y="0" on="1"/>
        <pt x="948" y="115" on="1"/>
        <pt x="874" y="49" on="0"/>
        <pt x="675" y="-20" on="0"/>
        <pt x="572" y="-20" on="1"/>
        <pt x="359" y="-20" on="0"/>
        <pt x="101" y="206" on="0"/>
      </contour>
      <contour>
        <pt x="572" y="131" on="1"/>
        <pt x="719" y="131" on="0"/>
        <pt x="841" y="243" on="1"/>
        <pt x="486" y="668" on="1"/>
        <pt x="453" y="644" on="1"/>
        <pt x="286" y="521" on="0"/>
        <pt x="286" y="391" on="1"/>
        <pt x="286" y="273" on="0"/>
        <pt x="439" y="131" on="0"/>
      </contour>
      <contour>
        <pt x="405" y="1128" on="1"/>
        <pt x="405" y="1032" on="0"/>
        <pt x="523" y="888" on="1"/>
        <pt x="641" y="971" on="1"/>
        <pt x="709" y="1019" on="0"/>
        <pt x="759" y="1106" on="0"/>
        <pt x="759" y="1168" on="1"/>
        <pt x="759" y="1235" on="0"/>
        <pt x="659" y="1324" on="0"/>
        <pt x="583" y="1324" on="1"/>
        <pt x="501" y="1324" on="0"/>
        <pt x="405" y="1213" on="0"/>
      </contour>
    </TTGlyph>
    <TTGlyph name="anoteleia" xMin="147" yMin="619" xMax="377" yMax="841">
      <component glyphName="periodcentered" x="0" y="0" flags="0x4"/>
    </TTGlyph>
    <TTGlyph name="aogonek" xMin="109" yMin="-433" xMax="1002" yMax="1102">
      <contour>
        <pt x="804" y="7" on="1"/>
        <pt x="789" y="45" on="0"/>
        <pt x="782" y="114" on="1"/>
        <pt x="653" y="-20" on="0"/>
        <pt x="474" y="-20" on="1"/>
        <pt x="314" y="-20" on="0"/>
        <pt x="109" y="161" on="0"/>
        <pt x="109" y="300" on="1"/>
        <pt x="109" y="469" on="0"/>
        <pt x="366" y="656" on="0"/>
        <pt x="599" y="656" on="1"/>
        <pt x="779" y="656" on="1"/>
        <pt x="779" y="741" on="1"/>
        <pt x="779" y="838" on="0"/>
        <pt x="663" y="953" on="0"/>
        <pt x="550" y="953" on="1"/>
        <pt x="451" y="953" on="0"/>
        <pt x="317" y="853" on="0"/>
        <pt x="317" y="782" on="1"/>
        <pt x="131" y="782" on="1"/>
        <pt x="131" y="863" on="0"/>
        <pt x="246" y="1014" on="0"/>
        <pt x="443" y="1102" on="0"/>
        <pt x="561" y="1102" on="1"/>
        <pt x="748" y="1102" on="0"/>
        <pt x="960" y="915" on="0"/>
        <pt x="964" y="751" on="1"/>
        <pt x="964" y="253" on="1"/>
        <pt x="964" y="104" on="0"/>
        <pt x="1002" y="16" on="1"/>
        <pt x="1002" y="0" on="1"/>
        <pt x="969" y="0" on="1"/>
        <pt x="911" y="-45" on="1"/>
        <pt x="798" y="-136" on="0"/>
        <pt x="798" y="-222" on="1"/>
        <pt x="798" y="-294" on="0"/>
        <pt x="876" y="-294" on="1"/>
        <pt x="924" y="-294" on="0"/>
        <pt x="976" y="-268" on="1"/>
        <pt x="989" y="-389" on="1"/>
        <pt x="919" y="-433" on="0"/>
        <pt x="829" y="-433" on="1"/>
        <pt x="740" y="-433" on="0"/>
        <pt x="637" y="-329" on="0"/>
        <pt x="637" y="-243" on="1"/>
        <pt x="637" y="-99" on="0"/>
      </contour>
      <contour>
        <pt x="501" y="141" on="1"/>
        <pt x="588" y="141" on="0"/>
        <pt x="744" y="231" on="0"/>
        <pt x="779" y="303" on="1"/>
        <pt x="779" y="525" on="1"/>
        <pt x="634" y="525" on="1"/>
        <pt x="294" y="525" on="0"/>
        <pt x="294" y="326" on="1"/>
        <pt x="294" y="239" on="0"/>
        <pt x="410" y="141" on="0"/>
      </contour>
    </TTGlyph>
    <TTGlyph name="approxequal" xMin="101" yMin="280" xMax="1035" yMax="1012">
      <contour>
        <pt x="102" y="901" on="1"/>
        <pt x="150" y="952" on="0"/>
        <pt x="281" y="1010" on="0"/>
        <pt x="347" y="1010" on="1"/>
        <pt x="429" y="1012" on="0"/>
        <pt x="503" y="977" on="1"/>
        <pt x="655" y="899" on="1"/>
        <pt x="721" y="868" on="0"/>
        <pt x="799" y="868" on="1"/>
        <pt x="933" y="868" on="0"/>
        <pt x="1035" y="996" on="1"/>
        <pt x="1035" y="806" on="1"/>
        <pt x="932" y="697" on="0"/>
        <pt x="799" y="697" on="1"/>
        <pt x="721" y="697" on="0"/>
        <pt x="655" y="728" on="1"/>
        <pt x="494" y="811" on="1"/>
        <pt x="426" y="842" on="0"/>
        <pt x="347" y="840" on="1"/>
        <pt x="281" y="840" on="0"/>
        <pt x="150" y="772" on="0"/>
        <pt x="102" y="712" on="1"/>
      </contour>
      <contour>
        <pt x="101" y="483" on="1"/>
        <pt x="149" y="534" on="0"/>
        <pt x="279" y="593" on="0"/>
        <pt x="345" y="593" on="1"/>
        <pt x="427" y="595" on="0"/>
        <pt x="501" y="560" on="1"/>
        <pt x="650" y="483" on="1"/>
        <pt x="718" y="450" on="0"/>
        <pt x="798" y="450" on="1"/>
        <pt x="931" y="450" on="0"/>
        <pt x="1033" y="578" on="1"/>
        <pt x="1034" y="389" on="1"/>
        <pt x="931" y="280" on="0"/>
        <pt x="798" y="280" on="1"/>
        <pt x="720" y="280" on="0"/>
        <pt x="654" y="311" on="1"/>
        <pt x="502" y="389" on="1"/>
        <pt x="428" y="424" on="0"/>
        <pt x="346" y="422" on="1"/>
        <pt x="280" y="422" on="0"/>
        <pt x="149" y="354" on="0"/>
        <pt x="101" y="294" on="1"/>
      </contour>
    </TTGlyph>
    <TTGlyph name="aring" xMin="109" yMin="-20" xMax="1002" yMax="1627">
      <component glyphName="a" x="0" y="0" flags="0x204"/>
      <component glyphName="ring" x="245" y="11" flags="0x4"/>
    </TTGlyph>
    <TTGlyph name="aringacute" xMin="109" yMin="-20" xMax="1002" yMax="1631">
      <component glyphName="a" x="0" y="0" flags="0x204"/>
      <component glyphName="glyph00551" x="255" y="-19" flags="0x4"/>
    </TTGlyph>
    <TTGlyph name="asciicircum" xMin="64" yMin="729" xMax="788" yMax="1456">
      <contour>
        <pt x="426" y="1211" on="1"/>
        <pt x="236" y="729" on="1"/>
        <pt x="64" y="729" on="1"/>
        <pt x="363" y="1456" on="1"/>
        <pt x="490" y="1456" on="1"/>
        <pt x="788" y="729" on="1"/>
        <pt x="617" y="729" on="1"/>
      </contour>
    </TTGlyph>
    <TTGlyph name="asciitilde" xMin="131" yMin="402" xMax="1263" yMax="802">
      <contour>
        <pt x="1263" y="777" on="1"/>
        <pt x="1263" y="619" on="0"/>
        <pt x="1076" y="402" on="0"/>
        <pt x="939" y="402" on="1"/>
        <pt x="867" y="402" on="0"/>
        <pt x="739" y="455" on="0"/>
        <pt x="570" y="603" on="0"/>
        <pt x="496" y="639" on="0"/>
        <pt x="454" y="639" on="1"/>
        <pt x="376" y="639" on="0"/>
        <pt x="292" y="532" on="0"/>
        <pt x="292" y="438" on="1"/>
        <pt x="131" y="436" on="1"/>
        <pt x="131" y="596" on="0"/>
        <pt x="315" y="802" on="0"/>
        <pt x="454" y="802" on="1"/>
        <pt x="530" y="802" on="0"/>
        <pt x="670" y="738" on="0"/>
        <pt x="846" y="577" on="0"/>
        <pt x="910" y="567" on="1"/>
        <pt x="939" y="565" on="1"/>
        <pt x="1015" y="565" on="0"/>
        <pt x="1110" y="681" on="0"/>
        <pt x="1110" y="776" on="1"/>
      </contour>
    </TTGlyph>
    <TTGlyph name="asterisk" xMin="28" yMin="609" xMax="853" yMax="1456">
      <contour>
        <pt x="330" y="983" on="1"/>
        <pt x="28" y="1073" on="1"/>
        <pt x="74" y="1224" on="1"/>
        <pt x="376" y="1112" on="1"/>
        <pt x="367" y="1456" on="1"/>
        <pt x="520" y="1456" on="1"/>
        <pt x="510" y="1107" on="1"/>
        <pt x="807" y="1217" on="1"/>
        <pt x="853" y="1065" on="1"/>
        <pt x="546" y="974" on="1"/>
        <pt x="744" y="703" on="1"/>
        <pt x="620" y="609" on="1"/>
        <pt x="434" y="897" on="1"/>
        <pt x="254" y="616" on="1"/>
        <pt x="129" y="707" on="1"/>
      </contour>
    </TTGlyph>
    <TTGlyph name="at" xMin="106" yMin="-453" xMax="1750" yMax="1431">
      <contour>
        <pt x="1738" y="502" on="1"/>
        <pt x="1726" y="260" on="0"/>
        <pt x="1510" y="-20" on="0"/>
        <pt x="1329" y="-20" on="1"/>
        <pt x="1142" y="-20" on="0"/>
        <pt x="1089" y="148" on="1"/>
        <pt x="1035" y="63" on="0"/>
        <pt x="896" y="-20" on="0"/>
        <pt x="822" y="-20" on="1"/>
        <pt x="680" y="-20" on="0"/>
        <pt x="534" y="212" on="0"/>
        <pt x="553" y="417" on="1"/>
        <pt x="568" y="582" on="0"/>
        <pt x="689" y="841" on="0"/>
        <pt x="880" y="989" on="0"/>
        <pt x="985" y="989" on="1"/>
        <pt x="1066" y="989" on="0"/>
        <pt x="1194" y="946" on="0"/>
        <pt x="1274" y="883" on="1"/>
        <pt x="1222" y="329" on="1"/>
        <pt x="1203" y="98" on="0"/>
        <pt x="1350" y="98" on="1"/>
        <pt x="1463" y="98" on="0"/>
        <pt x="1603" y="322" on="0"/>
        <pt x="1609" y="502" on="1"/>
        <pt x="1628" y="891" on="0"/>
        <pt x="1301" y="1299" on="0"/>
        <pt x="967" y="1299" on="1"/>
        <pt x="766" y="1299" on="0"/>
        <pt x="454" y="1100" on="0"/>
        <pt x="274" y="724" on="0"/>
        <pt x="263" y="478" on="1"/>
        <pt x="251" y="230" on="0"/>
        <pt x="395" y="-135" on="0"/>
        <pt x="690" y="-328" on="0"/>
        <pt x="899" y="-328" on="1"/>
        <pt x="989" y="-328" on="0"/>
        <pt x="1170" y="-284" on="0"/>
        <pt x="1230" y="-249" on="1"/>
        <pt x="1267" y="-364" on="1"/>
        <pt x="1205" y="-403" on="0"/>
        <pt x="1000" y="-453" on="0"/>
        <pt x="895" y="-453" on="1"/>
        <pt x="645" y="-453" on="0"/>
        <pt x="285" y="-228" on="0"/>
        <pt x="106" y="195" on="0"/>
        <pt x="118" y="478" on="1"/>
        <pt x="130" y="753" on="0"/>
        <pt x="352" y="1192" on="0"/>
        <pt x="732" y="1431" on="0"/>
        <pt x="971" y="1431" on="1"/>
        <pt x="1220" y="1431" on="0"/>
        <pt x="1576" y="1207" on="0"/>
        <pt x="1750" y="785" on="0"/>
      </contour>
      <contour>
        <pt x="712" y="417" on="1"/>
        <pt x="698" y="275" on="0"/>
        <pt x="779" y="123" on="0"/>
        <pt x="867" y="123" on="1"/>
        <pt x="927" y="123" on="0"/>
        <pt x="1038" y="225" on="0"/>
        <pt x="1074" y="320" on="1"/>
        <pt x="1075" y="329" on="1"/>
        <pt x="1121" y="832" on="1"/>
        <pt x="1065" y="861" on="0"/>
        <pt x="1001" y="861" on="1"/>
        <pt x="884" y="861" on="0"/>
        <pt x="731" y="623" on="0"/>
      </contour>
    </TTGlyph>
    <TTGlyph name="atilde" xMin="109" yMin="-20" xMax="1002" yMax="1516">
      <component glyphName="a" x="0" y="0" flags="0x204"/>
      <component glyphName="tilde" x="106" y="4" flags="0x4"/>
    </TTGlyph>
    <TTGlyph name="b" xMin="140" yMin="-20" xMax="1056" yMax="1536">
      <contour>
        <pt x="1056" y="529" on="1"/>
        <pt x="1056" y="281" on="0"/>
        <pt x="828" y="-20" on="0"/>
        <pt x="636" y="-20" on="1"/>
        <pt x="431" y="-20" on="0"/>
        <pt x="319" y="125" on="1"/>
        <pt x="310" y="0" on="1"/>
        <pt x="140" y="0" on="1"/>
        <pt x="140" y="1536" on="1"/>
        <pt x="325" y="1536" on="1"/>
        <pt x="325" y="963" on="1"/>
        <pt x="437" y="1102" on="0"/>
        <pt x="831" y="1102" on="0"/>
        <pt x="1056" y="804" on="0"/>
        <pt x="1056" y="545" on="1"/>
      </contour>
      <contour>
        <pt x="871" y="550" on="1"/>
        <pt x="871" y="739" on="0"/>
        <pt x="725" y="945" on="0"/>
        <pt x="588" y="945" on="1"/>
        <pt x="405" y="945" on="0"/>
        <pt x="325" y="775" on="1"/>
        <pt x="325" y="307" on="1"/>
        <pt x="410" y="137" on="0"/>
        <pt x="590" y="137" on="1"/>
        <pt x="723" y="137" on="0"/>
        <pt x="871" y="343" on="0"/>
      </contour>
    </TTGlyph>
    <TTGlyph name="backslash" xMin="40" yMin="-125" xMax="824" yMax="1456">
      <contour>
        <pt x="40" y="1456" on="1"/>
        <pt x="216" y="1456" on="1"/>
        <pt x="824" y="-125" on="1"/>
        <pt x="648" y="-125" on="1"/>
      </contour>
    </TTGlyph>
    <TTGlyph name="bar" xMin="175" yMin="-270" xMax="324" yMax="1456">
      <contour>
        <pt x="324" y="-270" on="1"/>
        <pt x="175" y="-270" on="1"/>
        <pt x="175" y="1456" on="1"/>
        <pt x="324" y="1456" on="1"/>
      </contour>
    </TTGlyph>
    <TTGlyph name="beta" xMin="160" yMin="-384" xMax="1101" yMax="1476">
      <contour>
        <pt x="605" y="1476" on="1"/>
        <pt x="798" y="1476" on="0"/>
        <pt x="1033" y="1257" on="0"/>
        <pt x="1033" y="1083" on="1"/>
        <pt x="1033" y="992" on="0"/>
        <pt x="935" y="840" on="0"/>
        <pt x="847" y="794" on="1"/>
        <pt x="970" y="749" on="0"/>
        <pt x="1101" y="554" on="0"/>
        <pt x="1101" y="424" on="1"/>
        <pt x="1101" y="219" on="0"/>
        <pt x="852" y="-20" on="0"/>
        <pt x="647" y="-20" on="1"/>
        <pt x="466" y="-20" on="0"/>
        <pt x="346" y="75" on="1"/>
        <pt x="346" y="-384" on="1"/>
        <pt x="160" y="-384" on="1"/>
        <pt x="160" y="1073" on="1"/>
        <pt x="160" y="1181" on="0"/>
        <pt x="282" y="1369" on="0"/>
        <pt x="489" y="1476" on="0"/>
      </contour>
      <contour>
        <pt x="848" y="1087" on="1"/>
        <pt x="848" y="1189" on="0"/>
        <pt x="712" y="1324" on="0"/>
        <pt x="605" y="1324" on="1"/>
        <pt x="497" y="1324" on="0"/>
        <pt x="347" y="1182" on="0"/>
        <pt x="346" y="1075" on="1"/>
        <pt x="346" y="246" on="1"/>
        <pt x="390" y="194" on="0"/>
        <pt x="534" y="131" on="0"/>
        <pt x="628" y="131" on="1"/>
        <pt x="762" y="131" on="0"/>
        <pt x="916" y="291" on="0"/>
        <pt x="916" y="420" on="1"/>
        <pt x="916" y="538" on="0"/>
        <pt x="776" y="703" on="0"/>
        <pt x="667" y="706" on="1"/>
        <pt x="517" y="706" on="1"/>
        <pt x="517" y="858" on="1"/>
        <pt x="602" y="858" on="1"/>
        <pt x="722" y="858" on="0"/>
        <pt x="848" y="977" on="0"/>
      </contour>
    </TTGlyph>
    <TTGlyph name="braceleft" xMin="64" yMin="-366" xMax="670" yMax="1597">
      <contour>
        <pt x="632" y="-366" on="1"/>
        <pt x="455" y="-316" on="0"/>
        <pt x="276" y="-87" on="0"/>
        <pt x="276" y="101" on="1"/>
        <pt x="276" y="300" on="1"/>
        <pt x="276" y="543" on="0"/>
        <pt x="64" y="543" on="1"/>
        <pt x="64" y="688" on="1"/>
        <pt x="276" y="688" on="0"/>
        <pt x="276" y="930" on="1"/>
        <pt x="276" y="1138" on="1"/>
        <pt x="278" y="1321" on="0"/>
        <pt x="453" y="1546" on="0"/>
        <pt x="632" y="1597" on="1"/>
        <pt x="670" y="1482" on="1"/>
        <pt x="461" y="1415" on="0"/>
        <pt x="461" y="1133" on="1"/>
        <pt x="461" y="931" on="1"/>
        <pt x="461" y="704" on="0"/>
        <pt x="294" y="615" on="1"/>
        <pt x="461" y="525" on="0"/>
        <pt x="461" y="296" on="1"/>
        <pt x="461" y="90" on="1"/>
        <pt x="464" y="-185" on="0"/>
        <pt x="670" y="-251" on="1"/>
      </contour>
    </TTGlyph>
    <TTGlyph name="braceright" xMin="19" yMin="-366" xMax="626" yMax="1597">
      <contour>
        <pt x="19" y="-251" on="1"/>
        <pt x="222" y="-186" on="0"/>
        <pt x="229" y="80" on="1"/>
        <pt x="229" y="300" on="1"/>
        <pt x="229" y="531" on="0"/>
        <pt x="410" y="615" on="1"/>
        <pt x="229" y="697" on="0"/>
        <pt x="229" y="930" on="1"/>
        <pt x="229" y="1133" on="1"/>
        <pt x="229" y="1415" on="0"/>
        <pt x="20" y="1482" on="1"/>
        <pt x="58" y="1597" on="1"/>
        <pt x="235" y="1547" on="0"/>
        <pt x="413" y="1322" on="0"/>
        <pt x="414" y="1137" on="1"/>
        <pt x="414" y="927" on="1"/>
        <pt x="414" y="688" on="0"/>
        <pt x="626" y="688" on="1"/>
        <pt x="626" y="543" on="1"/>
        <pt x="414" y="543" on="0"/>
        <pt x="414" y="300" on="1"/>
        <pt x="414" y="98" on="1"/>
        <pt x="414" y="-90" on="0"/>
        <pt x="233" y="-316" on="0"/>
        <pt x="58" y="-366" on="1"/>
      </contour>
    </TTGlyph>
    <TTGlyph name="bracketleft" xMin="146" yMin="-312" xMax="523" yMax="1664">
      <contour>
        <pt x="523" y="1512" on="1"/>
        <pt x="332" y="1512" on="1"/>
        <pt x="332" y="-160" on="1"/>
        <pt x="523" y="-160" on="1"/>
        <pt x="523" y="-312" on="1"/>
        <pt x="146" y="-312" on="1"/>
        <pt x="146" y="1664" on="1"/>
        <pt x="523" y="1664" on="1"/>
      </contour>
    </TTGlyph>
    <TTGlyph name="bracketright" xMin="9" yMin="-312" xMax="387" yMax="1664">
      <contour>
        <pt x="9" y="1664" on="1"/>
        <pt x="387" y="1664" on="1"/>
        <pt x="387" y="-312" on="1"/>
        <pt x="9" y="-312" on="1"/>
        <pt x="9" y="-160" on="1"/>
        <pt x="202" y="-160" on="1"/>
        <pt x="202" y="1512" on="1"/>
        <pt x="9" y="1512" on="1"/>
      </contour>
    </TTGlyph>
    <TTGlyph name="breve" xMin="129" yMin="1227" xMax="728" yMax="1495">
      <contour>
        <pt x="728" y="1495" on="1"/>
        <pt x="728" y="1374" on="0"/>
        <pt x="563" y="1227" on="0"/>
        <pt x="295" y="1227" on="0"/>
        <pt x="129" y="1375" on="0"/>
        <pt x="129" y="1495" on="1"/>
        <pt x="280" y="1495" on="1"/>
        <pt x="280" y="1425" on="0"/>
        <pt x="356" y="1346" on="0"/>
        <pt x="429" y="1346" on="1"/>
        <pt x="499" y="1346" on="0"/>
        <pt x="578" y="1424" on="0"/>
        <pt x="578" y="1495" on="1"/>
      </contour>
    </TTGlyph>
    <TTGlyph name="brokenbar" xMin="147" yMin="-270" xMax="333" yMax="1456">
      <contour>
        <pt x="147" y="-270" on="1"/>
        <pt x="147" y="521" on="1"/>
        <pt x="333" y="521" on="1"/>
        <pt x="333" y="-270" on="1"/>
      </contour>
      <contour>
        <pt x="333" y="698" on="1"/>
        <pt x="147" y="698" on="1"/>
        <pt x="147" y="1456" on="1"/>
        <pt x="333" y="1456" on="1"/>
      </contour>
    </TTGlyph>
    <TTGlyph name="bullet" xMin="138" yMin="535" xMax="546" yMax="971">
      <contour>
        <pt x="138" y="772" on="1"/>
        <pt x="138" y="859" on="0"/>
        <pt x="249" y="971" on="0"/>
        <pt x="341" y="971" on="1"/>
        <pt x="432" y="971" on="0"/>
        <pt x="546" y="862" on="0"/>
        <pt x="546" y="769" on="1"/>
        <pt x="546" y="732" on="1"/>
        <pt x="546" y="645" on="0"/>
        <pt x="436" y="535" on="0"/>
        <pt x="342" y="535" on="1"/>
        <pt x="249" y="535" on="0"/>
        <pt x="138" y="646" on="0"/>
        <pt x="138" y="734" on="1"/>
      </contour>
    </TTGlyph>
    <TTGlyph name="c" xMin="92" yMin="-20" xMax="1004" yMax="1102">
      <contour>
        <pt x="574" y="131" on="1"/>
        <pt x="673" y="131" on="0"/>
        <pt x="821" y="251" on="0"/>
        <pt x="829" y="341" on="1"/>
        <pt x="1004" y="341" on="1"/>
        <pt x="999" y="248" on="0"/>
        <pt x="881" y="80" on="0"/>
        <pt x="684" y="-20" on="0"/>
        <pt x="574" y="-20" on="1"/>
        <pt x="353" y="-20" on="0"/>
        <pt x="92" y="275" on="0"/>
        <pt x="92" y="531" on="1"/>
        <pt x="92" y="562" on="1"/>
        <pt x="92" y="720" on="0"/>
        <pt x="208" y="966" on="0"/>
        <pt x="425" y="1102" on="0"/>
        <pt x="573" y="1102" on="1"/>
        <pt x="755" y="1102" on="0"/>
        <pt x="996" y="884" on="0"/>
        <pt x="1004" y="710" on="1"/>
        <pt x="829" y="710" on="1"/>
        <pt x="821" y="815" on="0"/>
        <pt x="678" y="950" on="0"/>
        <pt x="573" y="950" on="1"/>
        <pt x="432" y="950" on="0"/>
        <pt x="277" y="747" on="0"/>
        <pt x="277" y="555" on="1"/>
        <pt x="277" y="520" on="1"/>
        <pt x="277" y="333" on="0"/>
        <pt x="431" y="131" on="0"/>
      </contour>
    </TTGlyph>
    <TTGlyph name="cacute" xMin="92" yMin="-20" xMax="1004" yMax="1536">
      <component glyphName="c" x="0" y="0" flags="0x204"/>
      <component glyphName="acute" x="307" y="0" flags="0x4"/>
    </TTGlyph>
    <TTGlyph name="caron" xMin="141" yMin="1251" xMax="759" yMax="1535">
      <contour>
        <pt x="449" y="1365" on="1"/>
        <pt x="599" y="1535" on="1"/>
        <pt x="759" y="1535" on="1"/>
        <pt x="759" y="1525" on="1"/>
        <pt x="505" y="1251" on="1"/>
        <pt x="392" y="1251" on="1"/>
        <pt x="141" y="1525" on="1"/>
        <pt x="141" y="1535" on="1"/>
        <pt x="298" y="1535" on="1"/>
      </contour>
    </TTGlyph>
    <TTGlyph name="ccaron" xMin="92" yMin="-20" xMax="1004" yMax="1536">
      <component glyphName="c" x="0" y="0" flags="0x204"/>
      <component glyphName="caron" x="82" y="1" flags="0x4"/>
    </TTGlyph>
    <TTGlyph name="ccedilla" xMin="92" yMin="-444" xMax="1004" yMax="1102">
      <component glyphName="c" x="0" y="0" flags="0x204"/>
      <component glyphName="cedilla" x="319" y="-9" flags="0x4"/>
    </TTGlyph>
    <TTGlyph name="ccircumflex" xMin="92" yMin="-20" xMax="1004" yMax="1536">
      <component glyphName="c" x="0" y="0" flags="0x204"/>
      <component glyphName="circumflex" x="61" y="0" flags="0x4"/>
    </TTGlyph>
    <TTGlyph name="cdotaccent" xMin="92" yMin="-20" xMax="1004" yMax="1474">
      <component glyphName="c" x="0" y="0" flags="0x204"/>
      <component glyphName="dotaccent" x="282" y="0" flags="0x4"/>
    </TTGlyph>
    <TTGlyph name="cedilla" xMin="116" yMin="-435" xMax="426" yMax="0">
      <contour>
        <pt x="285" y="0" on="1"/>
        <pt x="273" y="-52" on="1"/>
        <pt x="426" y="-79" on="0"/>
        <pt x="426" y="-225" on="1"/>
        <pt x="426" y="-322" on="0"/>
        <pt x="266" y="-435" on="0"/>
        <pt x="123" y="-435" on="1"/>
        <pt x="116" y="-328" on="1"/>
        <pt x="195" y="-328" on="0"/>
        <pt x="282" y="-276" on="0"/>
        <pt x="282" y="-229" on="1"/>
        <pt x="282" y="-185" on="0"/>
        <pt x="218" y="-143" on="0"/>
        <pt x="120" y="-134" on="1"/>
        <pt x="152" y="0" on="1"/>
      </contour>
    </TTGlyph>
    <TTGlyph name="cent" xMin="105" yMin="-245" xMax="1017" yMax="1318">
      <contour>
        <pt x="586" y="131" on="1"/>
        <pt x="686" y="131" on="0"/>
        <pt x="834" y="252" on="0"/>
        <pt x="842" y="341" on="1"/>
        <pt x="1017" y="341" on="1"/>
        <pt x="1011" y="215" on="0"/>
        <pt x="813" y="14" on="0"/>
        <pt x="669" y="-12" on="1"/>
        <pt x="669" y="-245" on="1"/>
        <pt x="484" y="-245" on="1"/>
        <pt x="484" y="-11" on="1"/>
        <pt x="305" y="23" on="0"/>
        <pt x="105" y="307" on="0"/>
        <pt x="105" y="527" on="1"/>
        <pt x="105" y="562" on="1"/>
        <pt x="105" y="774" on="0"/>
        <pt x="307" y="1059" on="0"/>
        <pt x="484" y="1092" on="1"/>
        <pt x="484" y="1318" on="1"/>
        <pt x="669" y="1318" on="1"/>
        <pt x="669" y="1095" on="1"/>
        <pt x="819" y="1072" on="0"/>
        <pt x="1011" y="860" on="0"/>
        <pt x="1017" y="710" on="1"/>
        <pt x="842" y="710" on="1"/>
        <pt x="834" y="815" on="0"/>
        <pt x="691" y="950" on="0"/>
        <pt x="586" y="950" on="1"/>
        <pt x="445" y="950" on="0"/>
        <pt x="290" y="747" on="0"/>
        <pt x="290" y="555" on="1"/>
        <pt x="290" y="520" on="1"/>
        <pt x="290" y="333" on="0"/>
        <pt x="445" y="131" on="0"/>
      </contour>
    </TTGlyph>
    <TTGlyph name="chi" xMin="90" yMin="-436" xMax="1140" yMax="1097">
      <contour>
        <pt x="194" y="1097" on="1"/>
        <pt x="368" y="1097" on="0"/>
        <pt x="456" y="905" on="1"/>
        <pt x="605" y="566" on="1"/>
        <pt x="860" y="1082" on="1"/>
        <pt x="1047" y="1082" on="1"/>
        <pt x="695" y="361" on="1"/>
        <pt x="913" y="-137" on="1"/>
        <pt x="974" y="-265" on="0"/>
        <pt x="1042" y="-268" on="1"/>
        <pt x="1068" y="-268" on="1"/>
        <pt x="1140" y="-263" on="1"/>
        <pt x="1093" y="-421" on="1"/>
        <pt x="1069" y="-436" on="0"/>
        <pt x="1032" y="-436" on="1"/>
        <pt x="941" y="-436" on="0"/>
        <pt x="821" y="-342" on="0"/>
        <pt x="759" y="-208" on="1"/>
        <pt x="597" y="162" on="1"/>
        <pt x="316" y="-415" on="1"/>
        <pt x="120" y="-415" on="1"/>
        <pt x="507" y="369" on="1"/>
        <pt x="339" y="756" on="1"/>
        <pt x="266" y="939" on="0"/>
        <pt x="159" y="939" on="1"/>
        <pt x="91" y="934" on="1"/>
        <pt x="90" y="1082" on="1"/>
        <pt x="158" y="1097" on="0"/>
      </contour>
    </TTGlyph>
    <TTGlyph name="circumflex" xMin="169" yMin="1252" xMax="774" yMax="1536">
      <contour>
        <pt x="774" y="1262" on="1"/>
        <pt x="774" y="1252" on="1"/>
        <pt x="621" y="1252" on="1"/>
        <pt x="471" y="1422" on="1"/>
        <pt x="322" y="1252" on="1"/>
        <pt x="169" y="1252" on="1"/>
        <pt x="169" y="1264" on="1"/>
        <pt x="415" y="1536" on="1"/>
        <pt x="527" y="1536" on="1"/>
      </contour>
    </TTGlyph>
    <TTGlyph name="colon" xMin="134" yMin="-11" xMax="365" yMax="1092">
      <component glyphName="period" x="-10" y="0" flags="0x4"/>
      <component glyphName="period" x="-9" y="883" flags="0x4"/>
    </TTGlyph>
    <TTGlyph name="comma" xMin="29" yMin="-290" xMax="308" yMax="219">
      <contour>
        <pt x="134" y="-290" on="1"/>
        <pt x="29" y="-218" on="1"/>
        <pt x="123" y="-87" on="0"/>
        <pt x="127" y="52" on="1"/>
        <pt x="127" y="219" on="1"/>
        <pt x="308" y="219" on="1"/>
        <pt x="308" y="74" on="1"/>
        <pt x="308" y="-27" on="0"/>
        <pt x="209" y="-229" on="0"/>
      </contour>
    </TTGlyph>
    <TTGlyph name="copyright" xMin="91" yMin="-21" xMax="1510" yMax="1476">
      <contour>
        <pt x="1119" y="597" on="1"/>
        <pt x="1119" y="444" on="0"/>
        <pt x="946" y="283" on="0"/>
        <pt x="788" y="283" on="1"/>
        <pt x="631" y="283" on="0"/>
        <pt x="442" y="494" on="0"/>
        <pt x="442" y="676" on="1"/>
        <pt x="442" y="786" on="1"/>
        <pt x="442" y="962" on="0"/>
        <pt x="633" y="1173" on="0"/>
        <pt x="788" y="1173" on="1"/>
        <pt x="948" y="1173" on="0"/>
        <pt x="1120" y="1009" on="0"/>
        <pt x="1120" y="860" on="1"/>
        <pt x="974" y="860" on="1"/>
        <pt x="974" y="959" on="0"/>
        <pt x="879" y="1044" on="0"/>
        <pt x="788" y="1044" on="1"/>
        <pt x="694" y="1044" on="0"/>
        <pt x="586" y="906" on="0"/>
        <pt x="586" y="783" on="1"/>
        <pt x="586" y="670" on="1"/>
        <pt x="586" y="550" on="0"/>
        <pt x="694" y="412" on="0"/>
        <pt x="788" y="412" on="1"/>
        <pt x="880" y="412" on="0"/>
        <pt x="973" y="496" on="0"/>
        <pt x="973" y="597" on="1"/>
      </contour>
      <contour>
        <pt x="206" y="729" on="1"/>
        <pt x="206" y="557" on="0"/>
        <pt x="366" y="264" on="0"/>
        <pt x="641" y="98" on="0"/>
        <pt x="961" y="98" on="0"/>
        <pt x="1235" y="264" on="0"/>
        <pt x="1395" y="557" on="0"/>
        <pt x="1395" y="729" on="1"/>
        <pt x="1395" y="899" on="0"/>
        <pt x="1237" y="1189" on="0"/>
        <pt x="962" y="1356" on="0"/>
        <pt x="801" y="1356" on="1"/>
        <pt x="641" y="1356" on="0"/>
        <pt x="365" y="1191" on="0"/>
        <pt x="206" y="899" on="0"/>
      </contour>
      <contour>
        <pt x="91" y="729" on="1"/>
        <pt x="91" y="931" on="0"/>
        <pt x="278" y="1277" on="0"/>
        <pt x="609" y="1476" on="0"/>
        <pt x="993" y="1476" on="0"/>
        <pt x="1323" y="1277" on="0"/>
        <pt x="1510" y="931" on="0"/>
        <pt x="1510" y="729" on="1"/>
        <pt x="1510" y="532" on="0"/>
        <pt x="1330" y="188" on="0"/>
        <pt x="999" y="-21" on="0"/>
        <pt x="801" y="-21" on="1"/>
        <pt x="604" y="-21" on="0"/>
        <pt x="273" y="186" on="0"/>
        <pt x="91" y="530" on="0"/>
      </contour>
    </TTGlyph>
    <TTGlyph name="currency" xMin="105" yMin="-27" xMax="1371" yMax="1265">
      <contour>
        <pt x="1103" y="112" on="1"/>
        <pt x="944" y="-20" on="0"/>
        <pt x="735" y="-20" on="1"/>
        <pt x="528" y="-20" on="0"/>
        <pt x="369" y="110" on="1"/>
        <pt x="235" y="-26" on="1"/>
        <pt x="105" y="109" on="1"/>
        <pt x="244" y="250" on="1"/>
        <pt x="140" y="406" on="0"/>
        <pt x="140" y="608" on="1"/>
        <pt x="140" y="814" on="0"/>
        <pt x="252" y="977" on="1"/>
        <pt x="105" y="1128" on="1"/>
        <pt x="235" y="1264" on="1"/>
        <pt x="382" y="1114" on="1"/>
        <pt x="540" y="1234" on="0"/>
        <pt x="735" y="1234" on="1"/>
        <pt x="931" y="1234" on="0"/>
        <pt x="1090" y="1113" on="1"/>
        <pt x="1239" y="1265" on="1"/>
        <pt x="1371" y="1128" on="1"/>
        <pt x="1220" y="974" on="1"/>
        <pt x="1330" y="811" on="0"/>
        <pt x="1330" y="608" on="1"/>
        <pt x="1330" y="412" on="0"/>
        <pt x="1228" y="253" on="1"/>
        <pt x="1371" y="109" on="1"/>
        <pt x="1239" y="-27" on="1"/>
      </contour>
      <contour>
        <pt x="311" y="608" on="1"/>
        <pt x="311" y="485" on="0"/>
        <pt x="426" y="273" on="0"/>
        <pt x="622" y="151" on="0"/>
        <pt x="848" y="151" on="0"/>
        <pt x="1044" y="274" on="0"/>
        <pt x="1157" y="485" on="0"/>
        <pt x="1157" y="608" on="1"/>
        <pt x="1157" y="730" on="0"/>
        <pt x="1044" y="941" on="0"/>
        <pt x="847" y="1062" on="0"/>
        <pt x="735" y="1062" on="1"/>
        <pt x="622" y="1062" on="0"/>
        <pt x="426" y="942" on="0"/>
        <pt x="311" y="730" on="0"/>
      </contour>
    </TTGlyph>
    <TTGlyph name="d" xMin="95" yMin="-20" xMax="1008" yMax="1536">
      <contour>
        <pt x="95" y="550" on="1"/>
        <pt x="95" y="799" on="0"/>
        <pt x="331" y="1102" on="0"/>
        <pt x="522" y="1102" on="1"/>
        <pt x="712" y="1102" on="0"/>
        <pt x="823" y="972" on="1"/>
        <pt x="823" y="1536" on="1"/>
        <pt x="1008" y="1536" on="1"/>
        <pt x="1008" y="0" on="1"/>
        <pt x="838" y="0" on="1"/>
        <pt x="829" y="116" on="1"/>
        <pt x="718" y="-20" on="0"/>
        <pt x="520" y="-20" on="1"/>
        <pt x="332" y="-20" on="0"/>
        <pt x="95" y="288" on="0"/>
        <pt x="95" y="536" on="1"/>
      </contour>
      <contour>
        <pt x="280" y="529" on="1"/>
        <pt x="280" y="345" on="0"/>
        <pt x="432" y="137" on="0"/>
        <pt x="566" y="137" on="1"/>
        <pt x="742" y="137" on="0"/>
        <pt x="823" y="295" on="1"/>
        <pt x="823" y="792" on="1"/>
        <pt x="740" y="945" on="0"/>
        <pt x="568" y="945" on="1"/>
        <pt x="432" y="945" on="0"/>
        <pt x="280" y="735" on="0"/>
      </contour>
    </TTGlyph>
    <TTGlyph name="dagger" xMin="70" yMin="0" xMax="1060" yMax="1456">
      <contour>
        <pt x="1060" y="929" on="1"/>
        <pt x="656" y="929" on="1"/>
        <pt x="656" y="0" on="1"/>
        <pt x="470" y="0" on="1"/>
        <pt x="470" y="929" on="1"/>
        <pt x="70" y="929" on="1"/>
        <pt x="70" y="1082" on="1"/>
        <pt x="470" y="1082" on="1"/>
        <pt x="470" y="1456" on="1"/>
        <pt x="656" y="1456" on="1"/>
        <pt x="656" y="1082" on="1"/>
        <pt x="1060" y="1082" on="1"/>
      </contour>
    </TTGlyph>
    <TTGlyph name="daggerdbl" xMin="87" yMin="-416" xMax="1076" yMax="1456">
      <contour>
        <pt x="1076" y="0" on="1"/>
        <pt x="670" y="0" on="1"/>
        <pt x="670" y="-416" on="1"/>
        <pt x="484" y="-416" on="1"/>
        <pt x="484" y="0" on="1"/>
        <pt x="87" y="0" on="1"/>
        <pt x="87" y="151" on="1"/>
        <pt x="484" y="151" on="1"/>
        <pt x="484" y="929" on="1"/>
        <pt x="87" y="929" on="1"/>
        <pt x="87" y="1082" on="1"/>
        <pt x="484" y="1082" on="1"/>
        <pt x="484" y="1456" on="1"/>
        <pt x="670" y="1456" on="1"/>
        <pt x="670" y="1082" on="1"/>
        <pt x="1076" y="1082" on="1"/>
        <pt x="1076" y="929" on="1"/>
        <pt x="670" y="929" on="1"/>
        <pt x="670" y="151" on="1"/>
        <pt x="1076" y="151" on="1"/>
      </contour>
    </TTGlyph>
    <TTGlyph name="dcaron" xMin="95" yMin="-20" xMax="1323" yMax="1538">
      <component glyphName="d" x="0" y="0" flags="0x4"/>
      <component glyphName="uniF6C3" x="980" y="1299" flags="0x4"/>
    </TTGlyph>
    <TTGlyph name="dcroat" xMin="95" yMin="-20" xMax="1196" yMax="1536">
      <contour>
        <pt x="1196" y="1233" on="1"/>
        <pt x="1008" y="1233" on="1"/>
        <pt x="1008" y="0" on="1"/>
        <pt x="838" y="0" on="1"/>
        <pt x="829" y="116" on="1"/>
        <pt x="718" y="-20" on="0"/>
        <pt x="520" y="-20" on="1"/>
        <pt x="332" y="-20" on="0"/>
        <pt x="95" y="288" on="0"/>
        <pt x="95" y="536" on="1"/>
        <pt x="95" y="550" on="1"/>
        <pt x="95" y="799" on="0"/>
        <pt x="331" y="1102" on="0"/>
        <pt x="522" y="1102" on="1"/>
        <pt x="712" y="1102" on="0"/>
        <pt x="823" y="972" on="1"/>
        <pt x="823" y="1233" on="1"/>
        <pt x="559" y="1233" on="1"/>
        <pt x="559" y="1384" on="1"/>
        <pt x="823" y="1384" on="1"/>
        <pt x="823" y="1536" on="1"/>
        <pt x="1008" y="1536" on="1"/>
        <pt x="1008" y="1384" on="1"/>
        <pt x="1196" y="1384" on="1"/>
      </contour>
      <contour>
        <pt x="280" y="529" on="1"/>
        <pt x="280" y="345" on="0"/>
        <pt x="432" y="137" on="0"/>
        <pt x="566" y="137" on="1"/>
        <pt x="742" y="137" on="0"/>
        <pt x="823" y="295" on="1"/>
        <pt x="823" y="792" on="1"/>
        <pt x="740" y="945" on="0"/>
        <pt x="568" y="945" on="1"/>
        <pt x="432" y="945" on="0"/>
        <pt x="280" y="735" on="0"/>
      </contour>
    </TTGlyph>
    <TTGlyph name="degree" xMin="130" yMin="960" xMax="636" yMax="1476">
      <contour>
        <pt x="130" y="1216" on="1"/>
        <pt x="130" y="1320" on="0"/>
        <pt x="279" y="1476" on="0"/>
        <pt x="385" y="1476" on="1"/>
        <pt x="489" y="1476" on="0"/>
        <pt x="636" y="1321" on="0"/>
        <pt x="636" y="1216" on="1"/>
        <pt x="636" y="1110" on="0"/>
        <pt x="489" y="960" on="0"/>
        <pt x="385" y="960" on="1"/>
        <pt x="280" y="960" on="0"/>
        <pt x="130" y="1110" on="0"/>
      </contour>
      <contour>
        <pt x="385" y="1088" on="1"/>
        <pt x="439" y="1088" on="0"/>
        <pt x="513" y="1159" on="0"/>
        <pt x="513" y="1216" on="1"/>
        <pt x="513" y="1274" on="0"/>
        <pt x="439" y="1349" on="0"/>
        <pt x="385" y="1349" on="1"/>
        <pt x="330" y="1349" on="0"/>
        <pt x="255" y="1270" on="0"/>
        <pt x="255" y="1162" on="0"/>
        <pt x="330" y="1088" on="0"/>
      </contour>
    </TTGlyph>
    <TTGlyph name="delta" xMin="96" yMin="-20" xMax="1063" yMax="1564">
      <contour>
        <pt x="221" y="1269" on="1"/>
        <pt x="221" y="1405" on="0"/>
        <pt x="424" y="1564" on="0"/>
        <pt x="599" y="1564" on="1"/>
        <pt x="738" y="1564" on="0"/>
        <pt x="872" y="1509" on="1"/>
        <pt x="870" y="1349" on="1"/>
        <pt x="719" y="1408" on="0"/>
        <pt x="595" y="1408" on="1"/>
        <pt x="509" y="1408" on="0"/>
        <pt x="408" y="1336" on="0"/>
        <pt x="408" y="1274" on="1"/>
        <pt x="408" y="1166" on="0"/>
        <pt x="851" y="1013" on="0"/>
        <pt x="1058" y="744" on="0"/>
        <pt x="1063" y="548" on="1"/>
        <pt x="1063" y="509" on="1"/>
        <pt x="1063" y="356" on="0"/>
        <pt x="945" y="113" on="0"/>
        <pt x="726" y="-20" on="0"/>
        <pt x="581" y="-20" on="1"/>
        <pt x="359" y="-20" on="0"/>
        <pt x="96" y="275" on="0"/>
        <pt x="96" y="517" on="1"/>
        <pt x="96" y="530" on="1"/>
        <pt x="96" y="695" on="0"/>
        <pt x="284" y="959" on="0"/>
        <pt x="428" y="994" on="1"/>
        <pt x="427" y="999" on="1"/>
        <pt x="328" y="1038" on="0"/>
        <pt x="221" y="1178" on="0"/>
      </contour>
      <contour>
        <pt x="283" y="509" on="1"/>
        <pt x="283" y="333" on="0"/>
        <pt x="444" y="130" on="0"/>
        <pt x="581" y="130" on="1"/>
        <pt x="717" y="130" on="0"/>
        <pt x="877" y="332" on="0"/>
        <pt x="877" y="530" on="1"/>
        <pt x="877" y="666" on="0"/>
        <pt x="708" y="885" on="0"/>
        <pt x="583" y="910" on="1"/>
        <pt x="447" y="910" on="0"/>
        <pt x="283" y="705" on="0"/>
      </contour>
    </TTGlyph>
    <TTGlyph name="dieresis" xMin="101" yMin="1264" xMax="750" yMax="1477">
      <contour>
        <pt x="101" y="1371" on="1"/>
        <pt x="101" y="1416" on="0"/>
        <pt x="156" y="1477" on="0"/>
        <pt x="264" y="1477" on="0"/>
        <pt x="320" y="1416" on="0"/>
        <pt x="320" y="1326" on="0"/>
        <pt x="264" y="1266" on="0"/>
        <pt x="156" y="1266" on="0"/>
        <pt x="101" y="1326" on="0"/>
      </contour>
      <contour>
        <pt x="531" y="1369" on="1"/>
        <pt x="531" y="1414" on="0"/>
        <pt x="586" y="1476" on="0"/>
        <pt x="694" y="1476" on="0"/>
        <pt x="750" y="1414" on="0"/>
        <pt x="750" y="1324" on="0"/>
        <pt x="694" y="1264" on="0"/>
        <pt x="586" y="1264" on="0"/>
        <pt x="531" y="1324" on="0"/>
      </contour>
    </TTGlyph>
    <TTGlyph name="dieresistonos" xMin="113" yMin="1264" xMax="899" yMax="1672">
      <contour>
        <pt x="481" y="1672" on="1"/>
        <pt x="669" y="1672" on="1"/>
        <pt x="568" y="1408" on="1"/>
        <pt x="433" y="1408" on="1"/>
      </contour>
      <contour>
        <pt x="113" y="1371" on="1"/>
        <pt x="113" y="1416" on="0"/>
        <pt x="168" y="1477" on="0"/>
        <pt x="276" y="1477" on="0"/>
        <pt x="332" y="1416" on="0"/>
        <pt x="332" y="1326" on="0"/>
        <pt x="276" y="1266" on="0"/>
        <pt x="168" y="1266" on="0"/>
        <pt x="113" y="1326" on="0"/>
      </contour>
      <contour>
        <pt x="680" y="1369" on="1"/>
        <pt x="680" y="1414" on="0"/>
        <pt x="735" y="1476" on="0"/>
        <pt x="843" y="1476" on="0"/>
        <pt x="899" y="1414" on="0"/>
        <pt x="899" y="1324" on="0"/>
        <pt x="843" y="1264" on="0"/>
        <pt x="735" y="1264" on="0"/>
        <pt x="680" y="1324" on="0"/>
      </contour>
    </TTGlyph>
    <TTGlyph name="divide" xMin="71" yMin="172" xMax="1069" yMax="1210">
      <contour>
        <pt x="1069" y="600" on="1"/>
        <pt x="71" y="600" on="1"/>
        <pt x="71" y="784" on="1"/>
        <pt x="1069" y="784" on="1"/>
      </contour>
      <contour>
        <pt x="461" y="1098" on="1"/>
        <pt x="461" y="1146" on="0"/>
        <pt x="518" y="1210" on="0"/>
        <pt x="632" y="1210" on="0"/>
        <pt x="691" y="1146" on="0"/>
        <pt x="691" y="1098" on="1"/>
        <pt x="691" y="1051" on="0"/>
        <pt x="632" y="989" on="0"/>
        <pt x="518" y="989" on="0"/>
        <pt x="461" y="1051" on="0"/>
      </contour>
      <contour>
        <pt x="461" y="281" on="1"/>
        <pt x="461" y="329" on="0"/>
        <pt x="518" y="393" on="0"/>
        <pt x="632" y="393" on="0"/>
        <pt x="691" y="329" on="0"/>
        <pt x="691" y="281" on="1"/>
        <pt x="691" y="235" on="0"/>
        <pt x="632" y="172" on="0"/>
        <pt x="518" y="172" on="0"/>
        <pt x="461" y="235" on="0"/>
      </contour>
    </TTGlyph>
    <TTGlyph name="dollar" xMin="110" yMin="-208" xMax="1041" yMax="1692">
      <contour>
        <pt x="856" y="375" on="1"/>
        <pt x="856" y="467" on="0"/>
        <pt x="727" y="593" on="0"/>
        <pt x="574" y="644" on="1"/>
        <pt x="361" y="709" on="0"/>
        <pt x="166" y="918" on="0"/>
        <pt x="166" y="1079" on="1"/>
        <pt x="166" y="1243" on="0"/>
        <pt x="357" y="1453" on="0"/>
        <pt x="524" y="1473" on="1"/>
        <pt x="524" y="1692" on="1"/>
        <pt x="673" y="1692" on="1"/>
        <pt x="673" y="1472" on="1"/>
        <pt x="841" y="1449" on="0"/>
        <pt x="1028" y="1213" on="0"/>
        <pt x="1028" y="1008" on="1"/>
        <pt x="844" y="1008" on="1"/>
        <pt x="844" y="1149" on="0"/>
        <pt x="710" y="1315" on="0"/>
        <pt x="596" y="1315" on="1"/>
        <pt x="477" y="1315" on="0"/>
        <pt x="351" y="1192" on="0"/>
        <pt x="351" y="1082" on="1"/>
        <pt x="351" y="980" on="0"/>
        <pt x="484" y="859" on="0"/>
        <pt x="789" y="760" on="0"/>
        <pt x="960" y="641" on="0"/>
        <pt x="1041" y="483" on="0"/>
        <pt x="1041" y="377" on="1"/>
        <pt x="1041" y="208" on="0"/>
        <pt x="838" y="2" on="0"/>
        <pt x="655" y="-17" on="1"/>
        <pt x="655" y="-208" on="1"/>
        <pt x="507" y="-208" on="1"/>
        <pt x="507" y="-17" on="1"/>
        <pt x="321" y="0" on="0"/>
        <pt x="110" y="231" on="0"/>
        <pt x="110" y="429" on="1"/>
        <pt x="295" y="429" on="1"/>
        <pt x="295" y="290" on="0"/>
        <pt x="441" y="140" on="0"/>
        <pt x="575" y="140" on="1"/>
        <pt x="706" y="140" on="0"/>
        <pt x="856" y="266" on="0"/>
      </contour>
    </TTGlyph>
    <TTGlyph name="dong" xMin="95" yMin="-307" xMax="1196" yMax="1536">
      <component glyphName="d" x="0" y="0" flags="0x4"/>
      <component glyphName="glyph00550" x="417" y="583" flags="0x4"/>
      <component glyphName="underscore" x="159" y="-156" flags="0x4"/>
    </TTGlyph>
    <TTGlyph name="dotaccent" xMin="141" yMin="1262" xMax="360" yMax="1474">
      <contour>
        <pt x="141" y="1367" on="1"/>
        <pt x="141" y="1412" on="0"/>
        <pt x="196" y="1474" on="0"/>
        <pt x="304" y="1474" on="0"/>
        <pt x="360" y="1412" on="0"/>
        <pt x="360" y="1322" on="0"/>
        <pt x="304" y="1262" on="0"/>
        <pt x="196" y="1262" on="0"/>
        <pt x="141" y="1322" on="0"/>
      </contour>
    </TTGlyph>
    <TTGlyph name="dotbelowcomb" xMin="-712" yMin="-350" xMax="-493" yMax="-138">
      <contour>
        <pt x="-712" y="-245" on="1"/>
        <pt x="-712" y="-200" on="0"/>
        <pt x="-657" y="-138" on="0"/>
        <pt x="-549" y="-138" on="0"/>
        <pt x="-493" y="-200" on="0"/>
        <pt x="-493" y="-290" on="0"/>
        <pt x="-549" y="-350" on="0"/>
        <pt x="-657" y="-350" on="0"/>
        <pt x="-712" y="-290" on="0"/>
      </contour>
    </TTGlyph>
    <TTGlyph name="dotlessi" xMin="155" yMin="0" xMax="341" yMax="1082">
      <contour>
        <pt x="341" y="0" on="1"/>
        <pt x="155" y="0" on="1"/>
        <pt x="155" y="1082" on="1"/>
        <pt x="341" y="1082" on="1"/>
      </contour>
    </TTGlyph>
    <TTGlyph name="e" xMin="93" yMin="-20" xMax="1011" yMax="1102">
      <contour>
        <pt x="589" y="-20" on="1"/>
        <pt x="369" y="-20" on="0"/>
        <pt x="93" y="269" on="0"/>
        <pt x="93" y="511" on="1"/>
        <pt x="93" y="545" on="1"/>
        <pt x="93" y="706" on="0"/>
        <pt x="216" y="959" on="0"/>
        <pt x="437" y="1102" on="0"/>
        <pt x="566" y="1102" on="1"/>
        <pt x="777" y="1102" on="0"/>
        <pt x="1011" y="824" on="0"/>
        <pt x="1011" y="565" on="1"/>
        <pt x="1011" y="488" on="1"/>
        <pt x="278" y="488" on="1"/>
        <pt x="282" y="328" on="0"/>
        <pt x="461" y="131" on="0"/>
        <pt x="599" y="131" on="1"/>
        <pt x="697" y="131" on="0"/>
        <pt x="833" y="211" on="0"/>
        <pt x="884" y="277" on="1"/>
        <pt x="997" y="189" on="1"/>
        <pt x="861" y="-20" on="0"/>
      </contour>
      <contour>
        <pt x="566" y="950" on="1"/>
        <pt x="454" y="950" on="0"/>
        <pt x="302" y="787" on="0"/>
        <pt x="284" y="640" on="1"/>
        <pt x="826" y="640" on="1"/>
        <pt x="826" y="654" on="1"/>
        <pt x="818" y="795" on="0"/>
        <pt x="682" y="950" on="0"/>
      </contour>
    </TTGlyph>
    <TTGlyph name="eacute" xMin="93" yMin="-20" xMax="1011" yMax="1536">
      <component glyphName="e" x="0" y="0" flags="0x204"/>
      <component glyphName="acute" x="340" y="0" flags="0x4"/>
    </TTGlyph>
    <TTGlyph name="ebreve" xMin="93" yMin="-20" xMax="1011" yMax="1496">
      <component glyphName="e" x="0" y="0" flags="0x204"/>
      <component glyphName="breve" x="137" y="1" flags="0x4"/>
    </TTGlyph>
    <TTGlyph name="ecaron" xMin="93" yMin="-20" xMax="1011" yMax="1536">
      <component glyphName="e" x="0" y="0" flags="0x204"/>
      <component glyphName="caron" x="115" y="1" flags="0x4"/>
    </TTGlyph>
    <TTGlyph name="ecircumflex" xMin="93" yMin="-20" xMax="1011" yMax="1536">
      <component glyphName="e" x="0" y="0" flags="0x204"/>
      <component glyphName="circumflex" x="94" y="0" flags="0x4"/>
    </TTGlyph>
    <TTGlyph name="edieresis" xMin="93" yMin="-20" xMax="1011" yMax="1477">
      <component glyphName="e" x="0" y="0" flags="0x204"/>
      <component glyphName="dieresis" x="142" y="0" flags="0x4"/>
    </TTGlyph>
    <TTGlyph name="edotaccent" xMin="93" yMin="-20" xMax="1011" yMax="1474">
      <component glyphName="e" x="0" y="0" flags="0x204"/>
      <component glyphName="dotaccent" x="315" y="0" flags="0x4"/>
    </TTGlyph>
    <TTGlyph name="egrave" xMin="93" yMin="-20" xMax="1011" yMax="1536">
      <component glyphName="e" x="0" y="0" flags="0x204"/>
      <component glyphName="grave" x="197" y="0" flags="0x4"/>
    </TTGlyph>
    <TTGlyph name="eight" xMin="112" yMin="-20" xMax="1038" yMax="1476">
      <contour>
        <pt x="1004" y="1076" on="1"/>
        <pt x="1004" y="967" on="0"/>
        <pt x="889" y="797" on="0"/>
        <pt x="791" y="749" on="1"/>
        <pt x="905" y="700" on="0"/>
        <pt x="1038" y="512" on="0"/>
        <pt x="1038" y="393" on="1"/>
        <pt x="1038" y="204" on="0"/>
        <pt x="783" y="-20" on="0"/>
        <pt x="575" y="-20" on="1"/>
        <pt x="365" y="-20" on="0"/>
        <pt x="112" y="205" on="0"/>
        <pt x="112" y="393" on="1"/>
        <pt x="112" y="511" on="0"/>
        <pt x="241" y="701" on="0"/>
        <pt x="355" y="750" on="1"/>
        <pt x="258" y="798" on="0"/>
        <pt x="146" y="968" on="0"/>
        <pt x="146" y="1076" on="1"/>
        <pt x="146" y="1260" on="0"/>
        <pt x="382" y="1476" on="0"/>
        <pt x="575" y="1476" on="1"/>
        <pt x="767" y="1476" on="0"/>
        <pt x="1004" y="1260" on="0"/>
      </contour>
      <contour>
        <pt x="853" y="397" on="1"/>
        <pt x="853" y="519" on="0"/>
        <pt x="698" y="673" on="0"/>
        <pt x="448" y="673" on="0"/>
        <pt x="297" y="521" on="0"/>
        <pt x="297" y="273" on="0"/>
        <pt x="444" y="131" on="0"/>
        <pt x="575" y="131" on="1"/>
        <pt x="705" y="131" on="0"/>
        <pt x="853" y="274" on="0"/>
      </contour>
      <contour>
        <pt x="575" y="1324" on="1"/>
        <pt x="466" y="1324" on="0"/>
        <pt x="331" y="1189" on="0"/>
        <pt x="331" y="1073" on="1"/>
        <pt x="331" y="962" on="0"/>
        <pt x="464" y="825" on="0"/>
        <pt x="686" y="825" on="0"/>
        <pt x="819" y="962" on="0"/>
        <pt x="819" y="1184" on="0"/>
        <pt x="681" y="1324" on="0"/>
      </contour>
    </TTGlyph>
    <TTGlyph name="ellipsis" xMin="148" yMin="-11" xMax="1230" yMax="209">
      <component glyphName="period" x="4" y="0" flags="0x4"/>
      <component glyphName="period" x="441" y="0" flags="0x4"/>
      <component glyphName="period" x="856" y="0" flags="0x4"/>
    </TTGlyph>
    <TTGlyph name="emacron" xMin="93" yMin="-20" xMax="1011" yMax="1453">
      <component glyphName="e" x="0" y="0" flags="0x204"/>
      <component glyphName="macron" x="92" y="8" flags="0x4"/>
    </TTGlyph>
    <TTGlyph name="emdash" xMin="145" yMin="651" xMax="1481" yMax="802">
      <component glyphName="minus" x="-124" y="0" scalex="1.6" scaley="1.0" flags="0x4"/>
    </TTGlyph>
    <TTGlyph name="endash" xMin="163" yMin="651" xMax="1165" yMax="802">
      <component glyphName="minus" x="-39" y="0" scalex="1.2" scaley="1.0" flags="0x4"/>
    </TTGlyph>
    <TTGlyph name="eng" xMin="145" yMin="-437" xMax="1008" yMax="1102">
      <contour>
        <pt x="311" y="1082" on="1"/>
        <pt x="324" y="928" on="1"/>
        <pt x="440" y="1102" on="0"/>
        <pt x="643" y="1102" on="1"/>
        <pt x="822" y="1102" on="0"/>
        <pt x="1006" y="894" on="0"/>
        <pt x="1008" y="691" on="1"/>
        <pt x="1008" y="-89" on="1"/>
        <pt x="1008" y="-253" on="0"/>
        <pt x="841" y="-437" on="0"/>
        <pt x="686" y="-437" on="1"/>
        <pt x="625" y="-437" on="0"/>
        <pt x="571" y="-419" on="1"/>
        <pt x="585" y="-262" on="1"/>
        <pt x="620" y="-275" on="0"/>
        <pt x="686" y="-275" on="1"/>
        <pt x="823" y="-275" on="0"/>
        <pt x="823" y="-81" on="1"/>
        <pt x="823" y="678" on="1"/>
        <pt x="823" y="817" on="0"/>
        <pt x="712" y="945" on="0"/>
        <pt x="587" y="945" on="1"/>
        <pt x="412" y="945" on="0"/>
        <pt x="331" y="812" on="1"/>
        <pt x="331" y="0" on="1"/>
        <pt x="145" y="0" on="1"/>
        <pt x="145" y="1082" on="1"/>
      </contour>
    </TTGlyph>
    <TTGlyph name="eogonek" xMin="93" yMin="-408" xMax="1011" yMax="1102">
      <contour>
        <pt x="997" y="189" on="1"/>
        <pt x="926" y="79" on="0"/>
        <pt x="811" y="25" on="1"/>
        <pt x="812" y="25" on="1"/>
        <pt x="754" y="-20" on="1"/>
        <pt x="641" y="-111" on="0"/>
        <pt x="641" y="-197" on="1"/>
        <pt x="641" y="-269" on="0"/>
        <pt x="719" y="-269" on="1"/>
        <pt x="767" y="-269" on="0"/>
        <pt x="819" y="-243" on="1"/>
        <pt x="832" y="-364" on="1"/>
        <pt x="762" y="-408" on="0"/>
        <pt x="672" y="-408" on="1"/>
        <pt x="583" y="-408" on="0"/>
        <pt x="480" y="-304" on="0"/>
        <pt x="480" y="-218" on="1"/>
        <pt x="480" y="-110" on="0"/>
        <pt x="578" y="-20" on="1"/>
        <pt x="360" y="-16" on="0"/>
        <pt x="93" y="273" on="0"/>
        <pt x="93" y="512" on="1"/>
        <pt x="93" y="545" on="1"/>
        <pt x="93" y="706" on="0"/>
        <pt x="216" y="959" on="0"/>
        <pt x="437" y="1102" on="0"/>
        <pt x="566" y="1102" on="1"/>
        <pt x="777" y="1102" on="0"/>
        <pt x="1011" y="824" on="0"/>
        <pt x="1011" y="565" on="1"/>
        <pt x="1011" y="488" on="1"/>
        <pt x="278" y="488" on="1"/>
        <pt x="282" y="328" on="0"/>
        <pt x="461" y="131" on="0"/>
        <pt x="599" y="131" on="1"/>
        <pt x="697" y="131" on="0"/>
        <pt x="833" y="211" on="0"/>
        <pt x="884" y="277" on="1"/>
      </contour>
      <contour>
        <pt x="566" y="950" on="1"/>
        <pt x="454" y="950" on="0"/>
        <pt x="302" y="787" on="0"/>
        <pt x="284" y="640" on="1"/>
        <pt x="826" y="640" on="1"/>
        <pt x="826" y="654" on="1"/>
        <pt x="818" y="795" on="0"/>
        <pt x="682" y="950" on="0"/>
      </contour>
    </TTGlyph>
    <TTGlyph name="epsilon" xMin="99" yMin="-20" xMax="1004" yMax="1101">
      <contour>
        <pt x="286" y="304" on="1"/>
        <pt x="286" y="227" on="0"/>
        <pt x="433" y="129" on="0"/>
        <pt x="551" y="129" on="1"/>
        <pt x="664" y="129" on="0"/>
        <pt x="819" y="239" on="0"/>
        <pt x="819" y="320" on="1"/>
        <pt x="1004" y="320" on="1"/>
        <pt x="1004" y="165" on="0"/>
        <pt x="749" y="-20" on="0"/>
        <pt x="551" y="-20" on="1"/>
        <pt x="347" y="-20" on="0"/>
        <pt x="99" y="157" on="0"/>
        <pt x="99" y="304" on="1"/>
        <pt x="99" y="490" on="0"/>
        <pt x="304" y="556" on="1"/>
        <pt x="216" y="592" on="0"/>
        <pt x="118" y="714" on="0"/>
        <pt x="118" y="787" on="1"/>
        <pt x="118" y="935" on="0"/>
        <pt x="349" y="1101" on="0"/>
        <pt x="551" y="1101" on="1"/>
        <pt x="737" y="1101" on="0"/>
        <pt x="986" y="922" on="0"/>
        <pt x="986" y="780" on="1"/>
        <pt x="801" y="780" on="1"/>
        <pt x="801" y="850" on="0"/>
        <pt x="658" y="951" on="0"/>
        <pt x="551" y="951" on="1"/>
        <pt x="439" y="951" on="0"/>
        <pt x="304" y="860" on="0"/>
        <pt x="304" y="786" on="1"/>
        <pt x="304" y="626" on="0"/>
        <pt x="548" y="626" on="1"/>
        <pt x="744" y="626" on="1"/>
        <pt x="744" y="478" on="1"/>
        <pt x="520" y="478" on="1"/>
        <pt x="286" y="472" on="0"/>
      </contour>
    </TTGlyph>
    <TTGlyph name="epsilontonos" xMin="99" yMin="-20" xMax="1004" yMax="1593">
      <component glyphName="epsilon" x="0" y="0" flags="0x204"/>
      <component glyphName="tonos" x="299" y="-6" flags="0x4"/>
    </TTGlyph>
    <TTGlyph name="equal" xMin="152" yMin="399" xMax="986" yMax="975">
      <contour>
        <pt x="986" y="814" on="1"/>
        <pt x="152" y="814" on="1"/>
        <pt x="152" y="975" on="1"/>
        <pt x="986" y="975" on="1"/>
      </contour>
      <contour>
        <pt x="986" y="399" on="1"/>
        <pt x="152" y="399" on="1"/>
        <pt x="152" y="559" on="1"/>
        <pt x="986" y="559" on="1"/>
      </contour>
    </TTGlyph>
    <TTGlyph name="estimated" xMin="152" yMin="-20" xMax="1171" yMax="1102">
      <contour>
        <pt x="1046" y="94" on="1"/>
        <pt x="863" y="-20" on="0"/>
        <pt x="676" y="-20" on="1"/>
        <pt x="531" y="-20" on="0"/>
        <pt x="287" y="137" on="0"/>
        <pt x="152" y="394" on="0"/>
        <pt x="152" y="541" on="1"/>
        <pt x="152" y="684" on="0"/>
        <pt x="296" y="943" on="0"/>
        <pt x="544" y="1102" on="0"/>
        <pt x="676" y="1102" on="1"/>
        <pt x="809" y="1102" on="0"/>
        <pt x="1036" y="963" on="0"/>
        <pt x="1168" y="720" on="0"/>
        <pt x="1171" y="576" on="1"/>
        <pt x="1171" y="514" on="1"/>
        <pt x="403" y="514" on="1"/>
        <pt x="403" y="186" on="1"/>
        <pt x="522" y="76" on="0"/>
        <pt x="676" y="76" on="1"/>
        <pt x="872" y="76" on="0"/>
        <pt x="1044" y="198" on="1"/>
      </contour>
      <contour>
        <pt x="676" y="1008" on="1"/>
        <pt x="525" y="1008" on="0"/>
        <pt x="403" y="886" on="1"/>
        <pt x="403" y="609" on="1"/>
        <pt x="943" y="609" on="1"/>
        <pt x="943" y="895" on="1"/>
        <pt x="828" y="1008" on="0"/>
      </contour>
    </TTGlyph>
    <TTGlyph name="eta" xMin="145" yMin="-415" xMax="1008" yMax="1102">
      <contour>
        <pt x="312" y="1082" on="1"/>
        <pt x="323" y="946" on="1"/>
        <pt x="443" y="1102" on="0"/>
        <pt x="643" y="1102" on="1"/>
        <pt x="833" y="1102" on="0"/>
        <pt x="1007" y="905" on="0"/>
        <pt x="1008" y="701" on="1"/>
        <pt x="1008" y="-415" on="1"/>
        <pt x="823" y="-415" on="1"/>
        <pt x="823" y="690" on="1"/>
        <pt x="823" y="826" on="0"/>
        <pt x="715" y="950" on="0"/>
        <pt x="587" y="950" on="1"/>
        <pt x="495" y="950" on="0"/>
        <pt x="365" y="863" on="0"/>
        <pt x="331" y="785" on="1"/>
        <pt x="331" y="0" on="1"/>
        <pt x="145" y="0" on="1"/>
        <pt x="145" y="1082" on="1"/>
      </contour>
    </TTGlyph>
    <TTGlyph name="etatonos" xMin="145" yMin="-415" xMax="1008" yMax="1594">
      <component glyphName="eta" x="0" y="0" flags="0x204"/>
      <component glyphName="tonos" x="326" y="-5" flags="0x4"/>
    </TTGlyph>
    <TTGlyph name="eth" xMin="126" yMin="-20" xMax="1069" yMax="1580">
      <contour>
        <pt x="820" y="1301" on="1"/>
        <pt x="1069" y="1037" on="0"/>
        <pt x="1069" y="628" on="1"/>
        <pt x="1069" y="535" on="1"/>
        <pt x="1069" y="377" on="0"/>
        <pt x="952" y="124" on="0"/>
        <pt x="736" y="-20" on="0"/>
        <pt x="602" y="-20" on="1"/>
        <pt x="467" y="-20" on="0"/>
        <pt x="247" y="109" on="0"/>
        <pt x="126" y="333" on="0"/>
        <pt x="126" y="467" on="1"/>
        <pt x="126" y="614" on="0"/>
        <pt x="238" y="847" on="0"/>
        <pt x="445" y="977" on="0"/>
        <pt x="574" y="977" on="1"/>
        <pt x="737" y="977" on="0"/>
        <pt x="858" y="863" on="1"/>
        <pt x="810" y="1058" on="0"/>
        <pt x="669" y="1199" on="1"/>
        <pt x="451" y="1051" on="1"/>
        <pt x="378" y="1150" on="1"/>
        <pt x="570" y="1281" on="1"/>
        <pt x="438" y="1372" on="0"/>
        <pt x="255" y="1421" on="1"/>
        <pt x="312" y="1580" on="1"/>
        <pt x="551" y="1526" on="0"/>
        <pt x="726" y="1387" on="1"/>
        <pt x="915" y="1516" on="1"/>
        <pt x="988" y="1416" on="1"/>
      </contour>
      <contour>
        <pt x="884" y="635" on="1"/>
        <pt x="882" y="691" on="1"/>
        <pt x="849" y="752" on="0"/>
        <pt x="710" y="825" on="0"/>
        <pt x="618" y="825" on="1"/>
        <pt x="473" y="825" on="0"/>
        <pt x="311" y="634" on="0"/>
        <pt x="311" y="467" on="1"/>
        <pt x="311" y="327" on="0"/>
        <pt x="478" y="131" on="0"/>
        <pt x="606" y="131" on="1"/>
        <pt x="731" y="131" on="0"/>
        <pt x="884" y="357" on="0"/>
        <pt x="884" y="541" on="1"/>
      </contour>
    </TTGlyph>
    <TTGlyph name="exclam" xMin="160" yMin="-11" xMax="379" yMax="1456">
      <contour>
        <pt x="347" y="411" on="1"/>
        <pt x="180" y="411" on="1"/>
        <pt x="167" y="1456" on="1"/>
        <pt x="361" y="1456" on="1"/>
      </contour>
      <contour>
        <pt x="160" y="93" on="1"/>
        <pt x="160" y="138" on="0"/>
        <pt x="215" y="199" on="0"/>
        <pt x="323" y="199" on="0"/>
        <pt x="379" y="138" on="0"/>
        <pt x="379" y="48" on="0"/>
        <pt x="323" y="-11" on="0"/>
        <pt x="215" y="-11" on="0"/>
        <pt x="160" y="48" on="0"/>
      </contour>
    </TTGlyph>
    <TTGlyph name="exclamdbl" xMin="160" yMin="-11" xMax="906" yMax="1456">
      <component glyphName="exclam" x="0" y="0" flags="0x4"/>
      <component glyphName="exclam" x="527" y="0" flags="0x4"/>
    </TTGlyph>
    <TTGlyph name="exclamdown" xMin="139" yMin="-360" xMax="358" yMax="1101">
      <contour>
        <pt x="170" y="684" on="1"/>
        <pt x="338" y="684" on="1"/>
        <pt x="351" y="-360" on="1"/>
        <pt x="157" y="-360" on="1"/>
      </contour>
      <contour>
        <pt x="358" y="996" on="1"/>
        <pt x="358" y="951" on="0"/>
        <pt x="303" y="889" on="0"/>
        <pt x="195" y="889" on="0"/>
        <pt x="139" y="951" on="0"/>
        <pt x="139" y="1041" on="0"/>
        <pt x="195" y="1101" on="0"/>
        <pt x="303" y="1101" on="0"/>
        <pt x="358" y="1041" on="0"/>
      </contour>
    </TTGlyph>
    <TTGlyph name="f" xMin="60" yMin="0" xMax="714" yMax="1557">
      <contour>
        <pt x="231" y="0" on="1"/>
        <pt x="231" y="939" on="1"/>
        <pt x="60" y="939" on="1"/>
        <pt x="60" y="1082" on="1"/>
        <pt x="231" y="1082" on="1"/>
        <pt x="231" y="1193" on="1"/>
        <pt x="231" y="1367" on="0"/>
        <pt x="417" y="1557" on="0"/>
        <pt x="587" y="1557" on="1"/>
        <pt x="651" y="1557" on="0"/>
        <pt x="714" y="1540" on="1"/>
        <pt x="704" y="1390" on="1"/>
        <pt x="657" y="1399" on="0"/>
        <pt x="604" y="1399" on="1"/>
        <pt x="514" y="1399" on="0"/>
        <pt x="416" y="1294" on="0"/>
        <pt x="416" y="1196" on="1"/>
        <pt x="416" y="1082" on="1"/>
        <pt x="647" y="1082" on="1"/>
        <pt x="647" y="939" on="1"/>
        <pt x="416" y="939" on="1"/>
        <pt x="416" y="0" on="1"/>
      </contour>
    </TTGlyph>
    <TTGlyph name="five" xMin="154" yMin="-20" xMax="1069" yMax="1456">
      <contour>
        <pt x="206" y="730" on="1"/>
        <pt x="280" y="1456" on="1"/>
        <pt x="1026" y="1456" on="1"/>
        <pt x="1026" y="1285" on="1"/>
        <pt x="437" y="1285" on="1"/>
        <pt x="393" y="888" on="1"/>
        <pt x="500" y="951" on="0"/>
        <pt x="636" y="951" on="1"/>
        <pt x="835" y="951" on="0"/>
        <pt x="1069" y="688" on="0"/>
        <pt x="1069" y="464" on="1"/>
        <pt x="1069" y="239" on="0"/>
        <pt x="826" y="-20" on="0"/>
        <pt x="608" y="-20" on="1"/>
        <pt x="415" y="-20" on="0"/>
        <pt x="171" y="194" on="0"/>
        <pt x="154" y="383" on="1"/>
        <pt x="329" y="383" on="1"/>
        <pt x="346" y="258" on="0"/>
        <pt x="490" y="131" on="0"/>
        <pt x="608" y="131" on="1"/>
        <pt x="737" y="131" on="0"/>
        <pt x="884" y="307" on="0"/>
        <pt x="884" y="462" on="1"/>
        <pt x="884" y="608" on="0"/>
        <pt x="725" y="785" on="0"/>
        <pt x="593" y="785" on="1"/>
        <pt x="472" y="785" on="0"/>
        <pt x="403" y="732" on="1"/>
        <pt x="354" y="692" on="1"/>
      </contour>
    </TTGlyph>
    <TTGlyph name="fiveeighths" xMin="99" yMin="-11" xMax="1609" yMax="1444">
      <component glyphName="glyph00545" x="8" y="655" flags="0x4"/>
      <component glyphName="fraction" x="387" y="0" flags="0x4"/>
      <component glyphName="glyph00548" x="938" y="0" flags="0x4"/>
    </TTGlyph>
    <TTGlyph name="florin" xMin="-28" yMin="-437" xMax="700" yMax="1557">
      <contour>
        <pt x="608" y="939" on="1"/>
        <pt x="405" y="939" on="1"/>
        <pt x="405" y="-87" on="1"/>
        <pt x="405" y="-254" on="0"/>
        <pt x="237" y="-437" on="0"/>
        <pt x="83" y="-437" on="1"/>
        <pt x="22" y="-437" on="0"/>
        <pt x="-28" y="-419" on="1"/>
        <pt x="-14" y="-272" on="1"/>
        <pt x="16" y="-285" on="0"/>
        <pt x="83" y="-285" on="1"/>
        <pt x="148" y="-285" on="0"/>
        <pt x="219" y="-181" on="0"/>
        <pt x="219" y="-89" on="1"/>
        <pt x="219" y="939" on="1"/>
        <pt x="48" y="939" on="1"/>
        <pt x="48" y="1082" on="1"/>
        <pt x="219" y="1082" on="1"/>
        <pt x="219" y="1202" on="1"/>
        <pt x="221" y="1369" on="0"/>
        <pt x="396" y="1557" on="0"/>
        <pt x="557" y="1557" on="1"/>
        <pt x="616" y="1557" on="0"/>
        <pt x="700" y="1536" on="1"/>
        <pt x="678" y="1389" on="1"/>
        <pt x="640" y="1399" on="0"/>
        <pt x="580" y="1399" on="1"/>
        <pt x="409" y="1399" on="0"/>
        <pt x="405" y="1204" on="1"/>
        <pt x="405" y="1082" on="1"/>
        <pt x="608" y="1082" on="1"/>
      </contour>
    </TTGlyph>
    <TTGlyph name="four" xMin="53" yMin="0" xMax="1104" yMax="1456">
      <contour>
        <pt x="902" y="489" on="1"/>
        <pt x="1104" y="489" on="1"/>
        <pt x="1104" y="338" on="1"/>
        <pt x="902" y="338" on="1"/>
        <pt x="902" y="0" on="1"/>
        <pt x="716" y="0" on="1"/>
        <pt x="716" y="338" on="1"/>
        <pt x="53" y="338" on="1"/>
        <pt x="53" y="447" on="1"/>
        <pt x="705" y="1456" on="1"/>
        <pt x="902" y="1456" on="1"/>
      </contour>
      <contour>
        <pt x="263" y="489" on="1"/>
        <pt x="716" y="489" on="1"/>
        <pt x="716" y="1203" on="1"/>
        <pt x="694" y="1163" on="1"/>
      </contour>
    </TTGlyph>
    <TTGlyph name="fraction" xMin="59" yMin="110" xMax="874" yMax="1314">
      <contour>
        <pt x="163" y="110" on="1"/>
        <pt x="59" y="176" on="1"/>
        <pt x="770" y="1314" on="1"/>
        <pt x="874" y="1248" on="1"/>
      </contour>
    </TTGlyph>
    <TTGlyph name="franc" xMin="18" yMin="0" xMax="1071" yMax="1456">
      <component glyphName="F" x="0" y="0" flags="0x204"/>
      <component glyphName="glyph00550" x="-125" y="-385" flags="0x4"/>
    </TTGlyph>
    <TTGlyph name="g" xMin="96" yMin="-426" xMax="1010" yMax="1102">
      <contour>
        <pt x="96" y="550" on="1"/>
        <pt x="96" y="803" on="0"/>
        <pt x="330" y="1102" on="0"/>
        <pt x="523" y="1102" on="1"/>
        <pt x="721" y="1102" on="0"/>
        <pt x="832" y="962" on="1"/>
        <pt x="841" y="1082" on="1"/>
        <pt x="1010" y="1082" on="1"/>
        <pt x="1010" y="26" on="1"/>
        <pt x="1010" y="-184" on="0"/>
        <pt x="761" y="-426" on="0"/>
        <pt x="551" y="-426" on="1"/>
        <pt x="434" y="-426" on="0"/>
        <pt x="210" y="-326" on="0"/>
        <pt x="151" y="-239" on="1"/>
        <pt x="247" y="-128" on="1"/>
        <pt x="366" y="-275" on="0"/>
        <pt x="538" y="-275" on="1"/>
        <pt x="673" y="-275" on="0"/>
        <pt x="824" y="-123" on="0"/>
        <pt x="824" y="15" on="1"/>
        <pt x="824" y="108" on="1"/>
        <pt x="713" y="-20" on="0"/>
        <pt x="521" y="-20" on="1"/>
        <pt x="331" y="-20" on="0"/>
        <pt x="96" y="286" on="0"/>
      </contour>
      <contour>
        <pt x="282" y="529" on="1"/>
        <pt x="282" y="346" on="0"/>
        <pt x="432" y="137" on="0"/>
        <pt x="567" y="137" on="1"/>
        <pt x="742" y="137" on="0"/>
        <pt x="824" y="296" on="1"/>
        <pt x="824" y="790" on="1"/>
        <pt x="739" y="945" on="0"/>
        <pt x="569" y="945" on="1"/>
        <pt x="434" y="945" on="0"/>
        <pt x="282" y="735" on="0"/>
      </contour>
    </TTGlyph>
    <TTGlyph name="gamma" xMin="46" yMin="-416" xMax="991" yMax="1082">
      <contour>
        <pt x="522" y="276" on="1"/>
        <pt x="802" y="1082" on="1"/>
        <pt x="991" y="1082" on="1"/>
        <pt x="612" y="57" on="1"/>
        <pt x="612" y="-416" on="1"/>
        <pt x="426" y="-416" on="1"/>
        <pt x="426" y="64" on="1"/>
        <pt x="46" y="1082" on="1"/>
        <pt x="235" y="1082" on="1"/>
      </contour>
    </TTGlyph>
    <TTGlyph name="gbreve" xMin="96" yMin="-426" xMax="1010" yMax="1496">
      <component glyphName="g" x="0" y="0" flags="0x204"/>
      <component glyphName="breve" x="128" y="1" flags="0x4"/>
    </TTGlyph>
    <TTGlyph name="gcircumflex" xMin="96" yMin="-426" xMax="1010" yMax="1536">
      <component glyphName="g" x="0" y="0" flags="0x204"/>
      <component glyphName="circumflex" x="85" y="0" flags="0x4"/>
    </TTGlyph>
    <TTGlyph name="gdotaccent" xMin="96" yMin="-426" xMax="1010" yMax="1474">
      <component glyphName="g" x="0" y="0" flags="0x204"/>
      <component glyphName="dotaccent" x="306" y="0" flags="0x4"/>
    </TTGlyph>
    <TTGlyph name="germandbls" xMin="139" yMin="-20" xMax="1130" yMax="1554">
      <contour>
        <pt x="324" y="0" on="1"/>
        <pt x="139" y="0" on="1"/>
        <pt x="139" y="1111" on="1"/>
        <pt x="139" y="1319" on="0"/>
        <pt x="346" y="1554" on="0"/>
        <pt x="532" y="1554" on="1"/>
        <pt x="712" y="1554" on="0"/>
        <pt x="909" y="1375" on="0"/>
        <pt x="909" y="1216" on="1"/>
        <pt x="909" y="1091" on="0"/>
        <pt x="781" y="888" on="0"/>
        <pt x="781" y="819" on="1"/>
        <pt x="781" y="768" on="0"/>
        <pt x="856" y="673" on="0"/>
        <pt x="1044" y="529" on="0"/>
        <pt x="1130" y="393" on="0"/>
        <pt x="1130" y="317" on="1"/>
        <pt x="1130" y="158" on="0"/>
        <pt x="927" y="-20" on="0"/>
        <pt x="745" y="-20" on="1"/>
        <pt x="664" y="-20" on="0"/>
        <pt x="483" y="24" on="0"/>
        <pt x="445" y="52" on="1"/>
        <pt x="488" y="207" on="1"/>
        <pt x="537" y="175" on="0"/>
        <pt x="672" y="131" on="0"/>
        <pt x="725" y="131" on="1"/>
        <pt x="832" y="131" on="0"/>
        <pt x="945" y="225" on="0"/>
        <pt x="945" y="307" on="1"/>
        <pt x="945" y="359" on="0"/>
        <pt x="871" y="455" on="0"/>
        <pt x="682" y="602" on="0"/>
        <pt x="595" y="740" on="0"/>
        <pt x="595" y="821" on="1"/>
        <pt x="595" y="910" on="0"/>
        <pt x="734" y="1117" on="0"/>
        <pt x="734" y="1201" on="1"/>
        <pt x="734" y="1295" on="0"/>
        <pt x="630" y="1402" on="0"/>
        <pt x="542" y="1402" on="1"/>
        <pt x="324" y="1402" on="0"/>
        <pt x="324" y="1109" on="1"/>
      </contour>
    </TTGlyph>
    <TTGlyph name="glyph00369" xMin="111" yMin="1136" xMax="713" yMax="1494">
      <contour>
        <pt x="401" y="1172" on="1"/>
        <pt x="517" y="1494" on="1"/>
        <pt x="713" y="1494" on="1"/>
        <pt x="713" y="1473" on="1"/>
        <pt x="490" y="1156" on="1"/>
        <pt x="401" y="1156" on="1"/>
      </contour>
      <contour>
        <pt x="111" y="1494" on="1"/>
        <pt x="279" y="1494" on="1"/>
        <pt x="279" y="1403" on="1"/>
        <pt x="282" y="1280" on="0"/>
        <pt x="362" y="1195" on="1"/>
        <pt x="289" y="1136" on="1"/>
        <pt x="111" y="1231" on="0"/>
        <pt x="111" y="1418" on="1"/>
      </contour>
    </TTGlyph>
    <TTGlyph name="glyph00443" xMin="60" yMin="0" xMax="1270" yMax="1557">
      <component glyphName="f" x="0" y="0" flags="0x4"/>
      <component glyphName="f" x="556" y="0" flags="0x4"/>
    </TTGlyph>
    <TTGlyph name="glyph00448" xMin="60" yMin="-20" xMax="1179" yMax="1557">
      <contour>
        <pt x="1174" y="939" on="1"/>
        <pt x="972" y="939" on="1"/>
        <pt x="972" y="268" on="1"/>
        <pt x="972" y="203" on="0"/>
        <pt x="1026" y="138" on="0"/>
        <pt x="1091" y="138" on="1"/>
        <pt x="1126" y="138" on="0"/>
        <pt x="1178" y="150" on="1"/>
        <pt x="1179" y="0" on="1"/>
        <pt x="1106" y="-20" on="0"/>
        <pt x="1036" y="-20" on="1"/>
        <pt x="912" y="-20" on="0"/>
        <pt x="786" y="130" on="0"/>
        <pt x="786" y="268" on="1"/>
        <pt x="786" y="939" on="1"/>
        <pt x="589" y="939" on="1"/>
        <pt x="589" y="1082" on="1"/>
        <pt x="786" y="1082" on="1"/>
        <pt x="786" y="1369" on="1"/>
        <pt x="725" y="1397" on="0"/>
        <pt x="623" y="1404" on="1"/>
        <pt x="599" y="1405" on="1"/>
        <pt x="416" y="1405" on="0"/>
        <pt x="416" y="1184" on="1"/>
        <pt x="416" y="0" on="1"/>
        <pt x="231" y="0" on="1"/>
        <pt x="231" y="939" on="1"/>
        <pt x="60" y="939" on="1"/>
        <pt x="60" y="1082" on="1"/>
        <pt x="231" y="1082" on="1"/>
        <pt x="231" y="1194" on="1"/>
        <pt x="231" y="1367" on="0"/>
        <pt x="410" y="1557" on="0"/>
        <pt x="570" y="1557" on="1"/>
        <pt x="663" y="1557" on="0"/>
        <pt x="882" y="1500" on="0"/>
        <pt x="972" y="1456" on="1"/>
        <pt x="972" y="1082" on="1"/>
        <pt x="1174" y="1082" on="1"/>
      </contour>
    </TTGlyph>
    <TTGlyph name="glyph00449" xMin="95" yMin="-20" xMax="1620" yMax="1553">
      <contour>
        <pt x="1615" y="939" on="1"/>
        <pt x="1413" y="939" on="1"/>
        <pt x="1413" y="297" on="1"/>
        <pt x="1413" y="138" on="0"/>
        <pt x="1532" y="138" on="1"/>
        <pt x="1567" y="138" on="0"/>
        <pt x="1619" y="150" on="1"/>
        <pt x="1620" y="0" on="1"/>
        <pt x="1543" y="-20" on="0"/>
        <pt x="1477" y="-20" on="1"/>
        <pt x="1359" y="-20" on="0"/>
        <pt x="1227" y="146" on="0"/>
        <pt x="1227" y="297" on="1"/>
        <pt x="1227" y="939" on="1"/>
        <pt x="1039" y="939" on="1"/>
        <pt x="1039" y="1082" on="1"/>
        <pt x="1227" y="1082" on="1"/>
        <pt x="1227" y="1167" on="1"/>
        <pt x="1227" y="1281" on="0"/>
        <pt x="1125" y="1398" on="0"/>
        <pt x="1027" y="1398" on="1"/>
        <pt x="939" y="1398" on="0"/>
        <pt x="847" y="1310" on="0"/>
        <pt x="847" y="1240" on="1"/>
        <pt x="847" y="1181" on="0"/>
        <pt x="878" y="1076" on="0"/>
        <pt x="915" y="964" on="0"/>
        <pt x="945" y="840" on="0"/>
        <pt x="945" y="764" on="1"/>
        <pt x="759" y="764" on="1"/>
        <pt x="759" y="840" on="0"/>
        <pt x="630" y="950" on="0"/>
        <pt x="532" y="950" on="1"/>
        <pt x="431" y="950" on="0"/>
        <pt x="317" y="862" on="0"/>
        <pt x="317" y="791" on="1"/>
        <pt x="317" y="724" on="0"/>
        <pt x="423" y="656" on="0"/>
        <pt x="700" y="594" on="0"/>
        <pt x="872" y="508" on="0"/>
        <pt x="955" y="387" on="0"/>
        <pt x="955" y="300" on="1"/>
        <pt x="955" y="155" on="0"/>
        <pt x="723" y="-20" on="0"/>
        <pt x="538" y="-20" on="1"/>
        <pt x="408" y="-20" on="0"/>
        <pt x="208" y="72" on="0"/>
        <pt x="95" y="237" on="0"/>
        <pt x="95" y="333" on="1"/>
        <pt x="280" y="333" on="1"/>
        <pt x="285" y="240" on="0"/>
        <pt x="424" y="131" on="0"/>
        <pt x="538" y="131" on="1"/>
        <pt x="643" y="131" on="0"/>
        <pt x="770" y="216" on="0"/>
        <pt x="770" y="287" on="1"/>
        <pt x="770" y="362" on="0"/>
        <pt x="657" y="445" on="0"/>
        <pt x="376" y="505" on="0"/>
        <pt x="211" y="589" on="0"/>
        <pt x="132" y="705" on="0"/>
        <pt x="132" y="785" on="1"/>
        <pt x="132" y="918" on="0"/>
        <pt x="357" y="1102" on="0"/>
        <pt x="532" y="1102" on="1"/>
        <pt x="628" y="1102" on="0"/>
        <pt x="714" y="1072" on="1"/>
        <pt x="670" y="1182" on="0"/>
        <pt x="670" y="1264" on="1"/>
        <pt x="670" y="1388" on="0"/>
        <pt x="872" y="1553" on="0"/>
        <pt x="1027" y="1553" on="1"/>
        <pt x="1212" y="1553" on="0"/>
        <pt x="1413" y="1354" on="0"/>
        <pt x="1413" y="1159" on="1"/>
        <pt x="1413" y="1082" on="1"/>
        <pt x="1615" y="1082" on="1"/>
      </contour>
    </TTGlyph>
    <TTGlyph name="glyph00453" xMin="66" yMin="0" xMax="683" yMax="800">
      <contour>
        <pt x="683" y="0" on="1"/>
        <pt x="84" y="0" on="1"/>
        <pt x="84" y="108" on="1"/>
        <pt x="384" y="390" on="1"/>
        <pt x="493" y="492" on="0"/>
        <pt x="493" y="561" on="1"/>
        <pt x="493" y="610" on="0"/>
        <pt x="429" y="671" on="0"/>
        <pt x="369" y="671" on="1"/>
        <pt x="294" y="671" on="0"/>
        <pt x="223" y="595" on="0"/>
        <pt x="223" y="538" on="1"/>
        <pt x="66" y="538" on="1"/>
        <pt x="66" y="652" on="0"/>
        <pt x="233" y="800" on="0"/>
        <pt x="497" y="800" on="0"/>
        <pt x="651" y="673" on="0"/>
        <pt x="651" y="563" on="1"/>
        <pt x="651" y="459" on="0"/>
        <pt x="544" y="352" on="1"/>
        <pt x="460" y="273" on="1"/>
        <pt x="284" y="128" on="1"/>
        <pt x="683" y="128" on="1"/>
      </contour>
    </TTGlyph>
    <TTGlyph name="glyph00454" xMin="122" yMin="0" xMax="495" yMax="789">
      <contour>
        <pt x="495" y="0" on="1"/>
        <pt x="338" y="0" on="1"/>
        <pt x="338" y="601" on="1"/>
        <pt x="122" y="544" on="1"/>
        <pt x="122" y="672" on="1"/>
        <pt x="477" y="789" on="1"/>
        <pt x="495" y="789" on="1"/>
      </contour>
    </TTGlyph>
    <TTGlyph name="glyph00455" xMin="80" yMin="-11" xMax="669" yMax="800">
      <contour>
        <pt x="669" y="325" on="1"/>
        <pt x="669" y="163" on="0"/>
        <pt x="517" y="-11" on="0"/>
        <pt x="376" y="-11" on="1"/>
        <pt x="237" y="-11" on="0"/>
        <pt x="81" y="161" on="0"/>
        <pt x="80" y="321" on="1"/>
        <pt x="80" y="463" on="1"/>
        <pt x="80" y="626" on="0"/>
        <pt x="235" y="800" on="0"/>
        <pt x="374" y="800" on="1"/>
        <pt x="515" y="800" on="0"/>
        <pt x="667" y="628" on="0"/>
        <pt x="669" y="471" on="1"/>
      </contour>
      <contour>
        <pt x="512" y="478" on="1"/>
        <pt x="512" y="670" on="0"/>
        <pt x="374" y="670" on="1"/>
        <pt x="241" y="670" on="0"/>
        <pt x="237" y="490" on="1"/>
        <pt x="237" y="311" on="1"/>
        <pt x="237" y="117" on="0"/>
        <pt x="376" y="117" on="1"/>
        <pt x="508" y="117" on="0"/>
        <pt x="512" y="298" on="1"/>
      </contour>
    </TTGlyph>
    <TTGlyph name="glyph00456" xMin="85" yMin="-6" xMax="922" yMax="1181">
      <contour>
        <pt x="735" y="492" on="1"/>
        <pt x="634" y="382" on="0"/>
        <pt x="463" y="382" on="1"/>
        <pt x="289" y="382" on="0"/>
        <pt x="85" y="597" on="0"/>
        <pt x="85" y="773" on="1"/>
        <pt x="85" y="953" on="0"/>
        <pt x="314" y="1181" on="0"/>
        <pt x="500" y="1181" on="1"/>
        <pt x="698" y="1181" on="0"/>
        <pt x="922" y="927" on="0"/>
        <pt x="922" y="701" on="1"/>
        <pt x="922" y="638" on="1"/>
        <pt x="922" y="319" on="0"/>
        <pt x="614" y="-1" on="0"/>
        <pt x="314" y="-6" on="1"/>
        <pt x="273" y="-6" on="1"/>
        <pt x="273" y="146" on="1"/>
        <pt x="308" y="146" on="1"/>
        <pt x="712" y="153" on="0"/>
      </contour>
      <contour>
        <pt x="497" y="529" on="1"/>
        <pt x="576" y="529" on="0"/>
        <pt x="707" y="608" on="0"/>
        <pt x="737" y="672" on="1"/>
        <pt x="737" y="738" on="1"/>
        <pt x="737" y="870" on="0"/>
        <pt x="605" y="1028" on="0"/>
        <pt x="500" y="1028" on="1"/>
        <pt x="396" y="1028" on="0"/>
        <pt x="269" y="885" on="0"/>
        <pt x="269" y="777" on="1"/>
        <pt x="269" y="668" on="0"/>
        <pt x="393" y="529" on="0"/>
      </contour>
    </TTGlyph>
    <TTGlyph name="glyph00457" xMin="96" yMin="-16" xMax="941" yMax="1181">
      <contour>
        <pt x="912" y="858" on="1"/>
        <pt x="912" y="772" on="0"/>
        <pt x="813" y="637" on="0"/>
        <pt x="728" y="599" on="1"/>
        <pt x="826" y="561" on="0"/>
        <pt x="941" y="414" on="0"/>
        <pt x="941" y="316" on="1"/>
        <pt x="941" y="165" on="0"/>
        <pt x="709" y="-16" on="0"/>
        <pt x="329" y="-16" on="0"/>
        <pt x="96" y="163" on="0"/>
        <pt x="96" y="316" on="1"/>
        <pt x="96" y="415" on="0"/>
        <pt x="209" y="561" on="0"/>
        <pt x="307" y="600" on="1"/>
        <pt x="222" y="638" on="0"/>
        <pt x="126" y="772" on="0"/>
        <pt x="126" y="858" on="1"/>
        <pt x="126" y="1006" on="0"/>
        <pt x="340" y="1181" on="0"/>
        <pt x="694" y="1181" on="0"/>
        <pt x="912" y="1006" on="0"/>
      </contour>
      <contour>
        <pt x="756" y="326" on="1"/>
        <pt x="756" y="412" on="0"/>
        <pt x="625" y="522" on="0"/>
        <pt x="517" y="522" on="1"/>
        <pt x="410" y="522" on="0"/>
        <pt x="282" y="414" on="0"/>
        <pt x="282" y="326" on="1"/>
        <pt x="282" y="235" on="0"/>
        <pt x="409" y="135" on="0"/>
        <pt x="519" y="135" on="1"/>
        <pt x="628" y="135" on="0"/>
        <pt x="756" y="238" on="0"/>
      </contour>
      <contour>
        <pt x="726" y="851" on="1"/>
        <pt x="726" y="929" on="0"/>
        <pt x="610" y="1029" on="0"/>
        <pt x="517" y="1029" on="1"/>
        <pt x="423" y="1029" on="0"/>
        <pt x="313" y="932" on="0"/>
        <pt x="313" y="851" on="1"/>
        <pt x="313" y="771" on="0"/>
        <pt x="424" y="673" on="0"/>
        <pt x="614" y="673" on="0"/>
        <pt x="726" y="772" on="0"/>
      </contour>
    </TTGlyph>
    <TTGlyph name="glyph00458" xMin="66" yMin="0" xMax="960" yMax="1165">
      <contour>
        <pt x="960" y="1060" on="1"/>
        <pt x="424" y="0" on="1"/>
        <pt x="229" y="0" on="1"/>
        <pt x="764" y="1012" on="1"/>
        <pt x="66" y="1012" on="1"/>
        <pt x="66" y="1165" on="1"/>
        <pt x="960" y="1165" on="1"/>
      </contour>
    </TTGlyph>
    <TTGlyph name="glyph00459" xMin="114" yMin="-16" xMax="955" yMax="1171">
      <contour>
        <pt x="768" y="1171" on="1"/>
        <pt x="768" y="1015" on="1"/>
        <pt x="738" y="1015" on="1"/>
        <pt x="538" y="1012" on="0"/>
        <pt x="314" y="828" on="0"/>
        <pt x="300" y="651" on="1"/>
        <pt x="352" y="708" on="0"/>
        <pt x="502" y="771" on="0"/>
        <pt x="580" y="771" on="1"/>
        <pt x="754" y="771" on="0"/>
        <pt x="955" y="556" on="0"/>
        <pt x="955" y="382" on="1"/>
        <pt x="955" y="206" on="0"/>
        <pt x="732" y="-16" on="0"/>
        <pt x="542" y="-16" on="1"/>
        <pt x="348" y="-16" on="0"/>
        <pt x="114" y="235" on="0"/>
        <pt x="114" y="447" on="1"/>
        <pt x="114" y="522" on="1"/>
        <pt x="114" y="841" on="0"/>
        <pt x="434" y="1171" on="0"/>
        <pt x="750" y="1171" on="1"/>
      </contour>
      <contour>
        <pt x="542" y="619" on="1"/>
        <pt x="462" y="619" on="0"/>
        <pt x="331" y="542" on="0"/>
        <pt x="299" y="478" on="1"/>
        <pt x="299" y="438" on="1"/>
        <pt x="299" y="300" on="0"/>
        <pt x="436" y="136" on="0"/>
        <pt x="646" y="136" on="0"/>
        <pt x="772" y="269" on="0"/>
        <pt x="772" y="485" on="0"/>
        <pt x="649" y="619" on="0"/>
      </contour>
    </TTGlyph>
    <TTGlyph name="glyph00460" xMin="128" yMin="-16" xMax="965" yMax="1165">
      <contour>
        <pt x="164" y="579" on="1"/>
        <pt x="233" y="1165" on="1"/>
        <pt x="913" y="1165" on="1"/>
        <pt x="913" y="1003" on="1"/>
        <pt x="389" y="1003" on="1"/>
        <pt x="352" y="714" on="1"/>
        <pt x="451" y="762" on="0"/>
        <pt x="566" y="762" on="1"/>
        <pt x="750" y="762" on="0"/>
        <pt x="965" y="552" on="0"/>
        <pt x="965" y="372" on="1"/>
        <pt x="965" y="194" on="0"/>
        <pt x="742" y="-16" on="0"/>
        <pt x="546" y="-16" on="1"/>
        <pt x="375" y="-16" on="0"/>
        <pt x="141" y="161" on="0"/>
        <pt x="128" y="312" on="1"/>
        <pt x="306" y="312" on="1"/>
        <pt x="320" y="221" on="0"/>
        <pt x="448" y="135" on="0"/>
        <pt x="546" y="135" on="1"/>
        <pt x="658" y="135" on="0"/>
        <pt x="779" y="265" on="0"/>
        <pt x="779" y="378" on="1"/>
        <pt x="779" y="484" on="0"/>
        <pt x="639" y="611" on="0"/>
        <pt x="524" y="611" on="1"/>
        <pt x="419" y="611" on="0"/>
        <pt x="353" y="569" on="1"/>
        <pt x="312" y="542" on="1"/>
      </contour>
    </TTGlyph>
    <TTGlyph name="glyph00461" xMin="48" yMin="0" xMax="996" yMax="1165">
      <contour>
        <pt x="821" y="413" on="1"/>
        <pt x="996" y="413" on="1"/>
        <pt x="996" y="262" on="1"/>
        <pt x="821" y="262" on="1"/>
        <pt x="821" y="0" on="1"/>
        <pt x="635" y="0" on="1"/>
        <pt x="635" y="262" on="1"/>
        <pt x="51" y="262" on="1"/>
        <pt x="48" y="377" on="1"/>
        <pt x="626" y="1165" on="1"/>
        <pt x="821" y="1165" on="1"/>
      </contour>
      <contour>
        <pt x="246" y="413" on="1"/>
        <pt x="635" y="413" on="1"/>
        <pt x="635" y="921" on="1"/>
        <pt x="609" y="874" on="1"/>
      </contour>
    </TTGlyph>
    <TTGlyph name="glyph00462" xMin="78" yMin="-16" xMax="927" yMax="1181">
      <contour>
        <pt x="352" y="667" on="1"/>
        <pt x="474" y="667" on="1"/>
        <pt x="592" y="667" on="0"/>
        <pt x="721" y="766" on="0"/>
        <pt x="721" y="850" on="1"/>
        <pt x="721" y="933" on="0"/>
        <pt x="613" y="1029" on="0"/>
        <pt x="501" y="1029" on="1"/>
        <pt x="403" y="1029" on="0"/>
        <pt x="276" y="938" on="0"/>
        <pt x="276" y="861" on="1"/>
        <pt x="91" y="861" on="1"/>
        <pt x="91" y="1001" on="0"/>
        <pt x="321" y="1181" on="0"/>
        <pt x="500" y="1181" on="1"/>
        <pt x="688" y="1181" on="0"/>
        <pt x="906" y="1006" on="0"/>
        <pt x="906" y="850" on="1"/>
        <pt x="906" y="771" on="0"/>
        <pt x="805" y="634" on="0"/>
        <pt x="714" y="597" on="1"/>
        <pt x="927" y="533" on="0"/>
        <pt x="927" y="324" on="1"/>
        <pt x="927" y="170" on="0"/>
        <pt x="694" y="-16" on="0"/>
        <pt x="501" y="-16" on="1"/>
        <pt x="312" y="-16" on="0"/>
        <pt x="78" y="163" on="0"/>
        <pt x="78" y="313" on="1"/>
        <pt x="263" y="313" on="1"/>
        <pt x="263" y="234" on="0"/>
        <pt x="394" y="135" on="0"/>
        <pt x="502" y="135" on="1"/>
        <pt x="614" y="135" on="0"/>
        <pt x="741" y="233" on="0"/>
        <pt x="741" y="324" on="1"/>
        <pt x="741" y="519" on="0"/>
        <pt x="465" y="519" on="1"/>
        <pt x="352" y="519" on="1"/>
      </contour>
    </TTGlyph>
    <TTGlyph name="glyph00463" xMin="78" yMin="0" xMax="970" yMax="1181">
      <contour>
        <pt x="970" y="0" on="1"/>
        <pt x="105" y="0" on="1"/>
        <pt x="105" y="131" on="1"/>
        <pt x="532" y="544" on="1"/>
        <pt x="635" y="638" on="0"/>
        <pt x="728" y="777" on="0"/>
        <pt x="728" y="842" on="1"/>
        <pt x="728" y="924" on="0"/>
        <pt x="612" y="1029" on="0"/>
        <pt x="518" y="1029" on="1"/>
        <pt x="397" y="1029" on="0"/>
        <pt x="264" y="917" on="0"/>
        <pt x="264" y="810" on="1"/>
        <pt x="78" y="810" on="1"/>
        <pt x="78" y="975" on="0"/>
        <pt x="323" y="1181" on="0"/>
        <pt x="518" y="1181" on="1"/>
        <pt x="700" y="1181" on="0"/>
        <pt x="914" y="995" on="0"/>
        <pt x="914" y="846" on="1"/>
        <pt x="914" y="765" on="0"/>
        <pt x="815" y="591" on="0"/>
        <pt x="660" y="430" on="1"/>
        <pt x="332" y="151" on="1"/>
        <pt x="970" y="151" on="1"/>
      </contour>
    </TTGlyph>
    <TTGlyph name="glyph00464" xMin="152" yMin="0" xMax="669" yMax="1168">
      <contour>
        <pt x="669" y="0" on="1"/>
        <pt x="483" y="0" on="1"/>
        <pt x="483" y="943" on="1"/>
        <pt x="152" y="844" on="1"/>
        <pt x="152" y="1003" on="1"/>
        <pt x="643" y="1168" on="1"/>
        <pt x="669" y="1168" on="1"/>
      </contour>
    </TTGlyph>
    <TTGlyph name="glyph00465" xMin="99" yMin="-16" xMax="939" yMax="1181">
      <contour>
        <pt x="939" y="497" on="1"/>
        <pt x="939" y="249" on="0"/>
        <pt x="723" y="-16" on="0"/>
        <pt x="520" y="-16" on="1"/>
        <pt x="319" y="-16" on="0"/>
        <pt x="101" y="245" on="0"/>
        <pt x="99" y="489" on="1"/>
        <pt x="99" y="671" on="1"/>
        <pt x="99" y="920" on="0"/>
        <pt x="316" y="1181" on="0"/>
        <pt x="518" y="1181" on="1"/>
        <pt x="721" y="1181" on="0"/>
        <pt x="936" y="923" on="0"/>
        <pt x="939" y="684" on="1"/>
      </contour>
      <contour>
        <pt x="753" y="699" on="1"/>
        <pt x="753" y="1028" on="0"/>
        <pt x="518" y="1028" on="1"/>
        <pt x="284" y="1028" on="0"/>
        <pt x="284" y="695" on="1"/>
        <pt x="284" y="470" on="1"/>
        <pt x="284" y="303" on="0"/>
        <pt x="406" y="135" on="0"/>
        <pt x="520" y="135" on="1"/>
        <pt x="753" y="135" on="0"/>
        <pt x="753" y="474" on="1"/>
      </contour>
    </TTGlyph>
    <TTGlyph name="glyph00466" xMin="71" yMin="0" xMax="992" yMax="1165">
      <contour>
        <pt x="303" y="151" on="1"/>
        <pt x="992" y="151" on="1"/>
        <pt x="992" y="0" on="1"/>
        <pt x="71" y="0" on="1"/>
        <pt x="71" y="124" on="1"/>
        <pt x="735" y="1012" on="1"/>
        <pt x="80" y="1012" on="1"/>
        <pt x="80" y="1165" on="1"/>
        <pt x="968" y="1165" on="1"/>
        <pt x="968" y="1044" on="1"/>
      </contour>
    </TTGlyph>
    <TTGlyph name="glyph00467" xMin="13" yMin="0" xMax="1052" yMax="1165">
      <contour>
        <pt x="532" y="586" on="1"/>
        <pt x="844" y="1165" on="1"/>
        <pt x="1052" y="1165" on="1"/>
        <pt x="622" y="407" on="1"/>
        <pt x="622" y="0" on="1"/>
        <pt x="437" y="0" on="1"/>
        <pt x="437" y="418" on="1"/>
        <pt x="13" y="1165" on="1"/>
        <pt x="221" y="1165" on="1"/>
      </contour>
    </TTGlyph>
    <TTGlyph name="glyph00468" xMin="38" yMin="0" xMax="1073" yMax="1165">
      <contour>
        <pt x="552" y="730" on="1"/>
        <pt x="839" y="1165" on="1"/>
        <pt x="1059" y="1165" on="1"/>
        <pt x="664" y="587" on="1"/>
        <pt x="1073" y="0" on="1"/>
        <pt x="853" y="0" on="1"/>
        <pt x="554" y="443" on="1"/>
        <pt x="258" y="0" on="1"/>
        <pt x="38" y="0" on="1"/>
        <pt x="444" y="587" on="1"/>
        <pt x="47" y="1165" on="1"/>
        <pt x="266" y="1165" on="1"/>
      </contour>
    </TTGlyph>
    <TTGlyph name="glyph00469" xMin="49" yMin="0" xMax="1521" yMax="1165">
      <contour>
        <pt x="431" y="294" on="1"/>
        <pt x="442" y="214" on="1"/>
        <pt x="457" y="278" on="1"/>
        <pt x="705" y="1165" on="1"/>
        <pt x="870" y="1165" on="1"/>
        <pt x="1114" y="275" on="1"/>
        <pt x="1127" y="216" on="1"/>
        <pt x="1139" y="296" on="1"/>
        <pt x="1337" y="1165" on="1"/>
        <pt x="1521" y="1165" on="1"/>
        <pt x="1223" y="0" on="1"/>
        <pt x="1049" y="0" on="1"/>
        <pt x="789" y="917" on="1"/>
        <pt x="788" y="922" on="1"/>
        <pt x="787" y="917" on="1"/>
        <pt x="519" y="0" on="1"/>
        <pt x="346" y="0" on="1"/>
        <pt x="49" y="1165" on="1"/>
        <pt x="232" y="1165" on="1"/>
      </contour>
    </TTGlyph>
    <TTGlyph name="glyph00470" xMin="20" yMin="0" xMax="1107" yMax="1165">
      <contour>
        <pt x="538" y="292" on="1"/>
        <pt x="563" y="198" on="1"/>
        <pt x="589" y="290" on="1"/>
        <pt x="909" y="1165" on="1"/>
        <pt x="1107" y="1165" on="1"/>
        <pt x="650" y="0" on="1"/>
        <pt x="477" y="0" on="1"/>
        <pt x="20" y="1165" on="1"/>
        <pt x="219" y="1165" on="1"/>
      </contour>
    </TTGlyph>
    <TTGlyph name="glyph00471" xMin="116" yMin="-16" xMax="1034" yMax="1165">
      <contour>
        <pt x="1034" y="1165" on="1"/>
        <pt x="1034" y="385" on="1"/>
        <pt x="1034" y="203" on="0"/>
        <pt x="784" y="-16" on="0"/>
        <pt x="575" y="-16" on="1"/>
        <pt x="365" y="-16" on="0"/>
        <pt x="119" y="195" on="0"/>
        <pt x="116" y="377" on="1"/>
        <pt x="116" y="1165" on="1"/>
        <pt x="299" y="1165" on="1"/>
        <pt x="299" y="385" on="1"/>
        <pt x="299" y="264" on="0"/>
        <pt x="442" y="135" on="0"/>
        <pt x="575" y="135" on="1"/>
        <pt x="706" y="135" on="0"/>
        <pt x="849" y="262" on="0"/>
        <pt x="849" y="385" on="1"/>
        <pt x="849" y="1165" on="1"/>
      </contour>
    </TTGlyph>
    <TTGlyph name="glyph00472" xMin="40" yMin="0" xMax="1021" yMax="1165">
      <contour>
        <pt x="1021" y="1012" on="1"/>
        <pt x="622" y="1012" on="1"/>
        <pt x="622" y="0" on="1"/>
        <pt x="437" y="0" on="1"/>
        <pt x="437" y="1012" on="1"/>
        <pt x="40" y="1012" on="1"/>
        <pt x="40" y="1165" on="1"/>
        <pt x="1021" y="1165" on="1"/>
      </contour>
    </TTGlyph>
    <TTGlyph name="glyph00473" xMin="67" yMin="-16" xMax="989" yMax="1181">
      <contour>
        <pt x="803" y="298" on="1"/>
        <pt x="803" y="378" on="0"/>
        <pt x="682" y="466" on="0"/>
        <pt x="388" y="540" on="0"/>
        <pt x="302" y="583" on="1"/>
        <pt x="107" y="681" on="0"/>
        <pt x="107" y="860" on="1"/>
        <pt x="107" y="1003" on="0"/>
        <pt x="350" y="1181" on="0"/>
        <pt x="541" y="1181" on="1"/>
        <pt x="737" y="1181" on="0"/>
        <pt x="986" y="981" on="0"/>
        <pt x="986" y="825" on="1"/>
        <pt x="801" y="825" on="1"/>
        <pt x="801" y="923" on="0"/>
        <pt x="660" y="1030" on="0"/>
        <pt x="539" y="1030" on="1"/>
        <pt x="426" y="1030" on="0"/>
        <pt x="292" y="941" on="0"/>
        <pt x="292" y="861" on="1"/>
        <pt x="292" y="796" on="0"/>
        <pt x="415" y="708" on="0"/>
        <pt x="727" y="628" on="0"/>
        <pt x="903" y="527" on="0"/>
        <pt x="989" y="391" on="0"/>
        <pt x="989" y="300" on="1"/>
        <pt x="989" y="153" on="0"/>
        <pt x="746" y="-16" on="0"/>
        <pt x="547" y="-16" on="1"/>
        <pt x="340" y="-16" on="0"/>
        <pt x="67" y="187" on="0"/>
        <pt x="67" y="349" on="1"/>
        <pt x="253" y="349" on="1"/>
        <pt x="253" y="247" on="0"/>
        <pt x="407" y="133" on="0"/>
        <pt x="547" y="133" on="1"/>
        <pt x="673" y="133" on="0"/>
        <pt x="803" y="224" on="0"/>
      </contour>
    </TTGlyph>
    <TTGlyph name="glyph00474" xMin="138" yMin="0" xMax="1061" yMax="1165">
      <contour>
        <pt x="602" y="449" on="1"/>
        <pt x="323" y="449" on="1"/>
        <pt x="323" y="0" on="1"/>
        <pt x="138" y="0" on="1"/>
        <pt x="138" y="1165" on="1"/>
        <pt x="564" y="1165" on="1"/>
        <pt x="777" y="1165" on="0"/>
        <pt x="1008" y="979" on="0"/>
        <pt x="1008" y="809" on="1"/>
        <pt x="1008" y="581" on="0"/>
        <pt x="773" y="492" on="1"/>
        <pt x="1061" y="10" on="1"/>
        <pt x="1061" y="0" on="1"/>
        <pt x="863" y="0" on="1"/>
      </contour>
      <contour>
        <pt x="323" y="600" on="1"/>
        <pt x="569" y="600" on="1"/>
        <pt x="686" y="600" on="0"/>
        <pt x="823" y="709" on="0"/>
        <pt x="823" y="802" on="1"/>
        <pt x="823" y="902" on="0"/>
        <pt x="689" y="1012" on="0"/>
        <pt x="563" y="1012" on="1"/>
        <pt x="323" y="1012" on="1"/>
      </contour>
    </TTGlyph>
    <TTGlyph name="glyph00475" xMin="89" yMin="-202" xMax="1111" yMax="1181">
      <contour>
        <pt x="1109" y="548" on="1"/>
        <pt x="1109" y="382" on="0"/>
        <pt x="997" y="139" on="0"/>
        <pt x="895" y="69" on="1"/>
        <pt x="1111" y="-91" on="1"/>
        <pt x="987" y="-202" on="1"/>
        <pt x="724" y="-3" on="1"/>
        <pt x="670" y="-16" on="0"/>
        <pt x="600" y="-16" on="1"/>
        <pt x="372" y="-16" on="0"/>
        <pt x="89" y="289" on="0"/>
        <pt x="89" y="553" on="1"/>
        <pt x="89" y="615" on="1"/>
        <pt x="89" y="784" on="0"/>
        <pt x="216" y="1043" on="0"/>
        <pt x="448" y="1181" on="0"/>
        <pt x="598" y="1181" on="1"/>
        <pt x="832" y="1181" on="0"/>
        <pt x="1109" y="874" on="0"/>
        <pt x="1109" y="611" on="1"/>
      </contour>
      <contour>
        <pt x="926" y="617" on="1"/>
        <pt x="926" y="815" on="0"/>
        <pt x="754" y="1025" on="0"/>
        <pt x="598" y="1025" on="1"/>
        <pt x="450" y="1025" on="0"/>
        <pt x="278" y="818" on="0"/>
        <pt x="274" y="633" on="1"/>
        <pt x="274" y="548" on="1"/>
        <pt x="274" y="354" on="0"/>
        <pt x="448" y="138" on="0"/>
        <pt x="600" y="138" on="1"/>
        <pt x="756" y="138" on="0"/>
        <pt x="926" y="349" on="0"/>
        <pt x="926" y="548" on="1"/>
      </contour>
    </TTGlyph>
    <TTGlyph name="glyph00476" xMin="138" yMin="0" xMax="1051" yMax="1165">
      <contour>
        <pt x="323" y="438" on="1"/>
        <pt x="323" y="0" on="1"/>
        <pt x="138" y="0" on="1"/>
        <pt x="138" y="1165" on="1"/>
        <pt x="605" y="1165" on="1"/>
        <pt x="809" y="1165" on="0"/>
        <pt x="1051" y="966" on="0"/>
        <pt x="1051" y="798" on="1"/>
        <pt x="1051" y="628" on="0"/>
        <pt x="817" y="438" on="0"/>
        <pt x="603" y="438" on="1"/>
      </contour>
      <contour>
        <pt x="323" y="590" on="1"/>
        <pt x="605" y="590" on="1"/>
        <pt x="729" y="590" on="0"/>
        <pt x="865" y="696" on="0"/>
        <pt x="865" y="796" on="1"/>
        <pt x="865" y="892" on="0"/>
        <pt x="729" y="1011" on="0"/>
        <pt x="610" y="1012" on="1"/>
        <pt x="323" y="1012" on="1"/>
      </contour>
    </TTGlyph>
    <TTGlyph name="glyph00477" xMin="96" yMin="-16" xMax="1114" yMax="1181">
      <contour>
        <pt x="1114" y="548" on="1"/>
        <pt x="1114" y="287" on="0"/>
        <pt x="838" y="-16" on="0"/>
        <pt x="606" y="-16" on="1"/>
        <pt x="377" y="-16" on="0"/>
        <pt x="96" y="290" on="0"/>
        <pt x="96" y="553" on="1"/>
        <pt x="96" y="615" on="1"/>
        <pt x="96" y="873" on="0"/>
        <pt x="375" y="1181" on="0"/>
        <pt x="604" y="1181" on="1"/>
        <pt x="837" y="1181" on="0"/>
        <pt x="1112" y="877" on="0"/>
        <pt x="1114" y="622" on="1"/>
      </contour>
      <contour>
        <pt x="931" y="617" on="1"/>
        <pt x="931" y="815" on="0"/>
        <pt x="759" y="1025" on="0"/>
        <pt x="604" y="1025" on="1"/>
        <pt x="454" y="1025" on="0"/>
        <pt x="279" y="811" on="0"/>
        <pt x="279" y="614" on="1"/>
        <pt x="279" y="548" on="1"/>
        <pt x="279" y="353" on="0"/>
        <pt x="455" y="138" on="0"/>
        <pt x="606" y="138" on="1"/>
        <pt x="762" y="138" on="0"/>
        <pt x="931" y="349" on="0"/>
        <pt x="931" y="548" on="1"/>
      </contour>
    </TTGlyph>
    <TTGlyph name="glyph00478" xMin="138" yMin="0" xMax="1112" yMax="1165">
      <contour>
        <pt x="1112" y="0" on="1"/>
        <pt x="928" y="0" on="1"/>
        <pt x="323" y="876" on="1"/>
        <pt x="323" y="0" on="1"/>
        <pt x="138" y="0" on="1"/>
        <pt x="138" y="1165" on="1"/>
        <pt x="323" y="1165" on="1"/>
        <pt x="928" y="288" on="1"/>
        <pt x="928" y="1165" on="1"/>
        <pt x="1112" y="1165" on="1"/>
      </contour>
    </TTGlyph>
    <TTGlyph name="glyph00479" xMin="138" yMin="0" xMax="1399" yMax="1165">
      <contour>
        <pt x="378" y="1165" on="1"/>
        <pt x="769" y="254" on="1"/>
        <pt x="1158" y="1165" on="1"/>
        <pt x="1399" y="1165" on="1"/>
        <pt x="1399" y="0" on="1"/>
        <pt x="1215" y="0" on="1"/>
        <pt x="1215" y="401" on="1"/>
        <pt x="1234" y="934" on="1"/>
        <pt x="836" y="0" on="1"/>
        <pt x="700" y="0" on="1"/>
        <pt x="303" y="930" on="1"/>
        <pt x="322" y="401" on="1"/>
        <pt x="322" y="0" on="1"/>
        <pt x="138" y="0" on="1"/>
        <pt x="138" y="1165" on="1"/>
      </contour>
    </TTGlyph>
    <TTGlyph name="glyph00480" xMin="138" yMin="0" xMax="907" yMax="1165">
      <contour>
        <pt x="323" y="151" on="1"/>
        <pt x="907" y="151" on="1"/>
        <pt x="907" y="0" on="1"/>
        <pt x="138" y="0" on="1"/>
        <pt x="138" y="1165" on="1"/>
        <pt x="323" y="1165" on="1"/>
      </contour>
    </TTGlyph>
    <TTGlyph name="glyph00481" xMin="138" yMin="0" xMax="1111" yMax="1165">
      <contour>
        <pt x="470" y="519" on="1"/>
        <pt x="323" y="377" on="1"/>
        <pt x="323" y="0" on="1"/>
        <pt x="138" y="0" on="1"/>
        <pt x="138" y="1165" on="1"/>
        <pt x="323" y="1165" on="1"/>
        <pt x="323" y="610" on="1"/>
        <pt x="453" y="754" on="1"/>
        <pt x="850" y="1165" on="1"/>
        <pt x="1077" y="1165" on="1"/>
        <pt x="598" y="646" on="1"/>
        <pt x="1111" y="0" on="1"/>
        <pt x="886" y="0" on="1"/>
      </contour>
    </TTGlyph>
    <TTGlyph name="glyph00482" xMin="43" yMin="-16" xMax="845" yMax="1165">
      <contour>
        <pt x="658" y="1165" on="1"/>
        <pt x="845" y="1165" on="1"/>
        <pt x="845" y="338" on="1"/>
        <pt x="845" y="181" on="0"/>
        <pt x="633" y="-16" on="0"/>
        <pt x="456" y="-16" on="1"/>
        <pt x="262" y="-16" on="0"/>
        <pt x="43" y="167" on="0"/>
        <pt x="43" y="331" on="1"/>
        <pt x="229" y="331" on="1"/>
        <pt x="229" y="237" on="0"/>
        <pt x="342" y="135" on="0"/>
        <pt x="456" y="135" on="1"/>
        <pt x="548" y="135" on="0"/>
        <pt x="658" y="244" on="0"/>
        <pt x="658" y="339" on="1"/>
      </contour>
    </TTGlyph>
    <TTGlyph name="glyph00483" xMin="151" yMin="0" xMax="337" yMax="1165">
      <contour>
        <pt x="337" y="0" on="1"/>
        <pt x="151" y="0" on="1"/>
        <pt x="151" y="1165" on="1"/>
        <pt x="337" y="1165" on="1"/>
      </contour>
    </TTGlyph>
    <TTGlyph name="glyph00484" xMin="138" yMin="0" xMax="1112" yMax="1165">
      <contour>
        <pt x="1112" y="0" on="1"/>
        <pt x="927" y="0" on="1"/>
        <pt x="927" y="498" on="1"/>
        <pt x="323" y="498" on="1"/>
        <pt x="323" y="0" on="1"/>
        <pt x="138" y="0" on="1"/>
        <pt x="138" y="1165" on="1"/>
        <pt x="323" y="1165" on="1"/>
        <pt x="323" y="650" on="1"/>
        <pt x="927" y="650" on="1"/>
        <pt x="927" y="1165" on="1"/>
        <pt x="1112" y="1165" on="1"/>
      </contour>
    </TTGlyph>
    <TTGlyph name="glyph00485" xMin="99" yMin="-16" xMax="1077" yMax="1181">
      <contour>
        <pt x="1077" y="150" on="1"/>
        <pt x="1011" y="67" on="0"/>
        <pt x="778" y="-16" on="0"/>
        <pt x="627" y="-16" on="1"/>
        <pt x="389" y="-16" on="0"/>
        <pt x="101" y="282" on="0"/>
        <pt x="99" y="534" on="1"/>
        <pt x="99" y="624" on="1"/>
        <pt x="99" y="886" on="0"/>
        <pt x="366" y="1181" on="0"/>
        <pt x="608" y="1181" on="1"/>
        <pt x="808" y="1181" on="0"/>
        <pt x="1050" y="993" on="0"/>
        <pt x="1077" y="812" on="1"/>
        <pt x="893" y="812" on="1"/>
        <pt x="855" y="1029" on="0"/>
        <pt x="610" y="1029" on="1"/>
        <pt x="451" y="1029" on="0"/>
        <pt x="285" y="823" on="0"/>
        <pt x="285" y="624" on="1"/>
        <pt x="285" y="540" on="1"/>
        <pt x="285" y="350" on="0"/>
        <pt x="470" y="135" on="0"/>
        <pt x="630" y="135" on="1"/>
        <pt x="812" y="135" on="0"/>
        <pt x="893" y="209" on="1"/>
        <pt x="893" y="447" on="1"/>
        <pt x="612" y="447" on="1"/>
        <pt x="612" y="591" on="1"/>
        <pt x="1077" y="591" on="1"/>
      </contour>
    </TTGlyph>
    <TTGlyph name="glyph00486" xMin="138" yMin="0" xMax="923" yMax="1165">
      <contour>
        <pt x="843" y="499" on="1"/>
        <pt x="323" y="499" on="1"/>
        <pt x="323" y="0" on="1"/>
        <pt x="138" y="0" on="1"/>
        <pt x="138" y="1165" on="1"/>
        <pt x="923" y="1165" on="1"/>
        <pt x="923" y="1012" on="1"/>
        <pt x="323" y="1012" on="1"/>
        <pt x="323" y="652" on="1"/>
        <pt x="843" y="652" on="1"/>
      </contour>
    </TTGlyph>
    <TTGlyph name="glyph00487" xMin="67" yMin="-237" xMax="989" yMax="1395">
      <contour>
        <pt x="803" y="298" on="1"/>
        <pt x="803" y="378" on="0"/>
        <pt x="682" y="466" on="0"/>
        <pt x="388" y="540" on="0"/>
        <pt x="302" y="583" on="1"/>
        <pt x="107" y="681" on="0"/>
        <pt x="107" y="860" on="1"/>
        <pt x="107" y="990" on="0"/>
        <pt x="310" y="1162" on="0"/>
        <pt x="476" y="1178" on="1"/>
        <pt x="476" y="1395" on="1"/>
        <pt x="625" y="1395" on="1"/>
        <pt x="625" y="1176" on="1"/>
        <pt x="788" y="1155" on="0"/>
        <pt x="986" y="961" on="0"/>
        <pt x="986" y="825" on="1"/>
        <pt x="801" y="825" on="1"/>
        <pt x="801" y="923" on="0"/>
        <pt x="660" y="1030" on="0"/>
        <pt x="539" y="1030" on="1"/>
        <pt x="426" y="1030" on="0"/>
        <pt x="292" y="941" on="0"/>
        <pt x="292" y="861" on="1"/>
        <pt x="292" y="796" on="0"/>
        <pt x="415" y="708" on="0"/>
        <pt x="727" y="628" on="0"/>
        <pt x="903" y="527" on="0"/>
        <pt x="989" y="391" on="0"/>
        <pt x="989" y="300" on="1"/>
        <pt x="989" y="170" on="0"/>
        <pt x="794" y="4" on="0"/>
        <pt x="625" y="-12" on="1"/>
        <pt x="625" y="-237" on="1"/>
        <pt x="476" y="-237" on="1"/>
        <pt x="476" y="-12" on="1"/>
        <pt x="290" y="7" on="0"/>
        <pt x="67" y="201" on="0"/>
        <pt x="67" y="349" on="1"/>
        <pt x="253" y="349" on="1"/>
        <pt x="253" y="247" on="0"/>
        <pt x="407" y="133" on="0"/>
        <pt x="547" y="133" on="1"/>
        <pt x="673" y="133" on="0"/>
        <pt x="803" y="224" on="0"/>
      </contour>
    </TTGlyph>
    <TTGlyph name="glyph00488" xMin="48" yMin="0" xMax="1007" yMax="1181">
      <contour>
        <pt x="797" y="500" on="1"/>
        <pt x="397" y="500" on="1"/>
        <pt x="398" y="466" on="1"/>
        <pt x="403" y="263" on="0"/>
        <pt x="347" y="152" on="1"/>
        <pt x="1007" y="152" on="1"/>
        <pt x="1006" y="0" on="1"/>
        <pt x="114" y="0" on="1"/>
        <pt x="114" y="152" on="1"/>
        <pt x="124" y="152" on="1"/>
        <pt x="203" y="175" on="0"/>
        <pt x="212" y="396" on="1"/>
        <pt x="213" y="466" on="1"/>
        <pt x="212" y="500" on="1"/>
        <pt x="48" y="500" on="1"/>
        <pt x="48" y="621" on="1"/>
        <pt x="208" y="621" on="1"/>
        <pt x="204" y="744" on="1"/>
        <pt x="198" y="945" on="0"/>
        <pt x="401" y="1181" on="0"/>
        <pt x="582" y="1181" on="1"/>
        <pt x="765" y="1181" on="0"/>
        <pt x="967" y="977" on="0"/>
        <pt x="967" y="794" on="1"/>
        <pt x="782" y="794" on="1"/>
        <pt x="782" y="906" on="0"/>
        <pt x="678" y="1025" on="0"/>
        <pt x="582" y="1025" on="1"/>
        <pt x="489" y="1025" on="0"/>
        <pt x="385" y="882" on="0"/>
        <pt x="389" y="744" on="1"/>
        <pt x="393" y="621" on="1"/>
        <pt x="797" y="621" on="1"/>
      </contour>
    </TTGlyph>
    <TTGlyph name="glyph00489" xMin="13" yMin="0" xMax="914" yMax="1165">
      <contour>
        <pt x="465" y="589" on="1"/>
        <pt x="718" y="1165" on="1"/>
        <pt x="914" y="1165" on="1"/>
        <pt x="614" y="537" on="1"/>
        <pt x="827" y="537" on="1"/>
        <pt x="827" y="416" on="1"/>
        <pt x="556" y="416" on="1"/>
        <pt x="553" y="409" on="1"/>
        <pt x="553" y="341" on="1"/>
        <pt x="827" y="341" on="1"/>
        <pt x="827" y="221" on="1"/>
        <pt x="553" y="221" on="1"/>
        <pt x="553" y="0" on="1"/>
        <pt x="368" y="0" on="1"/>
        <pt x="368" y="221" on="1"/>
        <pt x="94" y="221" on="1"/>
        <pt x="94" y="341" on="1"/>
        <pt x="368" y="341" on="1"/>
        <pt x="368" y="416" on="1"/>
        <pt x="94" y="416" on="1"/>
        <pt x="94" y="537" on="1"/>
        <pt x="313" y="537" on="1"/>
        <pt x="13" y="1165" on="1"/>
        <pt x="212" y="1165" on="1"/>
      </contour>
    </TTGlyph>
    <TTGlyph name="glyph00490" xMin="138" yMin="0" xMax="901" yMax="1165">
      <contour>
        <pt x="901" y="1012" on="1"/>
        <pt x="323" y="1012" on="1"/>
        <pt x="323" y="0" on="1"/>
        <pt x="138" y="0" on="1"/>
        <pt x="138" y="1165" on="1"/>
        <pt x="901" y="1165" on="1"/>
      </contour>
    </TTGlyph>
    <TTGlyph name="glyph00491" xMin="20" yMin="0" xMax="1107" yMax="1165">
      <contour>
        <pt x="1107" y="0" on="1"/>
        <pt x="20" y="0" on="1"/>
        <pt x="477" y="1165" on="1"/>
        <pt x="650" y="1165" on="1"/>
      </contour>
      <contour>
        <pt x="589" y="874" on="1"/>
        <pt x="563" y="966" on="1"/>
        <pt x="538" y="872" on="1"/>
        <pt x="274" y="152" on="1"/>
        <pt x="853" y="152" on="1"/>
      </contour>
    </TTGlyph>
    <TTGlyph name="glyph00492" xMin="96" yMin="-16" xMax="1114" yMax="1181">
      <contour>
        <pt x="853" y="505" on="1"/>
        <pt x="372" y="505" on="1"/>
        <pt x="372" y="658" on="1"/>
        <pt x="853" y="658" on="1"/>
      </contour>
      <contour>
        <pt x="1114" y="548" on="1"/>
        <pt x="1114" y="287" on="0"/>
        <pt x="838" y="-16" on="0"/>
        <pt x="606" y="-16" on="1"/>
        <pt x="377" y="-16" on="0"/>
        <pt x="96" y="290" on="0"/>
        <pt x="96" y="553" on="1"/>
        <pt x="96" y="615" on="1"/>
        <pt x="96" y="873" on="0"/>
        <pt x="375" y="1181" on="0"/>
        <pt x="604" y="1181" on="1"/>
        <pt x="837" y="1181" on="0"/>
        <pt x="1112" y="877" on="0"/>
        <pt x="1114" y="622" on="1"/>
      </contour>
      <contour>
        <pt x="931" y="617" on="1"/>
        <pt x="931" y="815" on="0"/>
        <pt x="759" y="1025" on="0"/>
        <pt x="604" y="1025" on="1"/>
        <pt x="454" y="1025" on="0"/>
        <pt x="279" y="811" on="0"/>
        <pt x="279" y="614" on="1"/>
        <pt x="279" y="548" on="1"/>
        <pt x="279" y="353" on="0"/>
        <pt x="455" y="138" on="0"/>
        <pt x="606" y="138" on="1"/>
        <pt x="762" y="138" on="0"/>
        <pt x="931" y="349" on="0"/>
        <pt x="931" y="548" on="1"/>
      </contour>
    </TTGlyph>
    <TTGlyph name="glyph00493" xMin="20" yMin="0" xMax="1107" yMax="1165">
      <contour>
        <pt x="219" y="0" on="1"/>
        <pt x="20" y="0" on="1"/>
        <pt x="477" y="1165" on="1"/>
        <pt x="650" y="1165" on="1"/>
        <pt x="1107" y="0" on="1"/>
        <pt x="909" y="0" on="1"/>
        <pt x="589" y="874" on="1"/>
        <pt x="563" y="966" on="1"/>
        <pt x="538" y="872" on="1"/>
      </contour>
    </TTGlyph>
    <TTGlyph name="glyph00494" xMin="62" yMin="0" xMax="843" yMax="1165">
      <contour>
        <pt x="843" y="0" on="1"/>
        <pt x="62" y="0" on="1"/>
        <pt x="62" y="152" on="1"/>
        <pt x="843" y="152" on="1"/>
      </contour>
      <contour>
        <pt x="776" y="531" on="1"/>
        <pt x="127" y="531" on="1"/>
        <pt x="127" y="683" on="1"/>
        <pt x="776" y="683" on="1"/>
      </contour>
      <contour>
        <pt x="843" y="1012" on="1"/>
        <pt x="62" y="1012" on="1"/>
        <pt x="62" y="1165" on="1"/>
        <pt x="843" y="1165" on="1"/>
      </contour>
    </TTGlyph>
    <TTGlyph name="glyph00495" xMin="138" yMin="0" xMax="1092" yMax="1165">
      <contour>
        <pt x="1092" y="0" on="1"/>
        <pt x="906" y="0" on="1"/>
        <pt x="906" y="1012" on="1"/>
        <pt x="323" y="1012" on="1"/>
        <pt x="323" y="0" on="1"/>
        <pt x="138" y="0" on="1"/>
        <pt x="138" y="1165" on="1"/>
        <pt x="1092" y="1165" on="1"/>
      </contour>
    </TTGlyph>
    <TTGlyph name="glyph00496" xMin="63" yMin="0" xMax="968" yMax="1165">
      <contour>
        <pt x="623" y="570" on="1"/>
        <pt x="293" y="153" on="1"/>
        <pt x="968" y="153" on="1"/>
        <pt x="968" y="0" on="1"/>
        <pt x="63" y="0" on="1"/>
        <pt x="63" y="144" on="1"/>
        <pt x="400" y="583" on="1"/>
        <pt x="63" y="1021" on="1"/>
        <pt x="63" y="1165" on="1"/>
        <pt x="918" y="1165" on="1"/>
        <pt x="918" y="1012" on="1"/>
        <pt x="293" y="1012" on="1"/>
        <pt x="623" y="595" on="1"/>
      </contour>
    </TTGlyph>
    <TTGlyph name="glyph00497" xMin="96" yMin="0" xMax="1286" yMax="1165">
      <contour>
        <pt x="784" y="1046" on="1"/>
        <pt x="1014" y="1033" on="0"/>
        <pt x="1286" y="783" on="0"/>
        <pt x="1286" y="580" on="1"/>
        <pt x="1286" y="375" on="0"/>
        <pt x="1011" y="123" on="0"/>
        <pt x="784" y="110" on="1"/>
        <pt x="784" y="0" on="1"/>
        <pt x="599" y="0" on="1"/>
        <pt x="599" y="110" on="1"/>
        <pt x="365" y="123" on="0"/>
        <pt x="96" y="376" on="0"/>
        <pt x="96" y="578" on="1"/>
        <pt x="96" y="782" on="0"/>
        <pt x="368" y="1034" on="0"/>
        <pt x="599" y="1047" on="1"/>
        <pt x="599" y="1165" on="1"/>
        <pt x="784" y="1165" on="1"/>
      </contour>
      <contour>
        <pt x="280" y="578" on="1"/>
        <pt x="280" y="282" on="0"/>
        <pt x="599" y="265" on="1"/>
        <pt x="599" y="891" on="1"/>
        <pt x="445" y="882" on="0"/>
        <pt x="280" y="732" on="0"/>
      </contour>
      <contour>
        <pt x="1102" y="580" on="1"/>
        <pt x="1102" y="733" on="0"/>
        <pt x="936" y="882" on="0"/>
        <pt x="784" y="891" on="1"/>
        <pt x="784" y="265" on="1"/>
        <pt x="936" y="275" on="0"/>
        <pt x="1102" y="425" on="0"/>
      </contour>
    </TTGlyph>
    <TTGlyph name="glyph00498" xMin="96" yMin="0" xMax="1206" yMax="1165">
      <contour>
        <pt x="744" y="443" on="1"/>
        <pt x="1021" y="494" on="0"/>
        <pt x="1021" y="857" on="1"/>
        <pt x="1021" y="1165" on="1"/>
        <pt x="1206" y="1165" on="1"/>
        <pt x="1206" y="842" on="1"/>
        <pt x="1203" y="599" on="0"/>
        <pt x="961" y="313" on="0"/>
        <pt x="744" y="289" on="1"/>
        <pt x="744" y="0" on="1"/>
        <pt x="558" y="0" on="1"/>
        <pt x="558" y="287" on="1"/>
        <pt x="341" y="307" on="0"/>
        <pt x="101" y="592" on="0"/>
        <pt x="96" y="834" on="1"/>
        <pt x="96" y="1165" on="1"/>
        <pt x="282" y="1165" on="1"/>
        <pt x="282" y="856" on="1"/>
        <pt x="282" y="486" on="0"/>
        <pt x="558" y="441" on="1"/>
        <pt x="558" y="1165" on="1"/>
        <pt x="744" y="1165" on="1"/>
      </contour>
    </TTGlyph>
    <TTGlyph name="glyph00499" xMin="117" yMin="0" xMax="1150" yMax="1181">
      <contour>
        <pt x="699" y="157" on="1"/>
        <pt x="835" y="188" on="0"/>
        <pt x="962" y="411" on="0"/>
        <pt x="962" y="616" on="1"/>
        <pt x="962" y="654" on="1"/>
        <pt x="962" y="833" on="0"/>
        <pt x="788" y="1025" on="0"/>
        <pt x="631" y="1025" on="1"/>
        <pt x="475" y="1025" on="0"/>
        <pt x="303" y="832" on="0"/>
        <pt x="303" y="649" on="1"/>
        <pt x="303" y="616" on="1"/>
        <pt x="303" y="412" on="0"/>
        <pt x="444" y="189" on="0"/>
        <pt x="571" y="157" on="1"/>
        <pt x="571" y="0" on="1"/>
        <pt x="121" y="0" on="1"/>
        <pt x="121" y="151" on="1"/>
        <pt x="296" y="151" on="1"/>
        <pt x="117" y="308" on="0"/>
        <pt x="117" y="622" on="1"/>
        <pt x="117" y="652" on="1"/>
        <pt x="117" y="890" on="0"/>
        <pt x="400" y="1181" on="0"/>
        <pt x="631" y="1181" on="1"/>
        <pt x="863" y="1181" on="0"/>
        <pt x="1147" y="889" on="0"/>
        <pt x="1147" y="644" on="1"/>
        <pt x="1147" y="616" on="1"/>
        <pt x="1147" y="307" on="0"/>
        <pt x="969" y="151" on="1"/>
        <pt x="1150" y="151" on="1"/>
        <pt x="1150" y="0" on="1"/>
        <pt x="699" y="0" on="1"/>
      </contour>
    </TTGlyph>
    <TTGlyph name="glyph00500" xMin="38" yMin="-20" xMax="1324" yMax="1165">
      <contour>
        <pt x="394" y="1012" on="1"/>
        <pt x="38" y="1012" on="1"/>
        <pt x="38" y="1165" on="1"/>
        <pt x="943" y="1165" on="1"/>
        <pt x="943" y="1012" on="1"/>
        <pt x="579" y="1012" on="1"/>
        <pt x="579" y="715" on="1"/>
        <pt x="730" y="764" on="0"/>
        <pt x="886" y="764" on="1"/>
        <pt x="1098" y="764" on="0"/>
        <pt x="1324" y="556" on="0"/>
        <pt x="1324" y="360" on="1"/>
        <pt x="1324" y="170" on="0"/>
        <pt x="1095" y="-20" on="0"/>
        <pt x="871" y="-20" on="1"/>
        <pt x="871" y="131" on="1"/>
        <pt x="1012" y="131" on="0"/>
        <pt x="1139" y="240" on="0"/>
        <pt x="1139" y="360" on="1"/>
        <pt x="1139" y="491" on="0"/>
        <pt x="1014" y="612" on="0"/>
        <pt x="886" y="612" on="1"/>
        <pt x="729" y="612" on="0"/>
        <pt x="579" y="562" on="1"/>
        <pt x="579" y="0" on="1"/>
        <pt x="394" y="0" on="1"/>
      </contour>
    </TTGlyph>
    <TTGlyph name="glyph00501" xMin="96" yMin="-16" xMax="1072" yMax="1181">
      <contour>
        <pt x="1072" y="377" on="1"/>
        <pt x="1052" y="190" on="0"/>
        <pt x="800" y="-16" on="0"/>
        <pt x="591" y="-16" on="1"/>
        <pt x="367" y="-16" on="0"/>
        <pt x="96" y="279" on="0"/>
        <pt x="96" y="538" on="1"/>
        <pt x="96" y="632" on="1"/>
        <pt x="96" y="796" on="0"/>
        <pt x="219" y="1045" on="0"/>
        <pt x="450" y="1181" on="0"/>
        <pt x="602" y="1181" on="1"/>
        <pt x="806" y="1181" on="0"/>
        <pt x="1053" y="970" on="0"/>
        <pt x="1072" y="783" on="1"/>
        <pt x="887" y="783" on="1"/>
        <pt x="869" y="913" on="0"/>
        <pt x="728" y="1029" on="0"/>
        <pt x="602" y="1029" on="1"/>
        <pt x="449" y="1029" on="0"/>
        <pt x="287" y="834" on="0"/>
        <pt x="281" y="659" on="1"/>
        <pt x="728" y="659" on="1"/>
        <pt x="728" y="507" on="1"/>
        <pt x="281" y="507" on="1"/>
        <pt x="285" y="329" on="0"/>
        <pt x="446" y="135" on="0"/>
        <pt x="591" y="135" on="1"/>
        <pt x="726" y="135" on="0"/>
        <pt x="867" y="246" on="0"/>
        <pt x="887" y="377" on="1"/>
      </contour>
    </TTGlyph>
    <TTGlyph name="glyph00502" xMin="39" yMin="0" xMax="1787" yMax="1165">
      <contour>
        <pt x="1787" y="366" on="1"/>
        <pt x="1787" y="201" on="0"/>
        <pt x="1557" y="2" on="0"/>
        <pt x="1362" y="0" on="1"/>
        <pt x="893" y="0" on="1"/>
        <pt x="893" y="1012" on="1"/>
        <pt x="475" y="1012" on="1"/>
        <pt x="460" y="601" on="1"/>
        <pt x="449" y="364" on="0"/>
        <pt x="372" y="118" on="0"/>
        <pt x="221" y="1" on="0"/>
        <pt x="98" y="0" on="1"/>
        <pt x="39" y="0" on="1"/>
        <pt x="43" y="165" on="1"/>
        <pt x="89" y="166" on="1"/>
        <pt x="185" y="170" on="0"/>
        <pt x="266" y="360" on="0"/>
        <pt x="276" y="625" on="1"/>
        <pt x="296" y="1165" on="1"/>
        <pt x="1078" y="1165" on="1"/>
        <pt x="1078" y="727" on="1"/>
        <pt x="1370" y="727" on="1"/>
        <pt x="1563" y="723" on="0"/>
        <pt x="1787" y="530" on="0"/>
      </contour>
      <contour>
        <pt x="1078" y="575" on="1"/>
        <pt x="1078" y="152" on="1"/>
        <pt x="1355" y="152" on="1"/>
        <pt x="1469" y="152" on="0"/>
        <pt x="1601" y="269" on="0"/>
        <pt x="1601" y="368" on="1"/>
        <pt x="1601" y="463" on="0"/>
        <pt x="1470" y="575" on="0"/>
        <pt x="1355" y="575" on="1"/>
      </contour>
    </TTGlyph>
    <TTGlyph name="glyph00503" xMin="138" yMin="0" xMax="1801" yMax="1165">
      <contour>
        <pt x="323" y="650" on="1"/>
        <pt x="907" y="650" on="1"/>
        <pt x="907" y="1165" on="1"/>
        <pt x="1092" y="1165" on="1"/>
        <pt x="1092" y="727" on="1"/>
        <pt x="1384" y="727" on="1"/>
        <pt x="1577" y="723" on="0"/>
        <pt x="1801" y="530" on="0"/>
        <pt x="1801" y="366" on="1"/>
        <pt x="1801" y="201" on="0"/>
        <pt x="1571" y="2" on="0"/>
        <pt x="1376" y="0" on="1"/>
        <pt x="907" y="0" on="1"/>
        <pt x="907" y="498" on="1"/>
        <pt x="323" y="498" on="1"/>
        <pt x="323" y="0" on="1"/>
        <pt x="138" y="0" on="1"/>
        <pt x="138" y="1165" on="1"/>
        <pt x="323" y="1165" on="1"/>
      </contour>
      <contour>
        <pt x="1092" y="575" on="1"/>
        <pt x="1092" y="152" on="1"/>
        <pt x="1369" y="152" on="1"/>
        <pt x="1484" y="152" on="0"/>
        <pt x="1616" y="271" on="0"/>
        <pt x="1616" y="368" on="1"/>
        <pt x="1616" y="459" on="0"/>
        <pt x="1491" y="572" on="0"/>
        <pt x="1381" y="575" on="1"/>
      </contour>
    </TTGlyph>
    <TTGlyph name="glyph00504" xMin="40" yMin="0" xMax="1326" yMax="1165">
      <contour>
        <pt x="395" y="1012" on="1"/>
        <pt x="40" y="1012" on="1"/>
        <pt x="40" y="1165" on="1"/>
        <pt x="945" y="1165" on="1"/>
        <pt x="945" y="1012" on="1"/>
        <pt x="581" y="1012" on="1"/>
        <pt x="581" y="715" on="1"/>
        <pt x="728" y="764" on="0"/>
        <pt x="888" y="764" on="1"/>
        <pt x="1100" y="764" on="0"/>
        <pt x="1322" y="562" on="0"/>
        <pt x="1326" y="369" on="1"/>
        <pt x="1326" y="0" on="1"/>
        <pt x="1140" y="0" on="1"/>
        <pt x="1140" y="356" on="1"/>
        <pt x="1140" y="491" on="0"/>
        <pt x="1015" y="612" on="0"/>
        <pt x="888" y="612" on="1"/>
        <pt x="731" y="612" on="0"/>
        <pt x="581" y="562" on="1"/>
        <pt x="581" y="0" on="1"/>
        <pt x="395" y="0" on="1"/>
      </contour>
    </TTGlyph>
</ttFont>
